<svg xmlns="http://www.w3.org/2000/svg" xmlns:xlink="http://www.w3.org/1999/xlink" viewBox="0 0 175.79 392.09"><defs><style>.cls-1{fill:#122b4e;}.cls-2{isolation:isolate;}.cls-19,.cls-22,.cls-3,.cls-6,.cls-7{mix-blend-mode:multiply;}.cls-3{fill:url(#linear-gradient);}.cls-4{clip-path:url(#clip-path);}.cls-5{clip-path:url(#clip-path-2);}.cls-6{fill:url(#linear-gradient-2);}.cls-7{fill:url(#linear-gradient-3);}.cls-8{fill:url(#未命名的渐变_181);}.cls-9{fill:#040000;}.cls-10{fill:url(#未命名的渐变_189);}.cls-11{fill:url(#linear-gradient-4);}.cls-12{fill:url(#未命名的渐变_189-2);}.cls-13{fill:url(#linear-gradient-5);}.cls-14{fill:#143258;}.cls-15{fill:#132e53;}.cls-16{fill:url(#linear-gradient-6);}.cls-17{fill:url(#未命名的渐变_177);}.cls-18{fill:url(#未命名的渐变_164);}.cls-19{fill:url(#linear-gradient-7);}.cls-20{fill:url(#linear-gradient-8);}.cls-21{fill:url(#linear-gradient-9);}.cls-23{fill:#b4b3b3;}.cls-24{fill:url(#linear-gradient-10);}.cls-25{fill:#1d2b57;}.cls-26{mix-blend-mode:screen;fill:url(#linear-gradient-11);}.cls-27{fill:url(#linear-gradient-12);}.cls-28{fill:#2f5eab;}.cls-29{font-size:61.16px;fill:#fdfdf3;font-family:Broadway;}</style><linearGradient id="linear-gradient" x1="609.14" y1="133" x2="657.73" y2="132.26" gradientTransform="matrix(1, 0, 0, -1, 0, 594.1)" gradientUnits="userSpaceOnUse"><stop offset="0" stop-color="#242424"/><stop offset="1" stop-color="#fff"/></linearGradient><clipPath id="clip-path" transform="translate(-482.2 -253.88)"><path class="cls-1" d="M614.36,269.45s19.77,0,21.82,9.67c1.94,9.14,5.17,44.45,5.17,44.45l-13.1-1.19Z"/></clipPath><clipPath id="clip-path-2" transform="translate(-482.2 -253.88)"><path class="cls-1" d="M525.23,269.45s-19.77,0-21.82,9.67c-1.94,9.14-5.17,44.45-5.17,44.45l13.1-1.19Z"/></clipPath><linearGradient id="linear-gradient-2" x1="504.8" y1="322.48" x2="504.8" y2="314" gradientTransform="matrix(-1, 0, 0, 1, 1010.26, 0)" gradientUnits="userSpaceOnUse"><stop offset="0" stop-color="#ccc"/><stop offset="1" stop-color="#fff"/></linearGradient><linearGradient id="linear-gradient-3" x1="634.13" y1="322.48" x2="634.13" y2="314" gradientTransform="matrix(1, 0, 0, 1, 0, 0)" xlink:href="#linear-gradient-2"/><linearGradient id="未命名的渐变_181" x1="507.26" y1="293.78" x2="642.86" y2="293.78" gradientTransform="translate(43.27) scale(0.92 1)" gradientUnits="userSpaceOnUse"><stop offset="0" stop-color="#2a64b0"/><stop offset="0.21" stop-color="#2b67b2"/><stop offset="0.37" stop-color="#2d70b9"/><stop offset="0.51" stop-color="#3180c4"/><stop offset="0.54" stop-color="#3286c8"/><stop offset="0.88" stop-color="#3286c8"/><stop offset="0.93" stop-color="#3286c8"/><stop offset="1" stop-color="#338ccc"/></linearGradient><radialGradient id="未命名的渐变_189" cx="491.35" cy="17179.81" r="11.49" gradientTransform="translate(0 -4794.18) scale(1 0.3)" gradientUnits="userSpaceOnUse"><stop offset="0" stop-color="#94c0de"/><stop offset="0.32" stop-color="#77a3cf"/><stop offset="1" stop-color="#2f5eab"/></radialGradient><linearGradient id="linear-gradient-4" x1="482.98" y1="319.16" x2="499.53" y2="319.16" gradientUnits="userSpaceOnUse"><stop offset="0" stop-color="#363b39"/><stop offset="1" stop-color="#1b1c1c"/></linearGradient><radialGradient id="未命名的渐变_189-2" cx="350.13" cy="17179.81" r="11.48" gradientTransform="matrix(-1, 0, 0, 0.3, 998.99, -4794.18)" xlink:href="#未命名的渐变_189"/><linearGradient id="linear-gradient-5" x1="341.76" y1="319.16" x2="358.32" y2="319.16" gradientTransform="matrix(-1, 0, 0, 1, 998.99, 0)" xlink:href="#linear-gradient-4"/><linearGradient id="linear-gradient-6" x1="569.8" y1="318.99" x2="569.8" y2="299.72" xlink:href="#linear-gradient-4"/><linearGradient id="未命名的渐变_177" x1="569.41" y1="636.82" x2="569.41" y2="658.64" gradientUnits="userSpaceOnUse"><stop offset="0" stop-color="#1f4a80"/><stop offset="1" stop-color="#112748"/></linearGradient><linearGradient id="未命名的渐变_164" x1="498.24" y1="481.33" x2="641.35" y2="481.33" gradientUnits="userSpaceOnUse"><stop offset="0" stop-color="#2b66b1"/><stop offset="0.01" stop-color="#2c69b3"/><stop offset="0.11" stop-color="#3286c8"/><stop offset="0.19" stop-color="#338aca"/><stop offset="0.47" stop-color="#338ccc"/><stop offset="0.84" stop-color="#338ccc"/><stop offset="0.91" stop-color="#338ccc"/><stop offset="1" stop-color="#338ccc"/></linearGradient><linearGradient id="linear-gradient-7" x1="569.8" y1="319.2" x2="569.8" y2="321.76" gradientUnits="userSpaceOnUse"><stop offset="0" stop-color="#c3702c"/><stop offset="0.27" stop-color="#d7a073"/><stop offset="0.52" stop-color="#e8c9af"/><stop offset="0.73" stop-color="#f5e6da"/><stop offset="0.9" stop-color="#fcf8f5"/><stop offset="1" stop-color="#fff"/></linearGradient><linearGradient id="linear-gradient-8" x1="503.26" y1="643.54" x2="541.2" y2="643.54" xlink:href="#linear-gradient-4"/><linearGradient id="linear-gradient-9" x1="381.9" y1="643.54" x2="419.84" y2="643.54" gradientTransform="matrix(-1, 0, 0, 1, 1018.31, 0)" xlink:href="#linear-gradient-4"/><linearGradient id="linear-gradient-10" x1="87.59" y1="390.74" x2="87.59" y2="393.86" xlink:href="#linear-gradient-4"/><linearGradient id="linear-gradient-11" x1="559.41" y1="336.42" x2="544.82" y2="311.92" gradientUnits="userSpaceOnUse"><stop offset="0" stop-color="#3a3b3b"/><stop offset="1" stop-color="#040000"/></linearGradient><linearGradient id="linear-gradient-12" x1="569.8" y1="263.59" x2="569.8" y2="261.4" xlink:href="#linear-gradient-4"/></defs><g class="cls-2"><g id="图层_1" data-name="图层 1"><path class="cls-3" d="M630.06,276.49H605c-14,0-25.29,6.9-25.29,19.68V622.82C579.67,635.61,591,646,605,646l6.68-.77c14,0,43.7.77,43.7-22.38V296.17C655.34,283.39,655.34,276.49,630.06,276.49Z" transform="translate(-482.2 -253.88)"/><path class="cls-1" d="M614.36,269.45s19.77,0,21.82,9.67c1.94,9.14,5.17,44.45,5.17,44.45l-13.1-1.19Z" transform="translate(-482.2 -253.88)"/><g class="cls-4"><rect class="cls-1" x="132.15" y="15.56" width="26.99" height="54.13"/><path class="cls-1" d="M638.55,293.71c3.16,16.39,4.36,31.5,3.76,42.68V325.55H618v5.71c-1.13-3.08-2.24-6.38-3.29-9.87a228.63,228.63,0,0,1-5.61-22.93h3.12v-31h17.46v-6.54c1.13,3.07,2.24,6.37,3.3,9.87A228.49,228.49,0,0,1,638.55,293.71Z" transform="translate(-482.2 -253.88)"/><path class="cls-1" d="M638.38,293.74c3.11,16.2,4.31,31.13,3.72,42.18V325.55H621.49v13.69c-4.68-10.2-9.12-24.6-12.24-40.8h2.94v-31h17.39v-6.13c1.13,3,2.21,6.3,3.26,9.75A226.68,226.68,0,0,1,638.38,293.74Z" transform="translate(-482.2 -253.88)"/><path class="cls-1" d="M638.21,293.77c3.07,16,4.25,30.76,3.67,41.67v-9.89H621.52v13.17c-4.62-10.07-9-24.3-12.1-40.31h2.77v-31h17.32v-5.71c1.11,3,2.19,6.22,3.22,9.63A227.46,227.46,0,0,1,638.21,293.77Z" transform="translate(-482.2 -253.88)"/><path class="cls-1" d="M638,293.79c3,15.82,4.21,30.4,3.63,41.18v-9.42H621.55v12.66c-4.57-9.95-8.91-24-12-39.83h2.6V267.46h13.88V254C630.64,263.91,635,278,638,293.79Z" transform="translate(-482.2 -253.88)"/><path class="cls-1" d="M637.86,293.82c3,15.62,4.15,30,3.57,40.67v-8.94H621.57V337.7c-4.5-9.83-8.8-23.73-11.81-39.35h2.43V267.46h13.86v-13C630.56,264.31,634.85,278.19,637.86,293.82Z" transform="translate(-482.2 -253.88)"/><path class="cls-1" d="M637.68,293.85c3,15.43,4.11,29.66,3.54,40.17v-8.47H621.6v11.63c-4.45-9.7-8.69-23.42-11.66-38.86h2.25V267.46H626V255C630.47,264.7,634.72,278.42,637.68,293.85Z" transform="translate(-482.2 -253.88)"/><path class="cls-1" d="M637.51,293.88c2.93,15.24,4,29.28,3.49,39.66v-8H621.63v11.12c-4.4-9.59-8.59-23.14-11.52-38.37h2.08V267.46H626v-12C630.39,265.09,634.58,278.64,637.51,293.88Z" transform="translate(-482.2 -253.88)"/><path class="cls-1" d="M637.33,293.91c2.9,15,4,28.91,3.46,39.16v-7.52H621.66v10.61c-4.35-9.47-8.48-22.85-11.37-37.89h1.9V267.46H626V256C630.31,265.48,634.44,278.86,637.33,293.91Z" transform="translate(-482.2 -253.88)"/><path class="cls-1" d="M637.16,293.93c2.86,14.85,4,28.55,3.41,38.67v-7.05H621.69v10.09c-4.29-9.34-8.38-22.55-11.23-37.4h1.73V267.46h13.75V256.53C630.23,265.88,634.31,279.08,637.16,293.93Z" transform="translate(-482.2 -253.88)"/><path class="cls-1" d="M637,294c2.81,14.66,3.89,28.17,3.35,38.16v-6.57H621.71v9.58c-4.23-9.23-8.26-22.26-11.08-36.92h1.56V267.46h13.72V257.05C630.14,266.26,634.17,279.3,637,294Z" transform="translate(-482.2 -253.88)"/><path class="cls-1" d="M636.82,294c2.78,14.47,3.84,27.79,3.31,37.66v-6.1H621.74v9.06c-4.17-9.09-8.15-22-10.93-36.43h1.38V267.46h13.69v-9.9C630.06,266.66,634,279.52,636.82,294Z" transform="translate(-482.2 -253.88)"/><path class="cls-1" d="M636.64,294c2.75,14.27,3.8,27.42,3.28,37.16v-5.63H621.77v8.55c-4.13-9-8-21.67-10.79-35.94h1.21v-30.7h13.66v-9.39C630,267.05,633.89,279.74,636.64,294Z" transform="translate(-482.2 -253.88)"/><path class="cls-1" d="M636.47,294.05c2.71,14.08,3.74,27.05,3.23,36.65v-5.15H621.8v8c-4.07-8.86-7.94-21.38-10.65-35.46h1V267.46h13.64v-8.88C629.9,267.44,633.76,280,636.47,294.05Z" transform="translate(-482.2 -253.88)"/><path class="cls-1" d="M636.3,294.07C639,308,640,320.76,639.49,330.22v-4.67H621.83v7.53c-4-8.74-7.83-21.09-10.51-35h.87V267.46h13.6V259.1C629.81,267.84,633.62,280.19,636.3,294.07Z" transform="translate(-482.2 -253.88)"/><path class="cls-1" d="M636.12,294.1c2.64,13.7,3.65,26.32,3.15,35.65v-4.2H621.85v7c-4-8.62-7.71-20.8-10.35-34.49h.69V267.46h13.58v-7.85C629.73,268.23,633.49,280.4,636.12,294.1Z" transform="translate(-482.2 -253.88)"/><path class="cls-1" d="M636,294.13c2.6,13.51,3.59,25.95,3.1,35.15v-3.73H621.88v6.5c-3.9-8.5-7.61-20.5-10.21-34h.52V267.46h13.55v-7.33C629.64,268.62,633.35,280.63,636,294.13Z" transform="translate(-482.2 -253.88)"/><path class="cls-1" d="M635.78,294.16c2.55,13.31,3.54,25.58,3.05,34.64v-3.25H621.91v6c-3.84-8.37-7.5-20.2-10.06-33.51h.34V267.46h13.53v-6.82C629.56,269,633.22,280.85,635.78,294.16Z" transform="translate(-482.2 -253.88)"/><path class="cls-1" d="M635.61,294.19c2.52,13.11,3.48,25.2,3,34.14v-2.78H621.93V331c-3.79-8.25-7.39-19.91-9.91-33h.17V267.46h13.5v-6.31C629.48,269.4,633.08,281.07,635.61,294.19Z" transform="translate(-482.2 -253.88)"/><path class="cls-1" d="M635.43,294.21c2.49,12.93,3.44,24.84,3,33.65v-2.31H622v4.95c-3.73-8.13-7.28-19.62-9.76-32.54s-3.44-24.83-3-33.64l3,3.14h13.47v-5.79C629.4,269.8,633,281.29,635.43,294.21Z" transform="translate(-482.2 -253.88)"/><path class="cls-1" d="M635.26,294.24c2.45,12.73,3.38,24.47,2.91,33.14v-1.83H622V330c-3.68-8-7.18-19.33-9.62-32.06s-3.39-24.46-2.92-33.14l2.74,2.67h13.44v-5.28C629.31,270.19,632.81,281.51,635.26,294.24Z" transform="translate(-482.2 -253.88)"/><path class="cls-1" d="M635.08,294.27c2.42,12.54,3.34,24.09,2.88,32.63v-1.35H622v3.93c-3.62-7.89-7.07-19-9.48-31.58s-3.34-24.09-2.88-32.64l2.53,2.2h13.42V262.7C629.23,270.58,632.67,281.73,635.08,294.27Z" transform="translate(-482.2 -253.88)"/><path class="cls-1" d="M634.91,294.3c2.37,12.34,3.28,23.71,2.83,32.13v-.88H622.05V329c-3.57-7.77-7-18.75-9.34-31.09s-3.28-23.73-2.83-32.14l2.31,1.72h13.38v-4.25C629.14,271,632.54,282,634.91,294.3Z" transform="translate(-482.2 -253.88)"/><path class="cls-1" d="M634.73,294.33c2.34,12.14,3.24,23.34,2.79,31.63v-.41H622.07v2.9c-3.5-7.64-6.85-18.45-9.18-30.6s-3.24-23.36-2.79-31.63l2.09,1.24h13.36v-3.74C629.06,271.37,632.4,282.17,634.73,294.33Z" transform="translate(-482.2 -253.88)"/><path class="cls-1" d="M634.56,294.35c4.6,23.92,3.52,44.09-2.42,45V325.55h-10v2.39c-3.46-7.53-6.74-18.16-9-30.12s-3.18-23-2.74-31.13l1.87.77h13.33v-3.22C629,271.76,632.27,282.4,634.56,294.35Z" transform="translate(-482.2 -253.88)"/><path class="cls-1" d="M634.39,294.38c4.53,23.53,3.46,43.38-2.39,44.31V325.55h-9.87v1.87c-3.4-7.4-6.63-17.86-8.89-29.63s-3.14-22.61-2.7-30.63l1.65.3H625.5v-2.71C628.9,272.15,632.12,282.61,634.39,294.38Z" transform="translate(-482.2 -253.88)"/><path class="cls-1" d="M634.22,294.41c4.45,23.15,3.4,42.66-2.34,43.59s-14-17.09-18.47-40.24-3.41-42.66,2.34-43.59v13.29h9.72v-2.2C628.81,272.55,632,282.83,634.22,294.41Z" transform="translate(-482.2 -253.88)"/><path class="cls-1" d="M634.05,294.44c4.37,22.76,3.34,41.95-2.31,42.86S618,320.5,613.58,297.74s-3.35-42,2.3-42.86S629.67,271.68,634.05,294.44Z" transform="translate(-482.2 -253.88)"/><path class="cls-1" d="M633.87,294.47c4.3,22.37,3.29,41.24-2.26,42.13s-13.55-16.51-17.86-38.89-3.28-41.24,2.27-42.14S629.56,272.09,633.87,294.47Z" transform="translate(-482.2 -253.88)"/><path class="cls-1" d="M633.7,294.49c4.23,22,3.23,40.54-2.23,41.41s-13.31-16.23-17.55-38.22-3.22-40.53,2.23-41.41S629.46,272.5,633.7,294.49Z" transform="translate(-482.2 -253.88)"/><path class="cls-1" d="M633.52,294.52c4.16,21.6,3.18,39.82-2.18,40.68s-13.09-15.94-17.24-37.55-3.18-39.82,2.19-40.68S629.37,272.92,633.52,294.52Z" transform="translate(-482.2 -253.88)"/><path class="cls-1" d="M633.35,294.55c4.08,21.22,3.12,39.11-2.15,40s-12.84-15.67-16.93-36.89-3.12-39.11,2.15-39.95S629.27,273.33,633.35,294.55Z" transform="translate(-482.2 -253.88)"/><path class="cls-1" d="M633.17,294.57c4,20.84,3.07,38.4-2.11,39.24s-12.6-15.38-16.61-36.21-3.07-38.4,2.11-39.23S629.17,273.74,633.17,294.57Z" transform="translate(-482.2 -253.88)"/><path class="cls-1" d="M633,294.61c3.94,20.44,3,37.68-2.07,38.5s-12.37-15.1-16.31-35.54-3-37.69,2.07-38.5S629.06,274.16,633,294.61Z" transform="translate(-482.2 -253.88)"/><path class="cls-1" d="M632.83,294.64c3.86,20.06,2.95,37-2,37.77s-12.15-14.81-16-34.87-2.95-37,2-37.78S629,274.57,632.83,294.64Z" transform="translate(-482.2 -253.88)"/><path class="cls-1" d="M632.66,294.66c3.78,19.68,2.89,36.26-2,37s-11.92-14.53-15.7-34.2-2.89-36.26,2-37.05S628.87,275,632.66,294.66Z" transform="translate(-482.2 -253.88)"/><path class="cls-1" d="M632.48,294.69c3.71,19.29,2.84,35.55-2,36.32s-11.67-14.24-15.39-33.53-2.83-35.54,2-36.32S628.77,275.4,632.48,294.69Z" transform="translate(-482.2 -253.88)"/><path class="cls-1" d="M632.31,294.71c3.63,18.91,2.78,34.85-1.92,35.61s-11.44-14-15.08-32.86-2.78-34.84,1.92-35.6S628.68,275.81,632.31,294.71Z" transform="translate(-482.2 -253.88)"/><path class="cls-1" d="M632.13,294.75c3.57,18.51,2.73,34.12-1.87,34.87s-11.21-13.68-14.77-32.19-2.73-34.13,1.87-34.87S628.57,276.22,632.13,294.75Z" transform="translate(-482.2 -253.88)"/><path class="cls-1" d="M632,294.78c3.49,18.12,2.67,33.41-1.84,34.14s-11-13.39-14.46-31.52S613,264,617.5,263.25,628.47,276.64,632,294.78Z" transform="translate(-482.2 -253.88)"/><path class="cls-1" d="M631.79,294.8c3.41,17.75,2.61,32.71-1.79,33.42s-10.76-13.1-14.17-30.85-2.61-32.7,1.8-33.42S628.38,277.05,631.79,294.8Z" transform="translate(-482.2 -253.88)"/><path class="cls-1" d="M631.62,294.83c3.33,17.36,2.55,32-1.76,32.69S619.35,314.7,616,297.34s-2.55-32,1.75-32.69S628.28,277.46,631.62,294.83Z" transform="translate(-482.2 -253.88)"/><path class="cls-1" d="M631.44,294.85c3.27,17,2.5,31.29-1.71,32s-10.28-12.53-13.54-29.5-2.5-31.29,1.71-32S628.18,277.88,631.44,294.85Z" transform="translate(-482.2 -253.88)"/><path class="cls-1" d="M631.27,294.88c3.19,16.6,2.44,30.58-1.68,31.24s-10.05-12.24-13.23-28.83-2.44-30.58,1.67-31.24S628.08,278.29,631.27,294.88Z" transform="translate(-482.2 -253.88)"/><path class="cls-1" d="M631.1,294.92c3.12,16.19,2.38,29.86-1.65,30.5s-9.81-12-12.92-28.16-2.39-29.86,1.64-30.52S628,278.7,631.1,294.92Z" transform="translate(-482.2 -253.88)"/><path class="cls-1" d="M630.92,294.94c3,15.81,2.33,29.16-1.6,29.78s-9.58-11.67-12.62-27.48-2.33-29.16,1.6-29.8S627.88,279.12,630.92,294.94Z" transform="translate(-482.2 -253.88)"/><path class="cls-1" d="M630.75,295c3,15.43,2.26,28.44-1.57,29.06s-9.33-11.4-12.31-26.83-2.26-28.44,1.57-29.05S627.78,279.53,630.75,295Z" transform="translate(-482.2 -253.88)"/><path class="cls-1" d="M630.57,295c2.9,15.05,2.21,27.74-1.52,28.34s-9.11-11.11-12-26.15-2.21-27.74,1.53-28.33S627.68,280,630.57,295Z" transform="translate(-482.2 -253.88)"/><path class="cls-1" d="M630.4,295c2.82,14.66,2.16,27-1.48,27.61s-8.88-10.82-11.7-25.48-2.15-27,1.48-27.61S627.58,280.36,630.4,295Z" transform="translate(-482.2 -253.88)"/><path class="cls-1" d="M630.23,295.06c2.74,14.27,2.1,26.3-1.44,26.87s-8.65-10.54-11.39-24.81-2.1-26.31,1.44-26.88S627.48,280.78,630.23,295.06Z" transform="translate(-482.2 -253.88)"/><path class="cls-1" d="M630.06,295.08c2.67,13.89,2,25.6-1.41,26.15S620.24,311,617.57,297.1s-2-25.61,1.4-26.16S627.39,281.19,630.06,295.08Z" transform="translate(-482.2 -253.88)"/><path class="cls-1" d="M629.88,295.11c2.6,13.5,2,24.88-1.37,25.43s-8.17-10-10.76-23.48-2-24.89,1.36-25.42S627.29,281.61,629.88,295.11Z" transform="translate(-482.2 -253.88)"/><path class="cls-1" d="M629.71,295.13c2.52,13.12,1.93,24.18-1.33,24.71s-7.94-9.69-10.47-22.81-1.93-24.17,1.33-24.69S627.18,282,629.71,295.13Z" transform="translate(-482.2 -253.88)"/><path class="cls-1" d="M629.53,295.16c2.45,12.73,1.87,23.47-1.29,24s-7.7-9.4-10.15-22.13-1.87-23.46,1.29-24S627.08,282.44,629.53,295.16Z" transform="translate(-482.2 -253.88)"/><path class="cls-1" d="M629.36,295.2c2.37,12.34,1.81,22.75-1.24,23.24s-7.49-9.11-9.86-21.46-1.81-22.75,1.25-23.25S627,282.85,629.36,295.2Z" transform="translate(-482.2 -253.88)"/><path class="cls-1" d="M629.18,295.22c2.31,12,1.77,22-1.2,22.52s-7.24-8.83-9.54-20.78-1.76-22,1.2-22.53S626.89,283.26,629.18,295.22Z" transform="translate(-482.2 -253.88)"/><path class="cls-1" d="M629,295.25c2.23,11.57,1.71,21.33-1.17,21.8s-7-8.55-9.23-20.13-1.7-21.33,1.17-21.79S626.79,283.68,629,295.25Z" transform="translate(-482.2 -253.88)"/><path class="cls-1" d="M628.84,295.27c2.16,11.2,1.65,20.63-1.13,21.07s-6.78-8.25-8.93-19.45-1.64-20.61,1.13-21.06S626.69,284.09,628.84,295.27Z" transform="translate(-482.2 -253.88)"/><path class="cls-1" d="M628.67,295.3c2.07,10.81,1.58,19.91-1.1,20.34s-6.54-8-8.61-18.77-1.59-19.91,1.09-20.34S626.59,284.5,628.67,295.3Z" transform="translate(-482.2 -253.88)"/><path class="cls-1" d="M628.5,295.33c2,10.41,1.52,19.2-1.06,19.61s-6.31-7.68-8.31-18.1-1.53-19.2,1.06-19.62S626.49,284.92,628.5,295.33Z" transform="translate(-482.2 -253.88)"/><path class="cls-1" d="M628.32,295.36c1.93,10,1.47,18.49-1,18.89s-6.06-7.4-8-17.43-1.47-18.5,1-18.9S626.39,285.33,628.32,295.36Z" transform="translate(-482.2 -253.88)"/><path class="cls-1" d="M628.15,295.39c1.86,9.64,1.41,17.77-1,18.16s-5.84-7.12-7.7-16.76-1.41-17.78,1-18.17S626.29,285.74,628.15,295.39Z" transform="translate(-482.2 -253.88)"/><path class="cls-1" d="M628,295.41c1.78,9.26,1.37,17.07-.93,17.44s-5.61-6.83-7.39-16.1-1.36-17.06.93-17.42S626.19,286.16,628,295.41Z" transform="translate(-482.2 -253.88)"/><path class="cls-1" d="M627.8,295.44c1.71,8.88,1.31,16.35-.9,16.71s-5.37-6.55-7.08-15.42-1.3-16.36.9-16.71S626.09,286.57,627.8,295.44Z" transform="translate(-482.2 -253.88)"/><path class="cls-1" d="M627.62,295.47c1.64,8.49,1.26,15.64-.85,16s-5.14-6.26-6.77-14.75-1.25-15.65.85-16S626,287,627.62,295.47Z" transform="translate(-482.2 -253.88)"/><path class="cls-1" d="M627.46,295.5c1.55,8.1,1.18,14.93-.83,15.25s-4.9-6-6.46-14.07-1.19-14.93.82-15.26S625.9,287.4,627.46,295.5Z" transform="translate(-482.2 -253.88)"/><path class="cls-1" d="M627.28,295.53c1.48,7.72,1.13,14.22-.78,14.53s-4.67-5.7-6.15-13.41-1.14-14.22.78-14.53S625.79,287.81,627.28,295.53Z" transform="translate(-482.2 -253.88)"/><path class="cls-1" d="M627.11,295.55c1.4,7.33,1.07,13.51-.75,13.81s-4.43-5.42-5.84-12.75-1.08-13.5.74-13.79S625.69,288.22,627.11,295.55Z" transform="translate(-482.2 -253.88)"/><path class="cls-1" d="M626.93,295.58c1.34,6.95,1,12.8-.69,13.08s-4.22-5.13-5.55-12.07-1-12.8.7-13.08S625.6,288.64,626.93,295.58Z" transform="translate(-482.2 -253.88)"/><path class="cls-1" d="M626.76,295.61c1.26,6.56,1,12.09-.66,12.35s-4-4.84-5.24-11.4-1-12.08.66-12.35S625.5,289.05,626.76,295.61Z" transform="translate(-482.2 -253.88)"/><path class="cls-1" d="M626.59,295.64c1.19,6.17.91,11.38-.63,11.62s-3.73-4.56-4.93-10.73-.9-11.37.63-11.62S625.4,289.46,626.59,295.64Z" transform="translate(-482.2 -253.88)"/><path class="cls-1" d="M626.41,295.67c1.11,5.78.86,10.66-.58,10.9s-3.51-4.28-4.62-10.06-.86-10.67.59-10.9S625.3,289.88,626.41,295.67Z" transform="translate(-482.2 -253.88)"/><path class="cls-1" d="M626.24,295.69c1,5.41.79,10-.55,10.18s-3.27-4-4.3-9.4-.8-10,.54-10.16S625.2,290.29,626.24,295.69Z" transform="translate(-482.2 -253.88)"/><path class="cls-1" d="M626.07,295.72c1,5,.73,9.25-.51,9.45s-3-3.71-4-8.72-.74-9.24.51-9.45S625.1,290.7,626.07,295.72Z" transform="translate(-482.2 -253.88)"/><path class="cls-1" d="M625.9,295.75c.89,4.63.67,8.54-.48,8.72s-2.79-3.42-3.69-8.05-.68-8.53.47-8.72S625,291.12,625.9,295.75Z" transform="translate(-482.2 -253.88)"/><path class="cls-1" d="M625.72,295.78c.82,4.24.62,7.82-.43,8s-2.57-3.13-3.38-7.38-.63-7.82.43-8S624.9,291.53,625.72,295.78Z" transform="translate(-482.2 -253.88)"/><path class="cls-1" d="M625.55,295.81c.74,3.85.57,7.11-.39,7.27s-2.34-2.86-3.09-6.71-.56-7.12.39-7.27S624.8,292,625.55,295.81Z" transform="translate(-482.2 -253.88)"/><path class="cls-1" d="M625.37,295.83c.67,3.48.51,6.41-.35,6.54s-2.1-2.56-2.77-6-.51-6.4.35-6.54S624.7,292.36,625.37,295.83Z" transform="translate(-482.2 -253.88)"/><path class="cls-1" d="M625.2,295.86c.59,3.09.45,5.69-.31,5.81s-1.87-2.27-2.47-5.36-.45-5.69.32-5.82S624.61,292.78,625.2,295.86Z" transform="translate(-482.2 -253.88)"/><path class="cls-1" d="M625,295.89c.53,2.7.4,5-.27,5.08s-1.63-2-2.15-4.69-.4-5,.27-5.09S624.51,293.19,625,295.89Z" transform="translate(-482.2 -253.88)"/><path class="cls-1" d="M624.85,295.92c.44,2.32.34,4.26-.23,4.36s-1.4-1.71-1.85-4-.34-4.27.24-4.36S624.4,293.61,624.85,295.92Z" transform="translate(-482.2 -253.88)"/><path class="cls-1" d="M624.68,296c.37,1.93.28,3.55-.2,3.63s-1.16-1.42-1.53-3.35-.29-3.56.19-3.63S624.3,294,624.68,296Z" transform="translate(-482.2 -253.88)"/><path class="cls-1" d="M624.51,296c.29,1.54.23,2.85-.16,2.91s-.94-1.14-1.23-2.68-.23-2.84.16-2.91S624.21,294.44,624.51,296Z" transform="translate(-482.2 -253.88)"/><path class="cls-1" d="M624.33,296c.23,1.16.18,2.13-.11,2.18s-.7-.85-.93-2-.17-2.13.12-2.18S624.11,294.85,624.33,296Z" transform="translate(-482.2 -253.88)"/><path class="cls-1" d="M624.16,296c.14.77.11,1.42-.08,1.45s-.46-.56-.62-1.34-.11-1.42.08-1.45S624,295.26,624.16,296Z" transform="translate(-482.2 -253.88)"/><path class="cls-1" d="M624,296.06c.08.38.06.71,0,.73s-.24-.29-.31-.68-.06-.71,0-.72S623.91,295.68,624,296.06Z" transform="translate(-482.2 -253.88)"/></g><path class="cls-1" d="M525.23,269.45s-19.77,0-21.82,9.67c-1.94,9.14-5.17,44.45-5.17,44.45l13.1-1.19Z" transform="translate(-482.2 -253.88)"/><g class="cls-5"><rect class="cls-1" x="16.03" y="15.56" width="26.99" height="54.13"/><path class="cls-1" d="M503.94,288.65c-5,25.86-6.13,47.28-2.57,47.86s10.45-19.93,15.42-45.79a260.12,260.12,0,0,0,4.49-33.41v10.15h-9.09V255.85A263.44,263.44,0,0,0,503.94,288.65Z" transform="translate(-482.2 -253.88)"/><path class="cls-1" d="M504,288.66c-4.92,25.55-6.06,46.73-2.55,47.29s10.33-19.69,15.25-45.24a261.92,261.92,0,0,0,4.44-33v9.77h-9V256.24A260.12,260.12,0,0,0,504,288.66Z" transform="translate(-482.2 -253.88)"/><path class="cls-1" d="M504.09,288.67c-4.86,25.25-6,46.17-2.51,46.74s10.21-19.47,15.06-44.71A256.17,256.17,0,0,0,521,258.07v9.39h-8.88V256.65A260,260,0,0,0,504.09,288.67Z" transform="translate(-482.2 -253.88)"/><path class="cls-1" d="M504.17,288.69c-4.8,24.94-5.91,45.61-2.49,46.16s10.09-19.22,14.89-44.17a250.13,250.13,0,0,0,4.32-32.23v9h-8.76V257A254.38,254.38,0,0,0,504.17,288.69Z" transform="translate(-482.2 -253.88)"/><path class="cls-1" d="M504.25,288.7c-4.75,24.64-5.85,45.05-2.46,45.6s10-19,14.71-43.63a250.07,250.07,0,0,0,4.27-31.84v8.63h-8.66v-10A248.64,248.64,0,0,0,504.25,288.7Z" transform="translate(-482.2 -253.88)"/><path class="cls-1" d="M504.31,288.71c-4.67,24.33-5.76,44.5-2.42,45s9.85-18.75,14.52-43.09a245,245,0,0,0,4.23-31.44v8.24h-8.56v-9.62A252.05,252.05,0,0,0,504.31,288.71Z" transform="translate(-482.2 -253.88)"/><path class="cls-1" d="M504.39,288.73c-4.62,24-5.69,43.94-2.39,44.46s9.72-18.51,14.34-42.54a244.94,244.94,0,0,0,4.17-31v7.86h-8.45v-9.22A244.2,244.2,0,0,0,504.39,288.73Z" transform="translate(-482.2 -253.88)"/><path class="cls-1" d="M504.47,288.73c-4.56,23.73-5.62,43.39-2.37,43.91s9.6-18.28,14.17-42A240.67,240.67,0,0,0,520.38,260v7.48H512v-8.83A242.9,242.9,0,0,0,504.47,288.73Z" transform="translate(-482.2 -253.88)"/><path class="cls-1" d="M504.54,288.75c-4.5,23.42-5.55,42.83-2.33,43.34s9.47-18,14-41.46a233.81,233.81,0,0,0,4.06-30.27v7.1H512V259A240.71,240.71,0,0,0,504.54,288.75Z" transform="translate(-482.2 -253.88)"/><path class="cls-1" d="M504.62,288.76c-4.45,23.12-5.47,42.27-2.31,42.78s9.36-17.81,13.81-40.93a233.12,233.12,0,0,0,4-29.87v6.72H512v-8A235.39,235.39,0,0,0,504.62,288.76Z" transform="translate(-482.2 -253.88)"/><path class="cls-1" d="M504.69,288.77c-4.38,22.81-5.4,41.72-2.27,42.22s9.23-17.57,13.62-40.39a233.37,233.37,0,0,0,4-29.48v6.34h-8v-7.63A236.8,236.8,0,0,0,504.69,288.77Z" transform="translate(-482.2 -253.88)"/><path class="cls-1" d="M504.77,288.78c-4.33,22.51-5.34,41.16-2.24,41.66s9.1-17.34,13.43-39.85a229.72,229.72,0,0,0,3.91-29.09v6H512v-7.23A229.44,229.44,0,0,0,504.77,288.78Z" transform="translate(-482.2 -253.88)"/><path class="cls-1" d="M504.85,288.8c-4.27,22.2-5.26,40.6-2.21,41.09s9-17.11,13.25-39.32a225.44,225.44,0,0,0,3.85-28.69v5.58h-7.81v-6.84A226.53,226.53,0,0,0,504.85,288.8Z" transform="translate(-482.2 -253.88)"/><path class="cls-1" d="M504.92,288.8c-4.21,21.91-5.19,40.06-2.18,40.54s8.86-16.88,13.07-38.78a222.06,222.06,0,0,0,3.81-28.3v5.2h-7.71V261A224.37,224.37,0,0,0,504.92,288.8Z" transform="translate(-482.2 -253.88)"/><path class="cls-1" d="M505,288.82c-4.16,21.59-5.12,39.5-2.15,40s8.73-16.64,12.88-38.24a218.26,218.26,0,0,0,3.75-27.9v4.81h-7.59v-6A221.91,221.91,0,0,0,505,288.82Z" transform="translate(-482.2 -253.88)"/><path class="cls-1" d="M505.08,288.83c-4.1,21.3-5.05,38.94-2.13,39.41s8.62-16.41,12.71-37.7A214.26,214.26,0,0,0,519.35,263v4.44h-7.48v-5.64A218.37,218.37,0,0,0,505.08,288.83Z" transform="translate(-482.2 -253.88)"/><path class="cls-1" d="M505.15,288.84c-4,21-5,38.38-2.09,38.85s8.49-16.18,12.52-37.16a211,211,0,0,0,3.65-27.12v4h-7.38v-5.25A214.85,214.85,0,0,0,505.15,288.84Z" transform="translate(-482.2 -253.88)"/><path class="cls-1" d="M505.23,288.86c-4,20.68-4.91,37.82-2.07,38.28s8.37-15.94,12.35-36.63a208.52,208.52,0,0,0,3.59-26.72v3.67h-7.27v-4.84A208.2,208.2,0,0,0,505.23,288.86Z" transform="translate(-482.2 -253.88)"/><path class="cls-1" d="M505.3,288.87c-3.92,20.38-4.83,37.27-2,37.72s8.25-15.71,12.16-36.09A205.11,205.11,0,0,0,519,264.17v3.29H511.8V263A208.39,208.39,0,0,0,505.3,288.87Z" transform="translate(-482.2 -253.88)"/><path class="cls-1" d="M505.37,288.88c-3.85,20.08-4.75,36.71-2,37.16s8.13-15.47,12-35.55a203,203,0,0,0,3.48-25.94v2.91h-7.05v-4A204.93,204.93,0,0,0,505.37,288.88Z" transform="translate(-482.2 -253.88)"/><path class="cls-1" d="M505.45,288.9c-3.8,19.77-4.69,36.15-2,36.58s8-15.23,11.81-35,4.68-36.16,2-36.6v13.58h-5.49v-3.65A204.47,204.47,0,0,0,505.45,288.9Z" transform="translate(-482.2 -253.88)"/><path class="cls-1" d="M505.53,288.9c-3.75,19.47-4.61,35.61-1.95,36s7.88-15,11.63-34.47,4.61-35.6,1.94-36S509.27,269.44,505.53,288.9Z" transform="translate(-482.2 -253.88)"/><path class="cls-1" d="M505.6,288.92c-3.68,19.16-4.54,35-1.9,35.46s7.75-14.77,11.43-33.92,4.54-35,1.91-35.47S509.29,269.75,505.6,288.92Z" transform="translate(-482.2 -253.88)"/><path class="cls-1" d="M505.68,288.93c-3.63,18.86-4.47,34.48-1.88,34.9s7.63-14.53,11.26-33.39,4.46-34.49,1.88-34.9S509.3,270.07,505.68,288.93Z" transform="translate(-482.2 -253.88)"/><path class="cls-1" d="M505.83,289c-3.51,18.25-4.33,33.38-1.82,33.78s7.39-14.06,10.89-32.31,4.33-33.38,1.83-33.78S509.34,270.7,505.83,289Z" transform="translate(-482.2 -253.88)"/><path class="cls-1" d="M505.91,289c-3.46,17.95-4.26,32.81-1.79,33.21s7.26-13.83,10.71-31.78,4.25-32.82,1.79-33.21S509.35,271,505.91,289Z" transform="translate(-482.2 -253.88)"/><path class="cls-1" d="M506,289c-3.39,17.65-4.18,32.27-1.76,32.66s7.14-13.6,10.53-31.24,4.19-32.26,1.76-32.65S509.37,271.34,506,289Z" transform="translate(-482.2 -253.88)"/><path class="cls-1" d="M506.06,289c-3.34,17.34-4.11,31.71-1.73,32.09s7-13.36,10.35-30.7,4.1-31.7,1.72-32.09S509.39,271.65,506.06,289Z" transform="translate(-482.2 -253.88)"/><path class="cls-1" d="M506.14,289c-3.28,17-4.05,31.15-1.71,31.52s6.9-13.13,10.17-30.16,4-31.15,1.7-31.53S509.41,272,506.14,289Z" transform="translate(-482.2 -253.88)"/><path class="cls-1" d="M506.21,289c-3.22,16.73-4,30.6-1.67,31s6.77-12.89,10-29.62,4-30.6,1.67-31S509.43,272.28,506.21,289Z" transform="translate(-482.2 -253.88)"/><path class="cls-1" d="M506.36,289c-3.11,16.12-3.83,29.48-1.61,29.84s6.53-12.42,9.63-28.55,3.81-29.48,1.6-29.84S509.46,272.92,506.36,289Z" transform="translate(-482.2 -253.88)"/><path class="cls-1" d="M506.43,289.05c-3,15.82-3.74,28.93-1.57,29.28s6.4-12.19,9.44-28,3.75-28.93,1.58-29.28S509.48,273.24,506.43,289.05Z" transform="translate(-482.2 -253.88)"/><path class="cls-1" d="M506.58,289.08c-2.92,15.21-3.6,27.81-1.51,28.14s6.16-11.72,9.08-26.93,3.6-27.81,1.52-28.15S509.52,273.86,506.58,289.08Z" transform="translate(-482.2 -253.88)"/><path class="cls-1" d="M506.66,289.09c-2.86,14.9-3.53,27.26-1.48,27.58s6-11.48,8.89-26.38,3.54-27.26,1.49-27.59S509.53,274.18,506.66,289.09Z" transform="translate(-482.2 -253.88)"/><path class="cls-1" d="M506.74,289.1c-2.81,14.6-3.46,26.7-1.46,27s5.9-11.24,8.72-25.85,3.45-26.7,1.45-27S509.55,274.5,506.74,289.1Z" transform="translate(-482.2 -253.88)"/><path class="cls-1" d="M506.81,289.11c-2.75,14.3-3.39,26.14-1.42,26.46s5.78-11,8.53-25.31,3.39-26.15,1.42-26.46S509.57,274.81,506.81,289.11Z" transform="translate(-482.2 -253.88)"/><path class="cls-1" d="M508,289.29c-1.87,9.74-2.31,17.8-1,18s3.94-7.5,5.82-17.23,2.3-17.81,1-18S509.82,279.56,508,289.29Z" transform="translate(-482.2 -253.88)"/><path class="cls-1" d="M508,289.31c-1.81,9.43-2.23,17.24-.94,17.45s3.82-7.27,5.63-16.7,2.24-17.24.94-17.45S509.84,279.88,508,289.31Z" transform="translate(-482.2 -253.88)"/><path class="cls-1" d="M508.1,289.32c-1.75,9.13-2.16,16.69-.91,16.89s3.69-7,5.44-16.16,2.17-16.69.92-16.89S509.85,280.19,508.1,289.32Z" transform="translate(-482.2 -253.88)"/><path class="cls-1" d="M508.18,289.33c-1.71,8.82-2.1,16.13-.88,16.33s3.56-6.8,5.26-15.62,2.09-16.13.88-16.33S509.87,280.51,508.18,289.33Z" transform="translate(-482.2 -253.88)"/><path class="cls-1" d="M508.33,289.35c-1.58,8.22-1.95,15-.82,15.21s3.32-6.33,4.9-14.55,1.94-15,.82-15.2S509.91,281.14,508.33,289.35Z" transform="translate(-482.2 -253.88)"/><path class="cls-1" d="M508.4,289.37c-1.52,7.9-1.88,14.46-.79,14.64s3.2-6.1,4.72-14,1.88-14.46.79-14.64S509.92,281.46,508.4,289.37Z" transform="translate(-482.2 -253.88)"/><path class="cls-1" d="M508.47,289.38c-1.45,7.61-1.79,13.91-.75,14.08s3.08-5.87,4.54-13.47,1.8-13.91.75-14.08S509.94,281.78,508.47,289.38Z" transform="translate(-482.2 -253.88)"/><path class="cls-1" d="M508.55,289.39c-1.41,7.3-1.73,13.35-.73,13.52s3-5.63,4.36-12.93,1.73-13.35.73-13.52S510,282.09,508.55,289.39Z" transform="translate(-482.2 -253.88)"/><path class="cls-1" d="M508.63,289.41c-1.35,7-1.66,12.79-.7,12.94s2.83-5.39,4.18-12.38,1.66-12.8.69-13S510,282.41,508.63,289.41Z" transform="translate(-482.2 -253.88)"/><path class="cls-1" d="M508.7,289.42c-1.29,6.69-1.58,12.24-.67,12.38s2.71-5.15,4-11.85,1.59-12.24.67-12.39S510,282.72,508.7,289.42Z" transform="translate(-482.2 -253.88)"/><path class="cls-1" d="M508.78,289.43c-1.23,6.39-1.52,11.68-.64,11.82s2.59-4.92,3.82-11.31,1.51-11.68.63-11.82S510,283,508.78,289.43Z" transform="translate(-482.2 -253.88)"/><path class="cls-1" d="M508.85,289.44c-1.16,6.08-1.44,11.12-.61,11.26s2.47-4.69,3.64-10.77,1.44-11.12.61-11.26S510,283.36,508.85,289.44Z" transform="translate(-482.2 -253.88)"/><path class="cls-1" d="M508.93,289.46c-1.11,5.77-1.37,10.56-.58,10.69s2.34-4.45,3.45-10.23,1.38-10.57.58-10.7S510,283.68,508.93,289.46Z" transform="translate(-482.2 -253.88)"/><path class="cls-1" d="M509,289.46c-1.05,5.48-1.3,10-.55,10.14s2.22-4.22,3.27-9.69,1.29-10,.55-10.13S510.06,284,509,289.46Z" transform="translate(-482.2 -253.88)"/><path class="cls-1" d="M509.08,289.48c-1,5.17-1.23,9.45-.51,9.57s2.09-4,3.08-9.16,1.23-9.46.52-9.57S510.07,284.3,509.08,289.48Z" transform="translate(-482.2 -253.88)"/><path class="cls-1" d="M509.16,289.49c-.94,4.87-1.15,8.9-.49,9s2-3.75,2.9-8.62,1.17-8.9.5-9S510.09,284.62,509.16,289.49Z" transform="translate(-482.2 -253.88)"/><path class="cls-1" d="M509.24,289.5c-.89,4.56-1.09,8.35-.46,8.45s1.85-3.51,2.72-8.08,1.08-8.34.46-8.45S510.11,284.94,509.24,289.5Z" transform="translate(-482.2 -253.88)"/><path class="cls-1" d="M509.31,289.52c-.82,4.26-1,7.78-.43,7.88s1.73-3.28,2.55-7.54,1-7.79.42-7.88S510.13,285.26,509.31,289.52Z" transform="translate(-482.2 -253.88)"/><path class="cls-1" d="M509.38,289.53c-.75,4-.93,7.23-.39,7.32s1.6-3.05,2.36-7,.94-7.23.39-7.32S510.14,285.57,509.38,289.53Z" transform="translate(-482.2 -253.88)"/><path class="cls-1" d="M509.69,289.58c-.53,2.73-.65,5-.28,5.06s1.11-2.11,1.64-4.84.64-5,.27-5.08S510.21,286.83,509.69,289.58Z" transform="translate(-482.2 -253.88)"/><path class="cls-1" d="M509.76,289.59c-.46,2.43-.57,4.45-.24,4.5s1-1.87,1.45-4.31.58-4.45.24-4.5S510.23,287.15,509.76,289.59Z" transform="translate(-482.2 -253.88)"/><path class="cls-1" d="M509.84,289.6c-.41,2.13-.51,3.9-.21,3.94s.86-1.64,1.27-3.77.5-3.89.21-3.94S510.24,287.47,509.84,289.6Z" transform="translate(-482.2 -253.88)"/><path class="cls-1" d="M509.91,289.61c-.34,1.83-.43,3.34-.17,3.38s.73-1.41,1.08-3.23.43-3.34.19-3.38S510.26,287.79,509.91,289.61Z" transform="translate(-482.2 -253.88)"/><path class="cls-1" d="M510,289.63c-.3,1.52-.36,2.77-.15,2.81s.62-1.17.9-2.69.37-2.78.16-2.82S510.28,288.11,510,289.63Z" transform="translate(-482.2 -253.88)"/><path class="cls-1" d="M510.07,289.63c-.24,1.22-.29,2.23-.13,2.26s.5-.94.73-2.16.29-2.22.12-2.24S510.3,288.42,510.07,289.63Z" transform="translate(-482.2 -253.88)"/><path class="cls-1" d="M510.14,289.65c-.18.91-.22,1.67-.09,1.69s.36-.71.54-1.62.22-1.67.09-1.68S510.31,288.73,510.14,289.65Z" transform="translate(-482.2 -253.88)"/><path class="cls-1" d="M510.22,289.66c-.12.61-.15,1.11-.06,1.13s.24-.47.36-1.08.14-1.12.06-1.12S510.33,289.05,510.22,289.66Z" transform="translate(-482.2 -253.88)"/><path class="cls-1" d="M510.27,289.67a2.33,2.33,0,0,0,0,.57,2,2,0,0,0,.09-.54,1.79,1.79,0,0,0,0-.56A1.88,1.88,0,0,0,510.27,289.67Z" transform="translate(-482.2 -253.88)"/></g><path class="cls-6" d="M511.34,322.26l-13.1,1.31s.3-5.86,1.16-12.92h13.28Z" transform="translate(-482.2 -253.88)"/><path class="cls-7" d="M628.25,322.26l13.1,1.31s-.3-5.86-1.16-12.92H626.91Z" transform="translate(-482.2 -253.88)"/><path class="cls-8" d="M507.72,323.57l15.09-51.35c1.34-4.55,6.59-8.23,11.73-8.23h70.51c5.14,0,10.39,3.68,11.73,8.23l15.09,51.35Z" transform="translate(-482.2 -253.88)"/><path class="cls-9" d="M507.72,322.58a.41.41,0,0,1-.16,0l-10.51-3a.49.49,0,0,1-.36-.62.55.55,0,0,1,.68-.32l10.51,3a.48.48,0,0,1,.35.62A.53.53,0,0,1,507.72,322.58Z" transform="translate(-482.2 -253.88)"/><path class="cls-9" d="M508.85,322.65a1.23,1.23,0,0,1-.59-.15l-8.91-5.2a.94.94,0,0,1-.33-1.37,1.13,1.13,0,0,1,1.49-.3l8.92,5.19a1,1,0,0,1,.33,1.37A1.11,1.11,0,0,1,508.85,322.65Z" transform="translate(-482.2 -253.88)"/><path class="cls-10" d="M500.31,315.41c0,1.28-1.14,4.64-2.54,4.64h-13c-1.4,0-2.54-3.36-2.54-4.64h18.11Z" transform="translate(-482.2 -253.88)"/><path class="cls-11" d="M483,318.27c.45,1,1.07,1.78,1.76,1.78h13c.69,0,1.31-.81,1.76-1.78Z" transform="translate(-482.2 -253.88)"/><path class="cls-9" d="M632.48,322.58a.53.53,0,0,1-.51-.35.48.48,0,0,1,.35-.62l10.51-3a.54.54,0,0,1,.68.32.49.49,0,0,1-.36.62l-10.51,3A.41.41,0,0,1,632.48,322.58Z" transform="translate(-482.2 -253.88)"/><path class="cls-9" d="M631.35,322.65a1.11,1.11,0,0,1-.91-.46,1,1,0,0,1,.33-1.37l8.92-5.19a1.12,1.12,0,0,1,1.49.3.94.94,0,0,1-.33,1.37l-8.91,5.2A1.26,1.26,0,0,1,631.35,322.65Z" transform="translate(-482.2 -253.88)"/><path class="cls-12" d="M639.89,315.41c0,1.28,1.14,4.64,2.54,4.64h13c1.4,0,2.54-3.36,2.54-4.64H639.89Z" transform="translate(-482.2 -253.88)"/><path class="cls-13" d="M657.22,318.27c-.45,1-1.07,1.78-1.76,1.78h-13c-.69,0-1.31-.81-1.76-1.78Z" transform="translate(-482.2 -253.88)"/><path class="cls-14" d="M516.22,320.91h-.05a.44.44,0,0,1-.42-.47C519,292.88,534,264.09,534.12,263.8a.47.47,0,0,1,.62-.19.4.4,0,0,1,.22.56c-.15.29-15.09,28.95-18.28,56.36A.45.45,0,0,1,516.22,320.91Z" transform="translate(-482.2 -253.88)"/><path class="cls-15" d="M623.37,320.91a.46.46,0,0,1-.46-.38c-3.19-27.41-18.13-56.07-18.28-56.36a.41.41,0,0,1,.22-.56.47.47,0,0,1,.62.19c.15.29,15.16,29.08,18.37,56.64a.44.44,0,0,1-.42.47Z" transform="translate(-482.2 -253.88)"/><path class="cls-16" d="M632.15,322.53c-20.68-1.23-43.27-3.22-62.35-3.22s-42.28,2.73-62.36,3.22c5.85-1.5,6.29-10.38,11.65-11.88,27.26-3.15,73.26-3.15,100.52,0C625,312.15,626.3,321,632.15,322.53Z" transform="translate(-482.2 -253.88)"/><path class="cls-17" d="M500.11,642.48a9.55,9.55,0,0,0,7.44,3.45H632a9.73,9.73,0,0,0,6.67-2.58c-8.53-4.1-36.79-7.1-70.37-7.1C537.17,636.25,510.58,638.84,500.11,642.48Z" transform="translate(-482.2 -253.88)"/><path class="cls-18" d="M641.35,323.57c0-3.29-32-4.26-71.55-4.26s-71.56,1-71.56,4.26V637.41a8,8,0,0,0,1.87,5.07c10.47-3.64,37.06-6.23,68.23-6.23,33.58,0,61.84,3,70.37,7.1a8.15,8.15,0,0,0,2.64-5.94Z" transform="translate(-482.2 -253.88)"/><path class="cls-19" d="M569.8,319.31c-39.52,0-71.56,1-71.56,4.26v2.35c0-3.3,32-4.26,71.56-4.26s71.55,1,71.55,4.26v-2.35C641.35,320.28,609.32,319.31,569.8,319.31Z" transform="translate(-482.2 -253.88)"/><path class="cls-20" d="M540.69,642.67c-.28-1.81-8.73-2-18.88-.52l-18.55,2.78a9.85,9.85,0,0,0,4.29,1H541.2S541,644.47,540.69,642.67Z" transform="translate(-482.2 -253.88)"/><path class="cls-21" d="M599,642.67c.28-1.81,8.73-2,18.88-.52l18.55,2.78a9.85,9.85,0,0,1-4.29,1H598.47S598.7,644.47,599,642.67Z" transform="translate(-482.2 -253.88)"/><g class="cls-22"><path class="cls-23" d="M638.4,643.88c-8.62-4.15-37.43-7-70.06-7-30,0-57.35,2.49-68,6.2l-.46-1.11c10.95-3.82,37.82-6.28,68.46-6.28,32.82,0,61.88,3,70.67,7.17Z" transform="translate(-482.2 -253.88)"/></g><rect class="cls-24" x="65.22" y="390.66" width="44.75" height="1.38"/><path class="cls-25" d="M564.87,319.32h-4.82v2.33h4.82Z" transform="translate(-482.2 -253.88)"/><path class="cls-25" d="M572.2,319.31h-4.81v2.35h4.81Z" transform="translate(-482.2 -253.88)"/><path class="cls-25" d="M574.73,319.32v2.34h4.81v-2.33Z" transform="translate(-482.2 -253.88)"/><path class="cls-26" d="M570.94,308.4q-16.59.36-33.11,2.25c-5.36,1.5-10.72,8.4-16.09,9.9,9.26-.25,18.84-.56,28.51-.81A93.8,93.8,0,0,1,570.94,308.4Z" transform="translate(-482.2 -253.88)"/><path class="cls-27" d="M608.46,263.18a.77.77,0,0,1-.74.81H531.87a.77.77,0,0,1-.73-.81h0a.78.78,0,0,1,.73-.81h75.85a.78.78,0,0,1,.74.81Z" transform="translate(-482.2 -253.88)"/><path class="cls-28" d="M508.85,635.93a.45.45,0,0,1-.47-.43V327a.47.47,0,0,1,.93,0V635.5A.45.45,0,0,1,508.85,635.93Z" transform="translate(-482.2 -253.88)"/><g class="cls-22"><path class="cls-28" d="M630.74,635.93a.45.45,0,0,1-.46-.43V327a.47.47,0,0,1,.93,0V635.5A.45.45,0,0,1,630.74,635.93Z" transform="translate(-482.2 -253.88)"/></g><path class="cls-9" d="M622.36,315.15a259.38,259.38,0,0,0-62.88-6.56c0-.49,0-1,0-1.5a262.81,262.81,0,0,1,63.87,6.69Z" transform="translate(-482.2 -253.88)"/><path class="cls-9" d="M582.61,308.69c0,.89-6.92,1.62-15.46,1.62s-15.46-.73-15.46-1.62,6.92-1.63,15.46-1.63S582.61,307.79,582.61,308.69Z" transform="translate(-482.2 -253.88)"/><text class="cls-29" transform="translate(73.26 162.35)">S<tspan x="0" y="73.39">E</tspan><tspan x="0" y="146.79">U</tspan></text></g></g></svg>