<svg xmlns="http://www.w3.org/2000/svg" xmlns:xlink="http://www.w3.org/1999/xlink" viewBox="0 0 254.06 567.75"><defs><style>.cls-1{fill:#145d31;}.cls-2{fill:#045d32;}.cls-3{isolation:isolate;}.cls-4{opacity:0.95;}.cls-21,.cls-24,.cls-5,.cls-8,.cls-9{mix-blend-mode:multiply;}.cls-5{fill:url(#linear-gradient);}.cls-6{clip-path:url(#clip-path);}.cls-7{clip-path:url(#clip-path-2);}.cls-8{fill:url(#linear-gradient-2);}.cls-9{fill:url(#linear-gradient-3);}.cls-10{fill:url(#未命名的渐变_402);}.cls-11{fill:#040000;}.cls-12{fill:url(#未命名的渐变_345);}.cls-13{fill:url(#linear-gradient-4);}.cls-14{fill:url(#未命名的渐变_379);}.cls-15{fill:url(#linear-gradient-5);}.cls-16{fill:url(#未命名的渐变_309);}.cls-17{fill:url(#未命名的渐变_272);}.cls-18{fill:url(#linear-gradient-6);}.cls-19{fill:url(#未命名的渐变_280);}.cls-20{fill:url(#未命名的渐变_272-2);}.cls-21{fill:url(#linear-gradient-7);}.cls-22{fill:url(#linear-gradient-8);}.cls-23{fill:url(#linear-gradient-9);}.cls-25{fill:#b4b3b3;}.cls-26{fill:url(#linear-gradient-10);}.cls-27{fill:url(#未命名的渐变_309-2);}.cls-28{fill:url(#未命名的渐变_309-3);}.cls-29{fill:url(#未命名的渐变_309-4);}.cls-30{mix-blend-mode:screen;fill:url(#linear-gradient-11);}.cls-31{fill:url(#linear-gradient-12);}.cls-32{fill:url(#未命名的渐变_280-2);}.cls-33{fill:url(#未命名的渐变_280-3);}.cls-34{opacity:0.91;font-size:90.59px;fill:#fefdf4;font-family:Broadway;}</style><linearGradient id="linear-gradient" x1="624.69" y1="128" x2="694.92" y2="126.92" gradientTransform="matrix(1, 0, 0, -1, 0, 594.1)" gradientUnits="userSpaceOnUse"><stop offset="0" stop-color="#242424"/><stop offset="1" stop-color="#fff"/></linearGradient><clipPath id="clip-path" transform="translate(-441.24 -166.05)"><path class="cls-1" d="M632.24,188.59s28.57,0,31.54,14c2.8,13.23,7.47,64.36,7.47,64.36l-18.94-1.72Z"/></clipPath><clipPath id="clip-path-2" transform="translate(-441.24 -166.05)"><path class="cls-2" d="M503.43,188.59s-28.58,0-31.55,14c-2.8,13.23-7.47,64.36-7.47,64.36l18.94-1.72Z"/></clipPath><linearGradient id="linear-gradient-2" x1="535.41" y1="265.38" x2="535.41" y2="253.11" gradientTransform="matrix(-1, 0, 0, 1, 1010.26, 0)" gradientUnits="userSpaceOnUse"><stop offset="0" stop-color="#ccc"/><stop offset="1" stop-color="#fff"/></linearGradient><linearGradient id="linear-gradient-3" x1="660.81" y1="265.38" x2="660.81" y2="253.11" gradientTransform="matrix(1, 0, 0, 1, 0, 0)" xlink:href="#linear-gradient-2"/><linearGradient id="未命名的渐变_402" x1="474.92" y1="223.83" x2="670.9" y2="223.83" gradientTransform="translate(43.27) scale(0.92 1)" gradientUnits="userSpaceOnUse"><stop offset="0" stop-color="#0c6735"/><stop offset="0.22" stop-color="#0d6a35"/><stop offset="0.39" stop-color="#0f7337"/><stop offset="0.45" stop-color="#107938"/><stop offset="0.6" stop-color="#117f38"/><stop offset="0.8" stop-color="#159139"/><stop offset="0.9" stop-color="#189c3a"/><stop offset="0.97" stop-color="#046933"/><stop offset="0.99" stop-color="#005d32"/></linearGradient><radialGradient id="未命名的渐变_345" cx="454.45" cy="16972.66" r="16.6" gradientTransform="translate(0 -4802.26) scale(1 0.3)" gradientUnits="userSpaceOnUse"><stop offset="0" stop-color="#1f8e3b"/><stop offset="0.77" stop-color="#1f7136"/><stop offset="1" stop-color="#1f6735"/></radialGradient><linearGradient id="linear-gradient-4" x1="442.36" y1="260.58" x2="466.28" y2="260.58" gradientUnits="userSpaceOnUse"><stop offset="0" stop-color="#363b39"/><stop offset="1" stop-color="#1b1c1c"/></linearGradient><radialGradient id="未命名的渐变_379" cx="316.9" cy="16972.66" r="16.6" gradientTransform="matrix(-1, 0, 0, 0.3, 998.99, -4802.26)" gradientUnits="userSpaceOnUse"><stop offset="0" stop-color="#1b8e3b"/><stop offset="0.53" stop-color="#1e7134"/><stop offset="1" stop-color="#22532c"/></radialGradient><linearGradient id="linear-gradient-5" x1="304.8" y1="260.58" x2="328.73" y2="260.58" gradientTransform="matrix(-1, 0, 0, 1, 998.99, 0)" xlink:href="#linear-gradient-4"/><linearGradient id="未命名的渐变_309" x1="489.72" y1="221.59" x2="517.55" y2="221.59" gradientUnits="userSpaceOnUse"><stop offset="0" stop-color="#156535"/><stop offset="0.35" stop-color="#043a28"/></linearGradient><linearGradient id="未命名的渐变_272" x1="618.11" y1="221.59" x2="645.94" y2="221.59" gradientUnits="userSpaceOnUse"><stop offset="0" stop-color="#106936"/><stop offset="0.11" stop-color="#0f6d38"/><stop offset="0.19" stop-color="#106937"/><stop offset="0.47" stop-color="#106736"/><stop offset="0.7" stop-color="#116936"/><stop offset="0.8" stop-color="#157038"/><stop offset="0.88" stop-color="#1d7d3a"/><stop offset="0.91" stop-color="#21843b"/><stop offset="0.92" stop-color="#22863b"/><stop offset="1" stop-color="#268c3a"/></linearGradient><linearGradient id="linear-gradient-6" x1="567.83" y1="260.33" x2="567.83" y2="232.43" xlink:href="#linear-gradient-4"/><linearGradient id="未命名的渐变_280" x1="567.27" y1="720.55" x2="567.27" y2="752.14" gradientUnits="userSpaceOnUse"><stop offset="0" stop-color="#156535"/><stop offset="1" stop-color="#1c1e1e"/></linearGradient><linearGradient id="未命名的渐变_272-2" x1="464.41" y1="495.4" x2="671.25" y2="495.4" xlink:href="#未命名的渐变_272"/><linearGradient id="linear-gradient-7" x1="567.83" y1="260.64" x2="567.83" y2="264.34" gradientUnits="userSpaceOnUse"><stop offset="0" stop-color="#c3702c"/><stop offset="0.27" stop-color="#d7a073"/><stop offset="0.52" stop-color="#e8c9af"/><stop offset="0.73" stop-color="#f5e6da"/><stop offset="0.9" stop-color="#fcf8f5"/><stop offset="1" stop-color="#fff"/></linearGradient><linearGradient id="linear-gradient-8" x1="471.67" y1="730.28" x2="526.5" y2="730.28" xlink:href="#linear-gradient-4"/><linearGradient id="linear-gradient-9" x1="354.21" y1="730.28" x2="409.04" y2="730.28" gradientTransform="matrix(-1, 0, 0, 1, 1018.31, 0)" xlink:href="#linear-gradient-4"/><linearGradient id="linear-gradient-10" x1="126.59" y1="565.8" x2="126.59" y2="570.32" xlink:href="#linear-gradient-4"/><linearGradient id="未命名的渐变_309-2" x1="553.75" y1="262.5" x2="560.7" y2="262.5" xlink:href="#未命名的渐变_309"/><linearGradient id="未命名的渐变_309-3" x1="564.35" y1="262.49" x2="571.31" y2="262.49" xlink:href="#未命名的渐变_309"/><linearGradient id="未命名的渐变_309-4" x1="574.95" y1="262.5" x2="581.91" y2="262.5" xlink:href="#未命名的渐变_309"/><linearGradient id="linear-gradient-11" x1="552.81" y1="285.49" x2="531.73" y2="250.09" gradientUnits="userSpaceOnUse"><stop offset="0" stop-color="#3a3b3b"/><stop offset="1" stop-color="#040000"/></linearGradient><linearGradient id="linear-gradient-12" x1="567.83" y1="180.11" x2="567.83" y2="176.94" xlink:href="#linear-gradient-4"/><linearGradient id="未命名的渐变_280-2" x1="479.74" y1="271.28" x2="479.74" y2="719.26" xlink:href="#未命名的渐变_280"/><linearGradient id="未命名的渐变_280-3" x1="655.92" y1="271.28" x2="655.92" y2="719.26" xlink:href="#未命名的渐变_280"/></defs><g class="cls-3"><g id="图层_1" data-name="图层 1"><g class="cls-4"><path class="cls-5" d="M654.92,198.79H618.65c-20.18,0-36.54,10-36.54,28.5v473c0,18.51,16.36,33.52,36.54,33.52l9.66-1.11c20.19,0,63.16,1.11,63.16-32.41v-473C691.47,208.77,691.47,198.79,654.92,198.79Z" transform="translate(-441.24 -166.05)"/><path class="cls-1" d="M632.24,188.59s28.57,0,31.54,14c2.8,13.23,7.47,64.36,7.47,64.36l-18.94-1.72Z" transform="translate(-441.24 -166.05)"/><g class="cls-6"><rect class="cls-1" x="190.99" y="22.53" width="39.01" height="78.37"/><path class="cls-1" d="M667.2,223.72c4.56,23.74,6.3,45.62,5.43,61.8V269.83H637.46v8.26c-1.64-4.45-3.24-9.23-4.76-14.29a331.77,331.77,0,0,1-8.11-33.2h4.51V185.71h25.23v-9.47c1.64,4.45,3.25,9.23,4.77,14.29A328.91,328.91,0,0,1,667.2,223.72Z" transform="translate(-441.24 -166.05)"/><path class="cls-1" d="M667,223.76c4.5,23.46,6.23,45.09,5.37,61.08v-15H642.54v19.82c-6.76-14.76-13.19-35.62-17.69-59.08h4.25V185.71h25.14v-8.87c1.62,4.4,3.19,9.12,4.71,14.11A334.47,334.47,0,0,1,667,223.76Z" transform="translate(-441.24 -166.05)"/><path class="cls-1" d="M666.7,223.81c4.45,23.18,6.15,44.54,5.3,60.34V269.83H642.59v19.08c-6.68-14.6-13-35.2-17.5-58.39h4V185.71h25v-8.27q2.4,6.52,4.65,13.95A326.52,326.52,0,0,1,666.7,223.81Z" transform="translate(-441.24 -166.05)"/><path class="cls-1" d="M666.44,223.84c4.4,22.9,6.09,44,5.25,59.63V269.83H642.63v18.33c-6.6-14.41-12.88-34.77-17.28-57.68h3.75V185.71h20.07V166.17C655.77,180.58,662.05,200.94,666.44,223.84Z" transform="translate(-441.24 -166.05)"/><path class="cls-1" d="M666.2,223.89c4.33,22.62,6,43.47,5.17,58.88V269.83H642.66v17.59c-6.51-14.24-12.72-34.36-17.07-57h3.51V185.71h20v-18.8C655.64,181.15,661.85,201.25,666.2,223.89Z" transform="translate(-441.24 -166.05)"/><path class="cls-1" d="M665.94,223.92c4.3,22.35,5.94,43,5.12,58.18V269.83H642.7v16.84c-6.43-14.05-12.56-33.92-16.85-56.27h3.25V185.71h20V167.65C655.52,181.71,661.66,201.58,665.94,223.92Z" transform="translate(-441.24 -166.05)"/><path class="cls-1" d="M665.7,224c4.23,22.07,5.85,42.4,5,57.44V269.83h-28v16.1c-6.37-13.88-12.42-33.51-16.65-55.56h3V185.71H649V168.4C655.41,182.28,661.46,201.91,665.7,224Z" transform="translate(-441.24 -166.05)"/><path class="cls-1" d="M665.44,224c4.19,21.79,5.79,41.86,5,56.71V269.83H642.79v15.36c-6.28-13.72-12.26-33.08-16.44-54.87h2.75V185.71H649V169.14C655.29,182.84,661.26,202.22,665.44,224Z" transform="translate(-441.24 -166.05)"/><path class="cls-1" d="M665.2,224c4.12,21.51,5.7,41.33,4.92,56v-10.2h-27.3v14.6c-6.19-13.52-12.09-32.65-16.22-54.15h2.5V185.71H649V169.88C655.17,183.42,661.07,202.53,665.2,224Z" transform="translate(-441.24 -166.05)"/><path class="cls-1" d="M665,224.09c4.07,21.23,5.63,40.79,4.85,55.26v-9.52H642.86v13.86c-6.11-13.35-11.94-32.22-16-53.45h2.26V185.71h19.83V170.64C655,184,660.87,202.86,665,224.09Z" transform="translate(-441.24 -166.05)"/><path class="cls-1" d="M664.69,224.12c4,21,5.56,40.26,4.79,54.54v-8.83H642.91V283c-6-13.17-11.78-31.81-15.81-52.75h2V185.71h19.79V171.38C654.92,184.55,660.66,203.17,664.69,224.12Z" transform="translate(-441.24 -166.05)"/><path class="cls-1" d="M664.44,224.17c4,20.66,5.48,39.71,4.74,53.81v-8.15H643v12.38c-6-13-11.62-31.38-15.59-52h1.74V185.71h19.75V172.12C654.81,185.12,660.47,203.5,664.44,224.17Z" transform="translate(-441.24 -166.05)"/><path class="cls-1" d="M664.19,224.21c3.92,20.39,5.41,39.18,4.67,53.08v-7.46H643v11.64c-5.87-12.83-11.46-31-15.38-51.35h1.5V185.71h19.71V172.86C654.69,185.69,660.27,203.81,664.19,224.21Z" transform="translate(-441.24 -166.05)"/><path class="cls-1" d="M664,224.24c3.85,20.12,5.34,38.65,4.6,52.36v-6.77H643v10.9c-5.8-12.66-11.31-30.54-15.18-50.66h1.25V185.71h19.66V173.6C654.57,186.26,660.08,204.14,664,224.24Z" transform="translate(-441.24 -166.05)"/><path class="cls-1" d="M663.69,224.29c3.81,19.83,5.26,38.11,4.54,51.62v-6.08H643.07V280c-5.72-12.48-11.16-30.12-15-49.94h1V185.71h19.63V174.34C654.44,186.82,659.88,204.45,663.69,224.29Z" transform="translate(-441.24 -166.05)"/><path class="cls-1" d="M663.44,224.33c3.75,19.56,5.18,37.57,4.47,50.89v-5.39h-24.8v9.4c-5.64-12.29-11-29.68-14.76-49.23h.75V185.71h19.59V175.1C654.32,187.39,659.69,204.78,663.44,224.33Z" transform="translate(-441.24 -166.05)"/><path class="cls-1" d="M663.19,224.37c3.7,19.27,5.12,37,4.41,50.17v-4.71H643.14v8.66c-5.55-12.13-10.83-29.26-14.53-48.53h.49V185.71h19.55v-9.87C654.2,188,659.49,205.09,663.19,224.37Z" transform="translate(-441.24 -166.05)"/><path class="cls-1" d="M662.94,224.41c3.65,19,5,36.49,4.35,49.44v-4H643.18v7.91c-5.47-11.95-10.68-28.83-14.33-47.82h.25V185.71h19.52v-9.13C654.09,188.53,659.29,205.42,662.94,224.41Z" transform="translate(-441.24 -166.05)"/><path class="cls-1" d="M662.69,224.45c3.6,18.72,5,36,4.28,48.72v-3.34H643.23V277c-5.4-11.77-10.53-28.42-14.12-47.13s-5-36-4.29-48.71l4.28,4.55h19.47v-8.38C654,189.1,659.1,205.74,662.69,224.45Z" transform="translate(-441.24 -166.05)"/><path class="cls-1" d="M662.44,224.49c3.54,18.43,4.89,35.43,4.21,48v-2.65H643.26v6.43c-5.31-11.6-10.37-28-13.91-46.42s-4.88-35.43-4.21-48l4,3.86h19.43v-7.64C653.84,189.66,658.9,206.06,662.44,224.49Z" transform="translate(-441.24 -166.05)"/><path class="cls-1" d="M662.18,224.54c3.49,18.15,4.83,34.88,4.17,47.25v-2H643.3v5.69c-5.23-11.43-10.21-27.57-13.69-45.73s-4.82-34.88-4.16-47.26l3.65,3.18h19.39v-6.9C653.72,190.24,658.71,206.38,662.18,224.54Z" transform="translate(-441.24 -166.05)"/><path class="cls-1" d="M661.94,224.57c3.43,17.88,4.74,34.35,4.09,46.53v-1.27H643.35v4.95c-5.16-11.26-10.07-27.15-13.49-45s-4.74-34.36-4.09-46.54l3.33,2.49h19.34v-6.16C653.6,190.81,658.51,206.7,661.94,224.57Z" transform="translate(-441.24 -166.05)"/><path class="cls-1" d="M661.68,224.62c3.38,17.58,4.68,33.8,4,45.8v-.59H643.39V274c-5.07-11.06-9.91-26.71-13.28-44.31s-4.67-33.81-4-45.8l3,1.8h19.31V180.3C653.48,191.37,658.31,207,661.68,224.62Z" transform="translate(-441.24 -166.05)"/><path class="cls-1" d="M661.44,224.65c6.65,34.64,5.08,63.84-3.51,65.22v-20H643.42v3.45c-5-10.89-9.74-26.29-13.06-43.61s-4.59-33.27-4-45.07l2.7,1.11h19.27v-4.66C653.37,191.94,658.12,207.34,661.44,224.65Z" transform="translate(-441.24 -166.05)"/><path class="cls-1" d="M661.18,224.69c6.55,34.08,5,62.81-3.44,64.17v-19H643.46v2.71c-4.91-10.73-9.58-25.87-12.84-42.9s-4.54-32.74-3.91-44.36l2.39.43h19.23v-3.92C653.24,192.5,657.91,207.66,661.18,224.69Z" transform="translate(-441.24 -166.05)"/><path class="cls-1" d="M660.93,224.74c6.45,33.51,4.93,61.77-3.38,63.11s-20.25-24.74-26.69-58.26-4.92-61.77,3.38-63.12v19.24H648.3v-3.18C653.12,193.08,657.71,208,660.93,224.74Z" transform="translate(-441.24 -166.05)"/><path class="cls-1" d="M660.69,224.77c6.32,33,4.84,60.75-3.33,62.07s-19.92-24.33-26.25-57.28-4.84-60.75,3.33-62.07S654.36,191.82,660.69,224.77Z" transform="translate(-441.24 -166.05)"/><path class="cls-1" d="M660.43,224.82c6.22,32.4,4.75,59.72-3.27,61s-19.58-23.91-25.8-56.32-4.75-59.72,3.27-61S654.21,192.41,660.43,224.82Z" transform="translate(-441.24 -166.05)"/><path class="cls-1" d="M660.19,224.85c6.11,31.84,4.66,58.7-3.22,60s-19.24-23.51-25.36-55.35-4.67-58.69,3.22-60S654.06,193,660.19,224.85Z" transform="translate(-441.24 -166.05)"/><path class="cls-1" d="M659.93,224.9c6,31.28,4.59,57.66-3.16,58.91s-18.91-23.1-24.91-54.38-4.59-57.66,3.16-58.91S653.93,193.62,659.93,224.9Z" transform="translate(-441.24 -166.05)"/><path class="cls-1" d="M659.69,224.94c5.89,30.72,4.5,56.63-3.12,57.86S638,260.12,632.11,229.39s-4.51-56.63,3.11-57.86S653.78,194.21,659.69,224.94Z" transform="translate(-441.24 -166.05)"/><path class="cls-1" d="M659.43,225c5.79,30.17,4.43,55.6-3,56.81s-18.22-22.27-24-52.43-4.44-55.6,3-56.8S653.64,194.81,659.43,225Z" transform="translate(-441.24 -166.05)"/><path class="cls-1" d="M659.18,225c5.69,29.61,4.35,54.56-3,55.75s-17.87-21.85-23.57-51.46-4.35-54.57,3-55.75S653.49,195.41,659.18,225Z" transform="translate(-441.24 -166.05)"/><path class="cls-1" d="M658.93,225.06c5.58,29.05,4.26,53.53-2.93,54.7s-17.56-21.44-23.13-50.49-4.26-53.55,2.92-54.7S653.35,196,658.93,225.06Z" transform="translate(-441.24 -166.05)"/><path class="cls-1" d="M658.68,225.1c5.46,28.49,4.18,52.51-2.88,53.65s-17.21-21-22.69-49.52-4.17-52.51,2.88-53.65S653.21,196.6,658.68,225.1Z" transform="translate(-441.24 -166.05)"/><path class="cls-1" d="M658.42,225.14c5.37,27.94,4.11,51.48-2.81,52.6s-16.88-20.62-22.24-48.55-4.1-51.48,2.82-52.6S653.06,197.21,658.42,225.14Z" transform="translate(-441.24 -166.05)"/><path class="cls-1" d="M658.18,225.18c5.25,27.37,4,50.45-2.77,51.55s-16.54-20.21-21.79-47.58-4-50.45,2.76-51.55S652.93,197.81,658.18,225.18Z" transform="translate(-441.24 -166.05)"/><path class="cls-1" d="M657.92,225.22c5.16,26.81,3.94,49.42-2.7,50.5s-16.2-19.8-21.35-46.61-3.94-49.42,2.71-50.5S652.78,198.4,657.92,225.22Z" transform="translate(-441.24 -166.05)"/><path class="cls-1" d="M657.68,225.27c5,26.25,3.85,48.38-2.66,49.44s-15.86-19.39-20.9-45.65-3.86-48.38,2.65-49.44S652.63,199,657.68,225.27Z" transform="translate(-441.24 -166.05)"/><path class="cls-1" d="M657.43,225.3c4.92,25.7,3.77,47.36-2.59,48.4s-15.54-19-20.48-44.67-3.77-47.36,2.6-48.4S652.5,199.6,657.43,225.3Z" transform="translate(-441.24 -166.05)"/><path class="cls-1" d="M657.17,225.35c4.83,25.13,3.69,46.33-2.53,47.34s-15.2-18.57-20-43.71-3.69-46.33,2.53-47.34S652.35,200.2,657.17,225.35Z" transform="translate(-441.24 -166.05)"/><path class="cls-1" d="M656.92,225.38c4.72,24.59,3.61,45.31-2.48,46.28S639.59,253.53,634.88,229s-3.62-45.31,2.47-46.3S652.2,200.8,656.92,225.38Z" transform="translate(-441.24 -166.05)"/><path class="cls-1" d="M656.67,225.42c4.62,24,3.53,44.28-2.42,45.23s-14.52-17.72-19.13-41.74-3.53-44.28,2.43-45.25S652.07,201.4,656.67,225.42Z" transform="translate(-441.24 -166.05)"/><path class="cls-1" d="M656.43,225.47c4.5,23.45,3.44,43.24-2.38,44.17s-14.18-17.32-18.68-40.78-3.44-43.24,2.37-44.18S651.92,202,656.43,225.47Z" transform="translate(-441.24 -166.05)"/><path class="cls-1" d="M656.17,225.5c4.4,22.9,3.37,42.22-2.31,43.13s-13.84-16.9-18.24-39.8-3.36-42.22,2.32-43.14S651.77,202.6,656.17,225.5Z" transform="translate(-441.24 -166.05)"/><path class="cls-1" d="M655.93,225.55c4.28,22.34,3.27,41.18-2.27,42.07s-13.49-16.5-17.79-38.84-3.27-41.18,2.26-42.07S651.63,203.2,655.93,225.55Z" transform="translate(-441.24 -166.05)"/><path class="cls-1" d="M655.67,225.58c4.19,21.79,3.19,40.17-2.21,41s-13.16-16.08-17.33-37.86-3.2-40.17,2.2-41S651.49,203.79,655.67,225.58Z" transform="translate(-441.24 -166.05)"/><path class="cls-1" d="M655.42,225.63c4.08,21.22,3.11,39.12-2.14,40s-12.83-15.67-16.91-36.9-3.11-39.13,2.14-40S651.35,204.4,655.42,225.63Z" transform="translate(-441.24 -166.05)"/><path class="cls-1" d="M655.17,225.67c4,20.67,3,38.09-2.09,38.92s-12.48-15.27-16.45-35.93-3-38.1,2.08-38.92S651.2,205,655.17,225.67Z" transform="translate(-441.24 -166.05)"/><path class="cls-1" d="M654.92,225.7c3.86,20.12,3,37.07-2,37.88s-12.16-14.85-16-35-3-37.07,2-37.87S651.06,205.6,654.92,225.7Z" transform="translate(-441.24 -166.05)"/><path class="cls-1" d="M654.66,225.75c3.76,19.55,2.88,36-2,36.82s-11.81-14.44-15.56-34-2.88-36,2-36.82S650.92,206.2,654.66,225.75Z" transform="translate(-441.24 -166.05)"/><path class="cls-1" d="M654.42,225.78c3.65,19,2.79,35-1.92,35.78s-11.48-14-15.13-33-2.79-35,1.93-35.77S650.77,206.79,654.42,225.78Z" transform="translate(-441.24 -166.05)"/><path class="cls-1" d="M654.16,225.83c3.54,18.43,2.71,34-1.86,34.72s-11.13-13.62-14.67-32.05-2.7-34,1.86-34.72S650.62,207.4,654.16,225.83Z" transform="translate(-441.24 -166.05)"/><path class="cls-1" d="M653.92,225.87c3.43,17.87,2.62,32.95-1.8,33.66s-10.81-13.19-14.24-31.07-2.62-33,1.8-33.66S650.49,208,653.92,225.87Z" transform="translate(-441.24 -166.05)"/><path class="cls-1" d="M653.66,225.91c3.33,17.32,2.55,31.92-1.74,32.61s-10.47-12.79-13.79-30.1-2.54-31.92,1.74-32.61S650.34,208.59,653.66,225.91Z" transform="translate(-441.24 -166.05)"/><path class="cls-1" d="M653.42,226c3.22,16.76,2.46,30.89-1.69,31.56s-10.13-12.37-13.35-29.13-2.46-30.89,1.69-31.56S650.2,209.19,653.42,226Z" transform="translate(-441.24 -166.05)"/><path class="cls-1" d="M653.17,226c3.11,16.2,2.38,29.86-1.64,30.5s-9.8-12-12.91-28.16-2.37-29.85,1.64-30.5S650.06,209.79,653.17,226Z" transform="translate(-441.24 -166.05)"/><path class="cls-1" d="M652.91,226c3,15.65,2.29,28.83-1.58,29.45s-9.45-11.55-12.45-27.18-2.29-28.83,1.58-29.46S649.91,210.38,652.91,226Z" transform="translate(-441.24 -166.05)"/><path class="cls-1" d="M652.67,226.08c2.89,15.07,2.2,27.79-1.53,28.39s-9.11-11.13-12-26.22-2.21-27.79,1.53-28.4S649.77,211,652.67,226.08Z" transform="translate(-441.24 -166.05)"/><path class="cls-1" d="M652.41,226.11c2.79,14.52,2.13,26.78-1.47,27.35s-8.77-10.72-11.56-25.24-2.13-26.78,1.47-27.36S649.62,211.59,652.41,226.11Z" transform="translate(-441.24 -166.05)"/><path class="cls-1" d="M652.17,226.15c2.68,14,2,25.74-1.42,26.3s-8.44-10.31-11.12-24.27-2-25.75,1.42-26.31S649.49,212.18,652.17,226.15Z" transform="translate(-441.24 -166.05)"/><path class="cls-1" d="M651.91,226.19c2.57,13.41,2,24.71-1.35,25.25s-8.1-9.9-10.68-23.31-2-24.71,1.35-25.24S649.34,212.79,651.91,226.19Z" transform="translate(-441.24 -166.05)"/><path class="cls-1" d="M651.66,226.23c2.47,12.85,1.89,23.68-1.29,24.2S642.6,241,640.13,228.1s-1.89-23.69,1.3-24.2S649.19,213.38,651.66,226.23Z" transform="translate(-441.24 -166.05)"/><path class="cls-1" d="M651.41,226.28c2.36,12.29,1.81,22.64-1.24,23.13s-7.43-9.07-9.78-21.36-1.82-22.65,1.23-23.14S649.06,214,651.41,226.28Z" transform="translate(-441.24 -166.05)"/><path class="cls-1" d="M651.16,226.31c2.26,11.74,1.72,21.62-1.18,22.09s-7.1-8.66-9.35-20.38-1.71-21.62,1.19-22.09S648.91,214.59,651.16,226.31Z" transform="translate(-441.24 -166.05)"/><path class="cls-1" d="M650.91,226.36c2.14,11.17,1.64,20.58-1.13,21S643,239.15,640.89,228s-1.64-20.58,1.13-21S648.76,215.18,650.91,226.36Z" transform="translate(-441.24 -166.05)"/><path class="cls-1" d="M650.66,226.39c2,10.61,1.56,19.57-1.08,20s-6.4-7.84-8.45-18.45-1.55-19.56,1.08-20S648.62,215.78,650.66,226.39Z" transform="translate(-441.24 -166.05)"/><path class="cls-1" d="M650.4,226.43c1.94,10.06,1.49,18.54-1,18.94s-6.09-7.42-8-17.48-1.48-18.53,1-18.93S648.48,216.38,650.4,226.43Z" transform="translate(-441.24 -166.05)"/><path class="cls-1" d="M650.16,226.48c1.82,9.49,1.39,17.5-1,17.88s-5.74-7-7.56-16.51-1.4-17.5,1-17.88S648.33,217,650.16,226.48Z" transform="translate(-441.24 -166.05)"/><path class="cls-1" d="M649.91,226.51c1.72,8.94,1.31,16.48-.9,16.84s-5.4-6.6-7.13-15.54-1.31-16.47.91-16.83S648.19,217.57,649.91,226.51Z" transform="translate(-441.24 -166.05)"/><path class="cls-1" d="M649.66,226.56c1.6,8.38,1.23,15.44-.85,15.78s-5.07-6.19-6.67-14.57S640.9,212.33,643,212,648.05,218.18,649.66,226.56Z" transform="translate(-441.24 -166.05)"/><path class="cls-1" d="M649.4,226.59c1.51,7.83,1.15,14.42-.78,14.74s-4.73-5.78-6.22-13.6-1.16-14.41.78-14.73S647.91,218.77,649.4,226.59Z" transform="translate(-441.24 -166.05)"/><path class="cls-1" d="M649.15,226.64c1.4,7.26,1.07,13.39-.73,13.68S644,235,642.64,227.69s-1.07-13.39.73-13.68S647.76,219.37,649.15,226.64Z" transform="translate(-441.24 -166.05)"/><path class="cls-1" d="M648.91,226.68c1.29,6.7,1,12.36-.69,12.63s-4-5-5.34-11.66-1-12.36.69-12.63S647.61,220,648.91,226.68Z" transform="translate(-441.24 -166.05)"/><path class="cls-1" d="M648.65,226.72c1.19,6.14.91,11.33-.62,11.58s-3.71-4.54-4.89-10.7-.9-11.32.63-11.57S647.48,220.57,648.65,226.72Z" transform="translate(-441.24 -166.05)"/><path class="cls-1" d="M648.41,226.76c1.06,5.58.82,10.3-.57,10.52s-3.38-4.13-4.45-9.71-.82-10.3.56-10.52S647.33,221.18,648.41,226.76Z" transform="translate(-441.24 -166.05)"/><path class="cls-1" d="M648.15,226.79c1,5,.74,9.28-.5,9.47s-3-3.7-4-8.74-.73-9.26.51-9.46S647.18,221.77,648.15,226.79Z" transform="translate(-441.24 -166.05)"/><path class="cls-1" d="M647.91,226.84c.85,4.47.64,8.23-.46,8.41s-2.7-3.29-3.56-7.76-.65-8.24.45-8.42S647.05,222.37,647.91,226.84Z" transform="translate(-441.24 -166.05)"/><path class="cls-1" d="M647.65,226.88c.76,3.91.57,7.2-.39,7.36s-2.37-2.89-3.11-6.79-.58-7.21.39-7.37S646.9,223,647.65,226.88Z" transform="translate(-441.24 -166.05)"/><path class="cls-1" d="M647.4,226.92c.64,3.36.49,6.18-.34,6.31s-2-2.47-2.67-5.83-.49-6.18.34-6.31S646.75,223.57,647.4,226.92Z" transform="translate(-441.24 -166.05)"/><path class="cls-1" d="M647.15,227c.54,2.8.41,5.15-.29,5.26s-1.67-2.06-2.21-4.85-.42-5.16.28-5.26S646.61,224.17,647.15,227Z" transform="translate(-441.24 -166.05)"/><path class="cls-1" d="M646.9,227c.43,2.23.33,4.12-.23,4.21s-1.35-1.65-1.78-3.89-.33-4.11.24-4.2S646.47,224.77,646.9,227Z" transform="translate(-441.24 -166.05)"/><path class="cls-1" d="M646.64,227c.33,1.67.26,3.09-.15,3.16s-1-1.24-1.34-2.91-.26-3.09.16-3.16S646.33,225.37,646.64,227Z" transform="translate(-441.24 -166.05)"/><path class="cls-1" d="M646.4,227.09c.21,1.11.16,2-.11,2.1s-.67-.82-.89-1.95-.16-2.05.11-2.1S646.18,226,646.4,227.09Z" transform="translate(-441.24 -166.05)"/><path class="cls-1" d="M646.14,227.12c.11.56.09,1,0,1.06s-.34-.42-.44-1-.08-1,.05-1S646,226.57,646.14,227.12Z" transform="translate(-441.24 -166.05)"/></g><path class="cls-2" d="M503.43,188.59s-28.58,0-31.55,14c-2.8,13.23-7.47,64.36-7.47,64.36l18.94-1.72Z" transform="translate(-441.24 -166.05)"/><g class="cls-7"><rect class="cls-2" x="23.17" y="22.53" width="39.01" height="78.37"/><path class="cls-2" d="M472.65,216.39c-7.18,37.45-8.85,68.47-3.72,69.3s15.11-28.85,22.3-66.3c3.6-18.72,5.82-35.84,6.48-48.37v14.69H484.58V168.9C480.54,180.89,476.24,197.67,472.65,216.39Z" transform="translate(-441.24 -166.05)"/><path class="cls-2" d="M472.76,216.42c-7.1,37-8.75,67.66-3.68,68.46s14.94-28.5,22-65.5c3.55-18.51,5.74-35.42,6.42-47.81v14.14h-13V169.47C480.55,181.33,476.31,197.91,472.76,216.42Z" transform="translate(-441.24 -166.05)"/><path class="cls-2" d="M472.87,216.43c-7,36.56-8.64,66.85-3.63,67.67S484,255.92,491,219.36c3.51-18.29,5.67-35,6.33-47.24v13.59H484.51V170.05A377,377,0,0,0,472.87,216.43Z" transform="translate(-441.24 -166.05)"/><path class="cls-2" d="M473,216.45c-6.94,36.12-8.54,66-3.6,66.84s14.59-27.83,21.52-64c3.48-18.06,5.61-34.57,6.26-46.67v13H484.48V170.62A371.78,371.78,0,0,0,473,216.45Z" transform="translate(-441.24 -166.05)"/><path class="cls-2" d="M473.09,216.46c-6.85,35.68-8.45,65.25-3.55,66s14.4-27.49,21.26-63.17c3.42-17.85,5.53-34.16,6.17-46.11v12.49H484.46V171.2C480.6,182.63,476.51,198.63,473.09,216.46Z" transform="translate(-441.24 -166.05)"/><path class="cls-2" d="M473.19,216.48c-6.76,35.24-8.32,64.44-3.5,65.21s14.23-27.14,21-62.39a357.1,357.1,0,0,0,6.11-45.52v11.93H484.42V171.78A361.83,361.83,0,0,0,473.19,216.48Z" transform="translate(-441.24 -166.05)"/><path class="cls-2" d="M473.3,216.51c-6.67,34.79-8.23,63.62-3.45,64.39s14-26.81,20.73-61.61a355.3,355.3,0,0,0,6-45v11.38H484.38V172.35A358.82,358.82,0,0,0,473.3,216.51Z" transform="translate(-441.24 -166.05)"/><path class="cls-2" d="M473.41,216.52c-6.59,34.35-8.12,62.83-3.41,63.58s13.87-26.47,20.47-60.83c3.29-17.17,5.33-32.89,5.94-44.39v10.83H484.36V172.93A354.31,354.31,0,0,0,473.41,216.52Z" transform="translate(-441.24 -166.05)"/><path class="cls-2" d="M473.52,216.54c-6.5,33.91-8,62-3.36,62.76s13.69-26.13,20.2-60a341,341,0,0,0,5.86-43.83v10.28h-11.9v-12.2A349.06,349.06,0,0,0,473.52,216.54Z" transform="translate(-441.24 -166.05)"/><path class="cls-2" d="M473.63,216.55c-6.43,33.48-7.91,61.21-3.33,61.95s13.52-25.78,19.95-59.26A339.54,339.54,0,0,0,496,176v9.73H484.3V174.08A342.55,342.55,0,0,0,473.63,216.55Z" transform="translate(-441.24 -166.05)"/><path class="cls-2" d="M473.74,216.57c-6.34,33-7.81,60.41-3.28,61.14s13.34-25.45,19.68-58.49a336.08,336.08,0,0,0,5.72-42.69v9.18h-11.6V174.66A340.45,340.45,0,0,0,473.74,216.57Z" transform="translate(-441.24 -166.05)"/><path class="cls-2" d="M473.85,216.58c-6.25,32.6-7.71,59.61-3.24,60.33S483.77,251.8,490,219.2a330.78,330.78,0,0,0,5.64-42.12v8.63H484.24V175.24A335.06,335.06,0,0,0,473.85,216.58Z" transform="translate(-441.24 -166.05)"/><path class="cls-2" d="M474,216.61c-6.17,32.15-7.6,58.79-3.19,59.5s13-24.77,19.15-56.93a327.33,327.33,0,0,0,5.57-41.55v8.08H484.2v-9.9A329.32,329.32,0,0,0,474,216.61Z" transform="translate(-441.24 -166.05)"/><path class="cls-2" d="M474.07,216.62c-6.08,31.72-7.5,58-3.16,58.69s12.81-24.44,18.9-56.14a322.41,322.41,0,0,0,5.5-41v7.53H484.18v-9.32A323.94,323.94,0,0,0,474.07,216.62Z" transform="translate(-441.24 -166.05)"/><path class="cls-2" d="M474.18,216.64c-6,31.27-7.39,57.19-3.11,57.88s12.63-24.09,18.63-55.37a317.06,317.06,0,0,0,5.41-40.4v7h-11V177A320.49,320.49,0,0,0,474.18,216.64Z" transform="translate(-441.24 -166.05)"/><path class="cls-2" d="M474.29,216.66c-5.92,30.83-7.29,56.39-3.07,57.06s12.45-23.75,18.37-54.59a311.58,311.58,0,0,0,5.34-39.85v6.43H484.11v-8.17A317.06,317.06,0,0,0,474.29,216.66Z" transform="translate(-441.24 -166.05)"/><path class="cls-2" d="M474.4,216.67c-5.84,30.4-7.18,55.58-3,56.25s12.27-23.42,18.1-53.81a306.27,306.27,0,0,0,5.26-39.26v5.86H484.08v-7.59A312.75,312.75,0,0,0,474.4,216.67Z" transform="translate(-441.24 -166.05)"/><path class="cls-2" d="M474.51,216.7c-5.75,30-7.09,54.76-3,55.42s12.09-23.08,17.84-53a302.8,302.8,0,0,0,5.19-38.69v5.31H484.05v-7A304.82,304.82,0,0,0,474.51,216.7Z" transform="translate(-441.24 -166.05)"/><path class="cls-2" d="M474.61,216.71c-5.65,29.51-7,54-2.92,54.62s11.91-22.75,17.57-52.25A299.93,299.93,0,0,0,494.38,181v4.76H484v-6.44A301.89,301.89,0,0,0,474.61,216.71Z" transform="translate(-441.24 -166.05)"/><path class="cls-2" d="M474.72,216.73c-5.57,29.07-6.87,53.16-2.89,53.8s11.75-22.4,17.33-51.47a294.37,294.37,0,0,0,5-37.56v4.21H484v-5.86A298.71,298.71,0,0,0,474.72,216.73Z" transform="translate(-441.24 -166.05)"/><path class="cls-2" d="M474.83,216.75c-5.48,28.63-6.77,52.35-2.84,53s11.56-22.06,17.06-50.69,6.77-52.36,2.84-53v19.66H484v-5.28A294.14,294.14,0,0,0,474.83,216.75Z" transform="translate(-441.24 -166.05)"/><path class="cls-2" d="M474.94,216.76c-5.41,28.2-6.66,51.56-2.8,52.18s11.39-21.73,16.8-49.92,6.66-51.55,2.8-52.17S480.36,188.57,474.94,216.76Z" transform="translate(-441.24 -166.05)"/><path class="cls-2" d="M475.05,216.79c-5.32,27.74-6.56,50.74-2.75,51.35s11.2-21.39,16.53-49.13,6.56-50.74,2.75-51.36S480.38,189,475.05,216.79Z" transform="translate(-441.24 -166.05)"/><path class="cls-2" d="M475.16,216.8c-5.24,27.31-6.45,49.93-2.72,50.54s11-21,16.28-48.35,6.45-49.94,2.72-50.54S480.4,189.49,475.16,216.8Z" transform="translate(-441.24 -166.05)"/><path class="cls-2" d="M475.38,216.83c-5.07,26.43-6.25,48.33-2.63,48.92s10.68-20.37,15.75-46.8,6.24-48.33,2.63-48.91S480.45,190.4,475.38,216.83Z" transform="translate(-441.24 -166.05)"/><path class="cls-2" d="M475.49,216.85c-5,26-6.14,47.53-2.58,48.1s10.49-20,15.48-46,6.14-47.52,2.58-48.09S480.48,190.86,475.49,216.85Z" transform="translate(-441.24 -166.05)"/><path class="cls-2" d="M475.6,216.87c-4.91,25.55-6,46.72-2.54,47.28s10.32-19.69,15.22-45.23,6.05-46.72,2.54-47.28S480.5,191.32,475.6,216.87Z" transform="translate(-441.24 -166.05)"/><path class="cls-2" d="M475.71,216.89c-4.82,25.11-5.93,45.91-2.49,46.46S483.36,244,488.17,218.9s5.94-45.91,2.5-46.47S480.53,191.79,475.71,216.89Z" transform="translate(-441.24 -166.05)"/><path class="cls-2" d="M475.82,216.91c-4.73,24.66-5.84,45.11-2.46,45.65s10-19,14.7-43.67,5.84-45.11,2.46-45.66S480.55,192.23,475.82,216.91Z" transform="translate(-441.24 -166.05)"/><path class="cls-2" d="M475.93,216.92c-4.65,24.23-5.73,44.31-2.41,44.84s9.79-18.67,14.43-42.9,5.73-44.29,2.41-44.83S480.59,192.7,475.93,216.92Z" transform="translate(-441.24 -166.05)"/><path class="cls-2" d="M476.15,217c-4.49,23.35-5.53,42.69-2.32,43.2s9.43-18,13.91-41.33,5.51-42.69,2.31-43.21S480.64,193.62,476.15,217Z" transform="translate(-441.24 -166.05)"/><path class="cls-2" d="M476.25,217c-4.39,22.9-5.41,41.88-2.27,42.39s9.25-17.65,13.65-40.56,5.41-41.88,2.28-42.39S480.66,194.08,476.25,217Z" transform="translate(-441.24 -166.05)"/><path class="cls-2" d="M476.47,217c-4.22,22-5.2,40.28-2.19,40.76s8.9-17,13.13-39,5.2-40.27,2.19-40.75S480.71,195,476.47,217Z" transform="translate(-441.24 -166.05)"/><path class="cls-2" d="M476.58,217c-4.14,21.58-5.1,39.47-2.14,39.94s8.71-16.63,12.86-38.21,5.1-39.46,2.14-39.95S480.73,195.45,476.58,217Z" transform="translate(-441.24 -166.05)"/><path class="cls-2" d="M476.69,217.05c-4.05,21.14-5,38.65-2.1,39.13s8.53-16.29,12.6-37.44,5-38.66,2.1-39.13S480.76,195.91,476.69,217.05Z" transform="translate(-441.24 -166.05)"/><path class="cls-2" d="M476.8,217.07c-4,20.7-4.89,37.85-2.05,38.31s8.35-15.95,12.33-36.65,4.9-37.86,2.06-38.32S480.78,196.36,476.8,217.07Z" transform="translate(-441.24 -166.05)"/><path class="cls-2" d="M478.44,217.33c-2.7,14.09-3.33,25.77-1.4,26.09s5.69-10.86,8.4-25,3.33-25.78,1.41-26.09S481.15,203.23,478.44,217.33Z" transform="translate(-441.24 -166.05)"/><path class="cls-2" d="M478.56,217.35c-2.63,13.66-3.24,25-1.36,25.27s5.51-10.52,8.13-24.18,3.23-25,1.36-25.27S481.18,203.69,478.56,217.35Z" transform="translate(-441.24 -166.05)"/><path class="cls-2" d="M478.67,217.36c-2.54,13.22-3.13,24.17-1.33,24.46s5.34-10.18,7.88-23.39,3.13-24.17,1.32-24.47S481.2,204.15,478.67,217.36Z" transform="translate(-441.24 -166.05)"/><path class="cls-2" d="M478.78,217.38c-2.47,12.77-3,23.36-1.28,23.64s5.16-9.85,7.61-22.62,3-23.35,1.27-23.64S481.22,204.61,478.78,217.38Z" transform="translate(-441.24 -166.05)"/><path class="cls-2" d="M479,217.42c-2.29,11.89-2.82,21.75-1.19,22s4.8-9.17,7.09-21.06,2.8-21.74,1.17-22S481.27,205.52,479,217.42Z" transform="translate(-441.24 -166.05)"/><path class="cls-2" d="M479.09,217.44c-2.19,11.44-2.7,20.93-1.13,21.19s4.62-8.83,6.82-20.28,2.71-20.94,1.15-21.2S481.3,206,479.09,217.44Z" transform="translate(-441.24 -166.05)"/><path class="cls-2" d="M479.2,217.45c-2.1,11-2.59,20.14-1.09,20.38s4.45-8.49,6.57-19.49,2.59-20.14,1.09-20.39S481.32,206.44,479.2,217.45Z" transform="translate(-441.24 -166.05)"/><path class="cls-2" d="M479.31,217.47c-2,10.57-2.49,19.33-1.05,19.57s4.27-8.15,6.31-18.73,2.5-19.33,1.05-19.56S481.35,206.9,479.31,217.47Z" transform="translate(-441.24 -166.05)"/><path class="cls-2" d="M479.42,217.49c-1.94,10.14-2.38,18.53-1,18.75s4.09-7.81,6-17.94,2.4-18.53,1-18.75S481.37,207.36,479.42,217.49Z" transform="translate(-441.24 -166.05)"/><path class="cls-2" d="M479.53,217.51c-1.86,9.69-2.29,17.72-1,17.93s3.92-7.47,5.78-17.16,2.29-17.72,1-17.94S481.4,207.81,479.53,217.51Z" transform="translate(-441.24 -166.05)"/><path class="cls-2" d="M479.64,217.53c-1.77,9.24-2.19,16.91-.91,17.12s3.73-7.14,5.51-16.38,2.19-16.92.92-17.13S481.42,208.27,479.64,217.53Z" transform="translate(-441.24 -166.05)"/><path class="cls-2" d="M479.76,217.54c-1.69,8.81-2.09,16.11-.89,16.31s3.57-6.8,5.26-15.6,2.08-16.11.88-16.31S481.44,208.73,479.76,217.54Z" transform="translate(-441.24 -166.05)"/><path class="cls-2" d="M479.87,217.56c-1.61,8.37-2,15.3-.84,15.49s3.38-6.45,5-14.81,2-15.31.83-15.5S481.47,209.19,479.87,217.56Z" transform="translate(-441.24 -166.05)"/><path class="cls-2" d="M480,217.57c-1.52,7.93-1.88,14.5-.8,14.68s3.21-6.11,4.73-14,1.87-14.5.79-14.67S481.49,209.64,480,217.57Z" transform="translate(-441.24 -166.05)"/><path class="cls-2" d="M480.09,217.6c-1.45,7.49-1.78,13.69-.75,13.86s3-5.78,4.46-13.27,1.77-13.69.74-13.86S481.52,210.1,480.09,217.6Z" transform="translate(-441.24 -166.05)"/><path class="cls-2" d="M480.2,217.61c-1.36,7-1.67,12.89-.71,13s2.85-5.44,4.2-12.48,1.67-12.89.71-13S481.54,210.56,480.2,217.61Z" transform="translate(-441.24 -166.05)"/><path class="cls-2" d="M480.31,217.63c-1.28,6.6-1.57,12.08-.67,12.23s2.67-5.09,3.94-11.7,1.56-12.08.66-12.23S481.57,211,480.31,217.63Z" transform="translate(-441.24 -166.05)"/><path class="cls-2" d="M480.42,217.65c-1.19,6.17-1.47,11.28-.63,11.41s2.5-4.75,3.69-10.91,1.45-11.28.61-11.42S481.59,211.49,480.42,217.65Z" transform="translate(-441.24 -166.05)"/><path class="cls-2" d="M480.51,217.66c-1.09,5.73-1.34,10.48-.56,10.61s2.32-4.42,3.41-10.15,1.35-10.46.57-10.6S481.62,211.93,480.51,217.66Z" transform="translate(-441.24 -166.05)"/><path class="cls-2" d="M481,217.74c-.76,4-.94,7.25-.4,7.34s1.61-3.06,2.37-7,.93-7.26.39-7.35S481.71,213.77,481,217.74Z" transform="translate(-441.24 -166.05)"/><path class="cls-2" d="M481.07,217.75c-.68,3.53-.84,6.45-.36,6.53s1.43-2.72,2.11-6.25.83-6.44.34-6.51S481.74,214.23,481.07,217.75Z" transform="translate(-441.24 -166.05)"/><path class="cls-2" d="M481.18,217.78c-.59,3.07-.74,5.63-.31,5.7s1.25-2.38,1.84-5.46.72-5.64.3-5.71S481.76,214.69,481.18,217.78Z" transform="translate(-441.24 -166.05)"/><path class="cls-2" d="M481.29,217.79c-.51,2.65-.63,4.83-.26,4.89s1.06-2,1.57-4.68.62-4.83.27-4.89S481.79,215.15,481.29,217.79Z" transform="translate(-441.24 -166.05)"/><path class="cls-2" d="M481.4,217.81c-.43,2.2-.53,4-.22,4.08s.89-1.7,1.31-3.9.52-4,.22-4.08S481.81,215.61,481.4,217.81Z" transform="translate(-441.24 -166.05)"/><path class="cls-2" d="M481.51,217.82c-.35,1.76-.42,3.22-.19,3.27s.72-1.36,1.06-3.12.41-3.23.17-3.26S481.84,216.06,481.51,217.82Z" transform="translate(-441.24 -166.05)"/><path class="cls-2" d="M481.62,217.84c-.26,1.33-.32,2.42-.14,2.45s.53-1,.79-2.35.31-2.41.13-2.43S481.86,216.52,481.62,217.84Z" transform="translate(-441.24 -166.05)"/><path class="cls-2" d="M481.73,217.85c-.17.89-.21,1.62-.09,1.64a3.59,3.59,0,0,0,.52-1.56,3.27,3.27,0,0,0,.09-1.63C482.13,216.28,481.89,217,481.73,217.85Z" transform="translate(-441.24 -166.05)"/><path class="cls-2" d="M481.8,217.88a3,3,0,0,0,0,.82,3,3,0,0,0,.14-.79,2.67,2.67,0,0,0,0-.81A2.69,2.69,0,0,0,481.8,217.88Z" transform="translate(-441.24 -166.05)"/></g><path class="cls-8" d="M483.35,265.07,464.41,267s.44-8.48,1.68-18.71h19.2Z" transform="translate(-441.24 -166.05)"/><path class="cls-9" d="M652.31,265.07,671.25,267s-.44-8.48-1.68-18.71h-19.2Z" transform="translate(-441.24 -166.05)"/><path class="cls-10" d="M478.11,267l21.82-74.36c1.93-6.58,9.52-11.91,16.95-11.91h101.9c7.43,0,15,5.33,17,11.91L657.55,267Z" transform="translate(-441.24 -166.05)"/><path class="cls-11" d="M478.11,265.52a.91.91,0,0,1-.23,0l-15.19-4.37a.71.71,0,0,1-.51-.9.79.79,0,0,1,1-.47l15.19,4.37a.71.71,0,0,1,.51.9A.78.78,0,0,1,478.11,265.52Z" transform="translate(-441.24 -166.05)"/><path class="cls-11" d="M479.74,265.63a1.59,1.59,0,0,1-.84-.23L466,257.88a1.36,1.36,0,0,1-.48-2,1.64,1.64,0,0,1,2.16-.44L480.58,263a1.37,1.37,0,0,1,.49,2A1.62,1.62,0,0,1,479.74,265.63Z" transform="translate(-441.24 -166.05)"/><path class="cls-12" d="M467.4,255.14c0,1.86-1.64,6.73-3.66,6.73H444.9c-2,0-3.66-4.87-3.66-6.73H467.4Z" transform="translate(-441.24 -166.05)"/><path class="cls-13" d="M442.36,259.29c.66,1.41,1.55,2.58,2.54,2.58h18.84c1,0,1.88-1.17,2.54-2.58Z" transform="translate(-441.24 -166.05)"/><path class="cls-11" d="M658.43,265.52a.77.77,0,0,1-.75-.5.71.71,0,0,1,.51-.9l15.19-4.37a.79.79,0,0,1,1,.47.71.71,0,0,1-.51.9l-15.19,4.37A.91.91,0,0,1,658.43,265.52Z" transform="translate(-441.24 -166.05)"/><path class="cls-11" d="M656.8,265.63a1.62,1.62,0,0,1-1.33-.67,1.37,1.37,0,0,1,.49-2l12.88-7.52a1.63,1.63,0,0,1,2.16.44,1.36,1.36,0,0,1-.48,2l-12.88,7.52A1.59,1.59,0,0,1,656.8,265.63Z" transform="translate(-441.24 -166.05)"/><path class="cls-14" d="M669.14,255.14c0,1.86,1.64,6.73,3.66,6.73h18.84c2,0,3.66-4.87,3.66-6.73H669.14Z" transform="translate(-441.24 -166.05)"/><path class="cls-15" d="M694.18,259.29c-.66,1.41-1.55,2.58-2.54,2.58H672.8c-1,0-1.88-1.17-2.54-2.58Z" transform="translate(-441.24 -166.05)"/><path class="cls-16" d="M490.4,263.11h-.08a.63.63,0,0,1-.59-.68c4.63-39.9,26.32-81.59,26.54-82a.7.7,0,0,1,.9-.29.6.6,0,0,1,.32.83c-.22.41-21.82,41.91-26.42,81.6A.65.65,0,0,1,490.4,263.11Z" transform="translate(-441.24 -166.05)"/><path class="cls-17" d="M645.26,263.11a.65.65,0,0,1-.67-.55c-4.6-39.69-26.2-81.19-26.42-81.6a.6.6,0,0,1,.32-.83.7.7,0,0,1,.9.29c.22.42,21.91,42.11,26.54,82a.63.63,0,0,1-.59.68Z" transform="translate(-441.24 -166.05)"/><path class="cls-18" d="M657.94,265.46c-29.88-1.79-62.53-4.67-90.11-4.67s-61.1,4-90.11,4.67c8.45-2.17,9.07-15,16.82-17.21,39.4-4.56,105.89-4.56,145.29,0C647.57,250.43,649.49,263.29,657.94,265.46Z" transform="translate(-441.24 -166.05)"/><path class="cls-19" d="M467.11,728.75a13.84,13.84,0,0,0,10.76,5H657.79a14,14,0,0,0,9.63-3.74c-12.32-5.93-53.17-10.28-101.69-10.28C520.68,719.72,482.25,723.47,467.11,728.75Z" transform="translate(-441.24 -166.05)"/><path class="cls-20" d="M671.25,267c0-4.77-46.3-6.17-103.42-6.17s-103.42,1.4-103.42,6.17V721.4a11.62,11.62,0,0,0,2.7,7.35c15.14-5.28,53.57-9,98.62-9,48.52,0,89.37,4.35,101.69,10.28a11.79,11.79,0,0,0,3.83-8.6Z" transform="translate(-441.24 -166.05)"/><path class="cls-21" d="M567.83,260.79c-57.12,0-103.42,1.4-103.42,6.17v3.4c0-4.77,46.3-6.17,103.42-6.17s103.42,1.4,103.42,6.17V267C671.25,262.19,625,260.79,567.83,260.79Z" transform="translate(-441.24 -166.05)"/><path class="cls-22" d="M525.77,729c-.41-2.62-12.62-2.95-27.29-.75l-26.81,4a14.18,14.18,0,0,0,6.2,1.45H526.5S526.17,731.63,525.77,729Z" transform="translate(-441.24 -166.05)"/><path class="cls-23" d="M610,729c.4-2.62,12.62-2.95,27.29-.75l26.81,4a14.21,14.21,0,0,1-6.2,1.45H609.27Z" transform="translate(-441.24 -166.05)"/><g class="cls-24"><path class="cls-25" d="M667,730.77c-12.45-6-54.09-10.19-101.25-10.19-43.4,0-82.89,3.61-98.28,9l-.67-1.62c15.82-5.52,54.66-9.08,99-9.08,47.43,0,89.43,4.27,102.13,10.38Z" transform="translate(-441.24 -166.05)"/></g><rect class="cls-26" x="94.25" y="565.69" width="64.68" height="2"/><path class="cls-27" d="M560.7,260.8l-7,0v3.37h7Z" transform="translate(-441.24 -166.05)"/><path class="cls-28" d="M571.31,260.79h-7v3.4h7Z" transform="translate(-441.24 -166.05)"/><path class="cls-29" d="M575,260.8v3.39h7v-3.37Z" transform="translate(-441.24 -166.05)"/><path class="cls-30" d="M569.49,245q-24,.54-47.86,3.26c-7.75,2.18-15.5,12.16-23.25,14.34,13.39-.36,27.23-.82,41.2-1.18A135.45,135.45,0,0,1,569.49,245Z" transform="translate(-441.24 -166.05)"/><path class="cls-31" d="M623.7,179.52a1.12,1.12,0,0,1-1.06,1.17H513a1.12,1.12,0,0,1-1.06-1.17h0a1.11,1.11,0,0,1,1.06-1.17H622.64a1.11,1.11,0,0,1,1.06,1.17Z" transform="translate(-441.24 -166.05)"/><path class="cls-32" d="M479.74,719.26a.65.65,0,0,1-.67-.62V271.9a.65.65,0,0,1,.67-.62.66.66,0,0,1,.68.62V718.64A.66.66,0,0,1,479.74,719.26Z" transform="translate(-441.24 -166.05)"/><g class="cls-24"><path class="cls-33" d="M655.92,719.26a.65.65,0,0,1-.68-.62V271.9a.68.68,0,0,1,1.35,0V718.64A.65.65,0,0,1,655.92,719.26Z" transform="translate(-441.24 -166.05)"/></g><path class="cls-11" d="M643.79,254.77a373.2,373.2,0,0,0-90.87-9.49l0-2.18a379.31,379.31,0,0,1,92.31,9.68Z" transform="translate(-441.24 -166.05)"/><path class="cls-11" d="M586.35,245.41c0,1.3-10,2.34-22.34,2.34s-22.35-1-22.35-2.34,10-2.35,22.35-2.35S586.35,244.11,586.35,245.41Z" transform="translate(-441.24 -166.05)"/></g><text class="cls-34" transform="translate(98.65 226.64)">S<tspan x="0" y="108.7">E</tspan><tspan x="0" y="217.41">U</tspan></text></g></g></svg>