<?xml version="1.0" standalone="no"?><!DOCTYPE svg PUBLIC "-//W3C//DTD SVG 1.1//EN" "http://www.w3.org/Graphics/SVG/1.1/DTD/svg11.dtd"><svg t="1719557844455" class="icon" viewBox="0 0 1126 1024" version="1.1" xmlns="http://www.w3.org/2000/svg" p-id="11114" xmlns:xlink="http://www.w3.org/1999/xlink" width="219.921875" height="200"><path d="M384 399.36c-5.12 5.12-8.533333 8.533333-17.066667 8.533333h-78.506666c-13.653333 0-25.6 13.653333-25.6 25.6v160.426667c0 13.653333 13.653333 25.6 25.6 25.6h78.506666c5.12 0 13.653333 5.12 17.066667 8.533333l155.306667 160.426667c5.12 5.12 5.12 8.533333 8.533333 8.533333V232.106667l-8.533333 8.533333-155.306667 158.72z" fill="#19ADF4" p-id="11115"></path><path d="M742.4 0h-358.4C199.68 0 51.2 148.48 51.2 332.8v358.4C51.2 875.52 199.68 1024 384 1024h358.4C926.72 1024 1075.2 875.52 1075.2 691.2v-358.4C1075.2 148.48 926.72 0 742.4 0z m-143.36 805.546667c0 39.253333-22.186667 51.2-39.253333 51.2-17.066667 0-34.133333-8.533333-56.32-30.72l-145.066667-153.6h-64.853333c-42.666667 0-78.506667-39.253333-78.506667-81.92v-160.426667c0-47.786667 34.133333-81.92 78.506667-81.92H358.4l146.773333-150.186667c22.186667-22.186667 39.253333-30.72 56.32-30.72s39.253333 13.653333 39.253334 47.786667v590.506667z m121.173333-138.24l-8.533333 13.653333c-5.12 8.533333-13.653333 13.653333-22.186667 13.653333-5.12 0-8.533333 0-13.653333-5.12-8.533333-8.533333-13.653333-25.6-5.12-39.253333l8.533333-13.653333c25.6-34.133333 47.786667-68.266667 47.786667-124.586667s-22.186667-87.04-47.786667-121.173333c-5.12-5.12-8.533333-8.533333-13.653333-17.066667-8.533333-13.653333-8.533333-30.72 5.12-39.253333 8.533333-8.533333 25.6-8.533333 34.133333 5.12 5.12 5.12 8.533333 13.653333 13.653334 17.066666 30.72 39.253333 56.32 81.92 59.733333 150.186667 3.413333 73.386667-32.426667 121.173333-58.026667 160.426667z m78.506667 112.64c-5.12 5.12-8.533333 8.533333-17.066667 8.533333s-13.653333-5.12-17.066666-8.533333c-13.653333-13.653333-13.653333-25.6-5.12-39.253334 51.2-59.733333 98.986667-129.706667 98.986666-228.693333 0-95.573333-47.786667-168.96-98.986666-228.693333-8.533333-13.653333-5.12-30.72 5.12-39.253334 8.533333-8.533333 25.6-8.533333 34.133333 5.12 51.2 64.853333 107.52 146.773333 112.64 267.946667-1.706667 110.933333-56.32 197.973333-112.64 262.826667z" fill="#19ADF4" p-id="11116"></path></svg>