<svg xmlns="http://www.w3.org/2000/svg" xmlns:xlink="http://www.w3.org/1999/xlink" viewBox="0 0 171.54 380.79"><defs><style>.cls-1{fill:#8c1c21;}.cls-2{fill:url(#未命名的渐变_81);}.cls-3{isolation:isolate;}.cls-4{opacity:0.95;}.cls-10,.cls-17,.cls-22,.cls-5,.cls-9{mix-blend-mode:multiply;}.cls-5{fill:url(#linear-gradient);}.cls-6{clip-path:url(#clip-path);}.cls-7{clip-path:url(#clip-path-2);}.cls-8{fill:url(#未命名的渐变_81-3);}.cls-9{fill:url(#linear-gradient-2);}.cls-10{fill:url(#linear-gradient-3);}.cls-11{fill:url(#未命名的渐变_75);}.cls-12{fill:#040000;}.cls-13{fill:url(#未命名的渐变_304);}.cls-14{fill:url(#linear-gradient-4);}.cls-15{fill:url(#未命名的渐变_283);}.cls-16{fill:url(#linear-gradient-5);}.cls-18{fill:#c5c1a9;}.cls-19{fill:url(#linear-gradient-6);}.cls-20{fill:url(#未命名的渐变_114);}.cls-21{fill:url(#未命名的渐变_408);}.cls-22{fill:url(#未命名的渐变_308);}.cls-23{fill:url(#linear-gradient-7);}.cls-24{fill:url(#linear-gradient-8);}.cls-25{fill:#b4b3b3;}.cls-26{fill:url(#linear-gradient-9);}.cls-27{mix-blend-mode:screen;fill:url(#linear-gradient-10);}.cls-28{fill:url(#linear-gradient-11);}.cls-29{fill:#b64b21;}.cls-30{opacity:0.91;font-size:61.16px;fill:#fdfdf3;font-family:Broadway;}</style><linearGradient id="未命名的渐变_81" x1="528.25" y1="221.22" x2="554.59" y2="221.22" gradientUnits="userSpaceOnUse"><stop offset="0" stop-color="#bd1a21"/><stop offset="1" stop-color="#8c1c21"/></linearGradient><linearGradient id="linear-gradient" x1="636.47" y1="213.01" x2="683.87" y2="212.28" gradientTransform="matrix(1, 0, 0, -1, 0, 594.1)" gradientUnits="userSpaceOnUse"><stop offset="0" stop-color="#242424"/><stop offset="1" stop-color="#fff"/></linearGradient><clipPath id="clip-path" transform="translate(-512.6 -179.89)"><path class="cls-1" d="M641.56,194.93s19.29,0,21.29,9.4c1.9,8.87,5,43.18,5,43.18l-12.79-1.16Z"/></clipPath><clipPath id="clip-path-2" transform="translate(-512.6 -179.89)"><path class="cls-2" d="M554.59,194.93s-19.29,0-21.3,9.4c-1.89,8.87-5,43.18-5,43.18L541,246.35Z"/></clipPath><linearGradient id="未命名的渐变_81-3" x1="15.65" y1="41.33" x2="41.99" y2="41.33" xlink:href="#未命名的渐变_81"/><linearGradient id="linear-gradient-2" x1="474.96" y1="246.44" x2="474.96" y2="238.21" gradientTransform="matrix(-1, 0, 0, 1, 1010.26, 0)" gradientUnits="userSpaceOnUse"><stop offset="0" stop-color="#ccc"/><stop offset="1" stop-color="#fff"/></linearGradient><linearGradient id="linear-gradient-3" x1="660.85" y1="246.44" x2="660.85" y2="238.21" gradientTransform="matrix(1, 0, 0, 1, 0, 0)" xlink:href="#linear-gradient-2"/><linearGradient id="未命名的渐变_75" x1="539.78" y1="218.57" x2="672.1" y2="218.57" gradientTransform="translate(43.27) scale(0.92 1)" gradientUnits="userSpaceOnUse"><stop offset="0" stop-color="#9e1f24"/><stop offset="0.21" stop-color="#c01f1f"/><stop offset="0.47" stop-color="#e71f19"/><stop offset="0.61" stop-color="#e51e19"/><stop offset="0.67" stop-color="#de1b1a"/><stop offset="0.71" stop-color="#d1161b"/><stop offset="0.71" stop-color="#d1161b"/><stop offset="0.84" stop-color="#b0181d"/><stop offset="1" stop-color="#831a1f"/></linearGradient><radialGradient id="未命名的渐变_304" cx="521.53" cy="16923.28" r="11.21" gradientTransform="translate(0 -4770.93) scale(1 0.3)" gradientUnits="userSpaceOnUse"><stop offset="0" stop-color="#fff"/><stop offset="0.14" stop-color="#e2e1e1"/><stop offset="0.45" stop-color="#989696"/><stop offset="0.89" stop-color="#221e1e"/><stop offset="1" stop-color="#040000"/></radialGradient><linearGradient id="linear-gradient-4" x1="513.36" y1="243.22" x2="529.51" y2="243.22" gradientUnits="userSpaceOnUse"><stop offset="0" stop-color="#363b39"/><stop offset="1" stop-color="#1b1c1c"/></linearGradient><radialGradient id="未命名的渐变_283" cx="323.77" cy="16923.28" r="11.21" gradientTransform="matrix(-1, 0, 0, 0.3, 998.99, -4770.93)" xlink:href="#未命名的渐变_304"/><linearGradient id="linear-gradient-5" x1="315.6" y1="243.22" x2="331.76" y2="243.22" gradientTransform="matrix(-1, 0, 0, 1, 998.99, 0)" xlink:href="#linear-gradient-4"/><linearGradient id="linear-gradient-6" x1="598.07" y1="243.06" x2="598.07" y2="224.34" xlink:href="#linear-gradient-4"/><linearGradient id="未命名的渐变_114" x1="597.69" y1="551.78" x2="597.69" y2="572.98" gradientUnits="userSpaceOnUse"><stop offset="0" stop-color="#e94c4b"/><stop offset="0.13" stop-color="#e73330"/><stop offset="0.27" stop-color="#e6201c"/><stop offset="0.36" stop-color="#e51914"/><stop offset="0.45" stop-color="#e51713"/><stop offset="1" stop-color="#e41512"/></linearGradient><linearGradient id="未命名的渐变_408" x1="528.25" y1="400.75" x2="667.9" y2="400.75" gradientUnits="userSpaceOnUse"><stop offset="0" stop-color="#921e22"/><stop offset="0.36" stop-color="#d8211c"/><stop offset="0.74" stop-color="#d7201c"/><stop offset="0.79" stop-color="#d2201c"/><stop offset="0.86" stop-color="#c41f1d"/><stop offset="0.93" stop-color="#ac1e1f"/><stop offset="1" stop-color="#8c1c21"/></linearGradient><linearGradient id="未命名的渐变_308" x1="598.07" y1="243.26" x2="598.07" y2="245.74" gradientUnits="userSpaceOnUse"><stop offset="0" stop-color="#040000"/><stop offset="0.12" stop-color="#2a2727"/><stop offset="0.36" stop-color="#757373"/><stop offset="0.58" stop-color="#b0afaf"/><stop offset="0.77" stop-color="#dbdada"/><stop offset="0.91" stop-color="#f5f5f5"/><stop offset="1" stop-color="#fff"/></linearGradient><linearGradient id="linear-gradient-7" x1="533.15" y1="558.31" x2="570.17" y2="558.31" xlink:href="#linear-gradient-4"/><linearGradient id="linear-gradient-8" x1="355.24" y1="558.31" x2="392.26" y2="558.31" gradientTransform="matrix(-1, 0, 0, 1, 1018.31, 0)" xlink:href="#linear-gradient-4"/><linearGradient id="linear-gradient-9" x1="85.47" y1="379.49" x2="85.47" y2="382.51" xlink:href="#linear-gradient-4"/><linearGradient id="linear-gradient-10" x1="587.96" y1="260.12" x2="573.71" y2="236.19" gradientUnits="userSpaceOnUse"><stop offset="0" stop-color="#3a3b3b"/><stop offset="1" stop-color="#040000"/></linearGradient><linearGradient id="linear-gradient-11" x1="598.07" y1="189.24" x2="598.07" y2="187.12" xlink:href="#linear-gradient-4"/></defs><g class="cls-3"><g id="图层_1" data-name="图层 1"><g class="cls-4"><path class="cls-5" d="M656.88,201.78H632.39c-13.63,0-24.68,6.69-24.68,19.11v317.3c0,12.42,11,22.49,24.68,22.49l6.52-.75c13.63,0,42.64.75,42.64-21.74V220.89C681.55,208.47,681.55,201.78,656.88,201.78Z" transform="translate(-512.6 -179.89)"/><path class="cls-1" d="M641.56,194.93s19.29,0,21.29,9.4c1.9,8.87,5,43.18,5,43.18l-12.79-1.16Z" transform="translate(-512.6 -179.89)"/><g class="cls-6"><rect class="cls-1" x="128.95" y="15.04" width="26.34" height="52.58"/><path class="cls-1" d="M665.17,218.49c3.07,15.93,4.25,30.61,3.66,41.47V249.43H645.09V255c-1.11-3-2.19-6.19-3.22-9.59a219.41,219.41,0,0,1-5.47-22.27h3V193h17v-6.35c1.11,3,2.19,6.19,3.22,9.58A223.25,223.25,0,0,1,665.17,218.49Z" transform="translate(-512.6 -179.89)"/><path class="cls-1" d="M665,218.52c3,15.74,4.2,30.25,3.62,41V249.43h-20.1v13.29c-4.57-9.9-8.91-23.89-11.95-39.63h2.87V193h17v-6q1.65,4.44,3.19,9.48A224.34,224.34,0,0,1,665,218.52Z" transform="translate(-512.6 -179.89)"/><path class="cls-1" d="M664.83,218.55c3,15.56,4.15,29.89,3.58,40.49v-9.61H648.55v12.79c-4.51-9.78-8.8-23.61-11.81-39.16h2.7V193h16.91v-5.55q1.62,4.38,3.14,9.36A217,217,0,0,1,664.83,218.55Z" transform="translate(-512.6 -179.89)"/><path class="cls-1" d="M664.66,218.58c3,15.36,4.11,29.52,3.53,40v-9.15H648.58v12.3c-4.46-9.67-8.7-23.33-11.67-38.7h2.53V193H653V179.89C657.45,189.55,661.69,203.21,664.66,218.58Z" transform="translate(-512.6 -179.89)"/><path class="cls-1" d="M664.49,218.61c2.93,15.17,4,29.16,3.49,39.5v-8.68H648.6v11.8c-4.4-9.55-8.59-23.05-11.52-38.22h2.36V193H653V180.38C657.36,189.94,661.56,203.42,664.49,218.61Z" transform="translate(-512.6 -179.89)"/><path class="cls-1" d="M664.32,218.63c2.9,15,4,28.81,3.45,39v-8.23H648.63v11.29c-4.35-9.42-8.49-22.75-11.38-37.74h2.19V193h13.5V180.88C657.28,190.31,661.42,203.64,664.32,218.63Z" transform="translate(-512.6 -179.89)"/><path class="cls-1" d="M664.15,218.66c2.86,14.81,4,28.44,3.41,38.53v-7.76h-18.9v10.8c-4.3-9.31-8.39-22.48-11.25-37.28h2V193h13.47V181.39C657.21,190.7,661.29,203.86,664.15,218.66Z" transform="translate(-512.6 -179.89)"/><path class="cls-1" d="M664,218.69c2.83,14.62,3.91,28.08,3.37,38v-7.3H648.68v10.3c-4.24-9.2-8.27-22.19-11.09-36.81h1.85V193h13.44V181.88C657.12,191.08,661.16,204.07,664,218.69Z" transform="translate(-512.6 -179.89)"/><path class="cls-1" d="M663.81,218.71c2.79,14.43,3.86,27.73,3.33,37.56v-6.84H648.71v9.8c-4.19-9.08-8.17-21.91-11-36.34h1.69V193h13.42V182.38C657,191.46,661,204.28,663.81,218.71Z" transform="translate(-512.6 -179.89)"/><path class="cls-1" d="M663.65,218.74c2.74,14.24,3.8,27.37,3.27,37.07v-6.38H648.73v9.3c-4.12-9-8.06-21.62-10.81-35.86h1.52V193h13.39V182.89C657,191.84,660.89,204.5,663.65,218.74Z" transform="translate(-512.6 -179.89)"/><path class="cls-1" d="M663.47,218.77c2.72,14,3.76,27,3.24,36.58v-5.92H648.77v8.8c-4.08-8.84-8-21.34-10.68-35.39h1.35V193H652.8v-9.62C656.88,192.22,660.75,204.71,663.47,218.77Z" transform="translate(-512.6 -179.89)"/><path class="cls-1" d="M663.3,218.8c2.69,13.86,3.7,26.64,3.2,36.09v-5.46H648.79v8.3c-4-8.72-7.85-21.05-10.52-34.91h1.17V193h13.34v-9.12C656.8,192.61,660.62,204.93,663.3,218.8Z" transform="translate(-512.6 -179.89)"/><path class="cls-1" d="M663.13,218.83c2.65,13.67,3.66,26.28,3.15,35.6v-5H648.82v7.81c-4-8.61-7.74-20.77-10.39-34.45h1V193h13.31v-8.62C656.72,193,660.49,205.14,663.13,218.83Z" transform="translate(-512.6 -179.89)"/><path class="cls-1" d="M663,218.85c2.6,13.49,3.6,25.92,3.11,35.12v-4.54H648.85v7.31c-3.92-8.49-7.64-20.49-10.25-34h.84V193h13.28v-8.13C656.64,193.37,660.36,205.36,663,218.85Z" transform="translate(-512.6 -179.89)"/><path class="cls-1" d="M662.8,218.88c2.57,13.3,3.55,25.56,3.06,34.63v-4.08h-17v6.8c-3.86-8.37-7.53-20.2-10.1-33.49h.67V193h13.25v-7.63C656.55,193.74,660.22,205.57,662.8,218.88Z" transform="translate(-512.6 -179.89)"/><path class="cls-1" d="M662.63,218.91c2.53,13.12,3.5,25.2,3,34.14v-3.62H648.9v6.31c-3.8-8.25-7.43-19.92-10-33h.5V193h13.23v-7.12C656.47,194.13,660.09,205.79,662.63,218.91Z" transform="translate(-512.6 -179.89)"/><path class="cls-1" d="M662.46,218.93c2.49,12.93,3.45,24.85,3,33.66v-3.16H648.92v5.81c-3.74-8.14-7.31-19.63-9.81-32.56h.33V193h13.2v-6.63C656.39,194.5,660,206,662.46,218.93Z" transform="translate(-512.6 -179.89)"/><path class="cls-1" d="M662.29,219c2.47,12.74,3.4,24.48,2.94,33.17v-2.7H649v5.31c-3.7-8-7.21-19.35-9.68-32.09h.17V193h13.18v-6.13C656.31,194.89,659.83,206.22,662.29,219Z" transform="translate(-512.6 -179.89)"/><path class="cls-1" d="M662.12,219c2.43,12.56,3.35,24.13,2.89,32.69v-2.24H649v4.81c-3.65-7.9-7.11-19.06-9.53-31.62s-3.36-24.12-2.9-32.67l2.89,3.05h13.15v-5.62C656.23,195.27,659.7,206.43,662.12,219Z" transform="translate(-512.6 -179.89)"/><path class="cls-1" d="M662,219c2.39,12.37,3.3,23.77,2.85,32.2v-1.78H649v4.31c-3.59-7.78-7-18.78-9.4-31.14s-3.3-23.76-2.84-32.19l2.67,2.59h13.12v-5.13C656.15,195.65,659.56,206.65,662,219Z" transform="translate(-512.6 -179.89)"/><path class="cls-1" d="M661.78,219c2.36,12.18,3.26,23.41,2.81,31.7v-1.31H649v3.81c-3.53-7.66-6.89-18.49-9.24-30.67s-3.26-23.4-2.81-31.71l2.46,2.14h13.1v-4.63C656.07,196,659.43,206.86,661.78,219Z" transform="translate(-512.6 -179.89)"/><path class="cls-1" d="M661.61,219.07c2.32,12,3.2,23,2.77,31.21v-.85H649.06v3.32c-3.48-7.55-6.79-18.22-9.11-30.2s-3.2-23.05-2.76-31.23l2.25,1.68H652.5v-4.13C656,196.42,659.3,207.08,661.61,219.07Z" transform="translate(-512.6 -179.89)"/><path class="cls-1" d="M661.44,219.1c2.28,11.8,3.16,22.68,2.72,30.72v-.39H649.09v2.81c-3.42-7.42-6.69-17.92-9-29.72s-3.16-22.69-2.72-30.73l2,1.21h13v-3.63C655.9,196.79,659.17,207.29,661.44,219.1Z" transform="translate(-512.6 -179.89)"/><path class="cls-1" d="M661.27,219.12c4.49,23.24,3.44,42.83-2.36,43.75V249.43h-9.8v2.31c-3.37-7.3-6.58-17.63-8.82-29.25s-3.1-22.32-2.67-30.24l1.82.75h13v-3.13C655.83,197.18,659,207.51,661.27,219.12Z" transform="translate(-512.6 -179.89)"/><path class="cls-1" d="M661.1,219.15c4.42,22.86,3.38,42.13-2.32,43V249.43h-9.64v1.82c-3.32-7.2-6.47-17.36-8.67-28.79s-3.06-22-2.64-29.75l1.61.29h13v-2.63C655.74,197.56,658.89,207.72,661.1,219.15Z" transform="translate(-512.6 -179.89)"/><path class="cls-1" d="M660.94,219.18c4.34,22.48,3.32,41.44-2.29,42.34s-13.67-16.6-18-39.09-3.32-41.44,2.28-42.34V193h9.49v-2.14C655.66,197.94,658.76,207.93,660.94,219.18Z" transform="translate(-512.6 -179.89)"/><path class="cls-1" d="M660.77,219.2C665,241.32,664,260,658.52,260.84s-13.45-16.32-17.72-38.43-3.27-40.75,2.24-41.63S656.5,197.1,660.77,219.2Z" transform="translate(-512.6 -179.89)"/><path class="cls-1" d="M660.6,219.23c4.2,21.74,3.2,40.06-2.21,40.93s-13.22-16-17.42-37.78-3.21-40.06,2.21-40.93S656.4,197.5,660.6,219.23Z" transform="translate(-512.6 -179.89)"/><path class="cls-1" d="M660.43,219.25c4.13,21.37,3.15,39.38-2.17,40.23s-13-15.77-17.13-37.13S638,183,643.31,182.13,656.3,197.89,660.43,219.25Z" transform="translate(-512.6 -179.89)"/><path class="cls-1" d="M660.26,219.28c4.06,21,3.1,38.69-2.14,39.52s-12.76-15.49-16.81-36.47-3.1-38.68,2.13-39.52S656.21,198.3,660.26,219.28Z" transform="translate(-512.6 -179.89)"/><path class="cls-1" d="M660.09,219.32c4,20.6,3,38-2.1,38.81s-12.53-15.22-16.52-35.83-3-38,2.1-38.81S656.11,198.7,660.09,219.32Z" transform="translate(-512.6 -179.89)"/><path class="cls-1" d="M659.92,219.34c3.91,20.24,3,37.29-2.06,38.11s-12.3-14.94-16.21-35.17-3-37.31,2.06-38.11S656,199.1,659.92,219.34Z" transform="translate(-512.6 -179.89)"/><path class="cls-1" d="M659.75,219.37c3.84,19.86,2.94,36.6-2,37.4s-12.07-14.66-15.92-34.52-2.93-36.61,2-37.41S655.91,199.51,659.75,219.37Z" transform="translate(-512.6 -179.89)"/><path class="cls-1" d="M659.58,219.4c3.77,19.48,2.88,35.91-2,36.69S645.75,241.71,642,222.22s-2.88-35.92,2-36.7S655.82,199.91,659.58,219.4Z" transform="translate(-512.6 -179.89)"/><path class="cls-1" d="M659.41,219.42c3.69,19.12,2.82,35.22-1.94,36s-11.62-14.11-15.32-33.22-2.82-35.22,1.94-36S655.72,200.31,659.41,219.42Z" transform="translate(-512.6 -179.89)"/><path class="cls-1" d="M659.24,219.45c3.62,18.74,2.77,34.53-1.9,35.29s-11.39-13.84-15-32.58-2.77-34.53,1.9-35.28S655.62,200.71,659.24,219.45Z" transform="translate(-512.6 -179.89)"/><path class="cls-1" d="M659.08,219.47c3.54,18.36,2.71,33.85-1.87,34.59S646,240.5,642.49,222.14s-2.71-33.84,1.87-34.58S655.53,201.11,659.08,219.47Z" transform="translate(-512.6 -179.89)"/><path class="cls-1" d="M658.9,219.5c3.48,18,2.66,33.16-1.83,33.88s-10.93-13.28-14.41-31.27S640,189,644.49,188.24,655.43,201.51,658.9,219.5Z" transform="translate(-512.6 -179.89)"/><path class="cls-1" d="M658.74,219.53c3.4,17.61,2.6,32.46-1.8,33.17s-10.7-13-14.11-30.62-2.6-32.46,1.79-33.17S655.33,201.92,658.74,219.53Z" transform="translate(-512.6 -179.89)"/><path class="cls-1" d="M658.57,219.56c3.32,17.24,2.55,31.77-1.75,32.46s-10.49-12.72-13.82-30-2.55-31.78,1.75-32.47S655.24,202.32,658.57,219.56Z" transform="translate(-512.6 -179.89)"/><path class="cls-1" d="M658.4,219.59c3.26,16.86,2.49,31.08-1.71,31.75S646.43,238.89,643.17,222s-2.49-31.08,1.71-31.76S655.14,202.72,658.4,219.59Z" transform="translate(-512.6 -179.89)"/><path class="cls-1" d="M658.22,219.61c3.2,16.49,2.44,30.39-1.67,31s-10-12.17-13.21-28.66S640.9,191.61,645,191,655,203.12,658.22,219.61Z" transform="translate(-512.6 -179.89)"/><path class="cls-1" d="M658.06,219.64c3.12,16.12,2.38,29.7-1.64,30.34s-9.8-11.89-12.91-28-2.38-29.7,1.63-30.34S655,203.52,658.06,219.64Z" transform="translate(-512.6 -179.89)"/><path class="cls-1" d="M657.89,219.67c3.05,15.73,2.33,29-1.6,29.63s-9.57-11.62-12.62-27.36-2.32-29,1.61-29.64S654.85,203.92,657.89,219.67Z" transform="translate(-512.6 -179.89)"/><path class="cls-1" d="M657.72,219.69c3,15.36,2.27,28.32-1.56,28.93s-9.35-11.33-12.31-26.7-2.28-28.32,1.56-28.94S654.75,204.33,657.72,219.69Z" transform="translate(-512.6 -179.89)"/><path class="cls-1" d="M657.55,219.72c2.9,15,2.21,27.63-1.53,28.23s-9.11-11.07-12-26.06-2.21-27.63,1.53-28.22S654.65,204.73,657.55,219.72Z" transform="translate(-512.6 -179.89)"/><path class="cls-1" d="M657.38,219.74c2.83,14.62,2.16,26.95-1.49,27.53s-8.89-10.79-11.7-25.4-2.16-26.94,1.48-27.52S654.56,205.13,657.38,219.74Z" transform="translate(-512.6 -179.89)"/><path class="cls-1" d="M657.22,219.77c2.75,14.25,2.1,26.25-1.45,26.82s-8.67-10.51-11.42-24.75-2.1-26.25,1.45-26.82S654.46,205.53,657.22,219.77Z" transform="translate(-512.6 -179.89)"/><path class="cls-1" d="M657,219.8c2.68,13.87,2.05,25.55-1.4,26.11s-8.44-10.24-11.12-24.1-2-25.56,1.41-26.11S654.36,205.93,657,219.8Z" transform="translate(-512.6 -179.89)"/><path class="cls-1" d="M656.88,219.83c2.6,13.49,2,24.86-1.38,25.4s-8.21-10-10.81-23.44-2-24.88,1.37-25.41S654.27,206.34,656.88,219.83Z" transform="translate(-512.6 -179.89)"/><path class="cls-1" d="M656.7,219.86c2.54,13.12,1.95,24.17-1.33,24.7s-8-9.69-10.51-22.8-1.94-24.18,1.33-24.7S654.17,206.74,656.7,219.86Z" transform="translate(-512.6 -179.89)"/><path class="cls-1" d="M656.54,219.88c2.46,12.74,1.88,23.49-1.3,24s-7.75-9.41-10.21-22.15-1.89-23.48,1.3-24S654.07,207.14,656.54,219.88Z" transform="translate(-512.6 -179.89)"/><path class="cls-1" d="M656.36,219.91c2.39,12.36,1.83,22.79-1.25,23.29s-7.52-9.13-9.91-21.5-1.82-22.79,1.26-23.29S654,207.55,656.36,219.91Z" transform="translate(-512.6 -179.89)"/><path class="cls-1" d="M656.2,219.94c2.31,12,1.77,22.1-1.22,22.58s-7.3-8.85-9.61-20.85-1.77-22.1,1.21-22.58S653.88,208,656.2,219.94Z" transform="translate(-512.6 -179.89)"/><path class="cls-1" d="M656,220c2.25,11.62,1.72,21.42-1.17,21.88s-7.07-8.58-9.31-20.19-1.72-21.41,1.18-21.88S653.78,208.34,656,220Z" transform="translate(-512.6 -179.89)"/><path class="cls-1" d="M655.86,220c2.17,11.24,1.66,20.72-1.14,21.18s-6.84-8.31-9-19.55-1.66-20.72,1.14-21.17S653.69,208.75,655.86,220Z" transform="translate(-512.6 -179.89)"/><path class="cls-1" d="M655.69,220c2.1,10.87,1.61,20-1.1,20.46s-6.62-8-8.72-18.89-1.6-20,1.11-20.46S653.59,209.15,655.69,220Z" transform="translate(-512.6 -179.89)"/><path class="cls-1" d="M655.52,220.05c2,10.49,1.55,19.34-1.07,19.75s-6.38-7.74-8.4-18.23-1.55-19.34,1.06-19.77S653.49,209.55,655.52,220.05Z" transform="translate(-512.6 -179.89)"/><path class="cls-1" d="M655.36,220.08c1.95,10.11,1.48,18.64-1,19s-6.15-7.46-8.11-17.58-1.49-18.65,1-19.06S653.4,210,655.36,220.08Z" transform="translate(-512.6 -179.89)"/><path class="cls-1" d="M655.18,220.1c1.89,9.74,1.44,18-1,18.35s-5.92-7.19-7.81-16.93-1.43-18,1-18.36S653.3,210.36,655.18,220.1Z" transform="translate(-512.6 -179.89)"/><path class="cls-1" d="M655,220.13c1.81,9.36,1.38,17.26-1,17.64s-5.7-6.92-7.51-16.28-1.38-17.27,1-17.65S653.21,210.76,655,220.13Z" transform="translate(-512.6 -179.89)"/><path class="cls-1" d="M654.84,220.15c1.74,9,1.33,16.58-.91,16.94s-5.47-6.64-7.21-15.64-1.33-16.57.91-16.93S653.11,211.16,654.84,220.15Z" transform="translate(-512.6 -179.89)"/><path class="cls-1" d="M654.68,220.18c1.66,8.62,1.27,15.88-.88,16.23s-5.24-6.36-6.91-15-1.27-15.89.88-16.23S653,211.56,654.68,220.18Z" transform="translate(-512.6 -179.89)"/><path class="cls-1" d="M654.5,220.21c1.6,8.24,1.23,15.19-.83,15.52s-5-6.09-6.61-14.33-1.22-15.19.84-15.52S652.92,212,654.5,220.21Z" transform="translate(-512.6 -179.89)"/><path class="cls-1" d="M654.34,220.23c1.52,7.88,1.16,14.51-.8,14.82s-4.79-5.8-6.31-13.67-1.16-14.5.8-14.82S652.82,212.37,654.34,220.23Z" transform="translate(-512.6 -179.89)"/><path class="cls-1" d="M654.16,220.26c1.45,7.5,1.11,13.82-.76,14.12s-4.55-5.53-6-13-1.11-13.81.76-14.11S652.72,212.77,654.16,220.26Z" transform="translate(-512.6 -179.89)"/><path class="cls-1" d="M654,220.29c1.37,7.12,1,13.12-.73,13.41s-4.32-5.26-5.7-12.38-1.05-13.12.72-13.4S652.62,213.17,654,220.29Z" transform="translate(-512.6 -179.89)"/><path class="cls-1" d="M653.83,220.32c1.3,6.74,1,12.43-.68,12.7s-4.11-5-5.41-11.72-1-12.44.68-12.71S652.53,213.57,653.83,220.32Z" transform="translate(-512.6 -179.89)"/><path class="cls-1" d="M653.66,220.35c1.23,6.36.94,11.74-.64,12s-3.88-4.7-5.11-11.07-.95-11.74.64-12S652.43,214,653.66,220.35Z" transform="translate(-512.6 -179.89)"/><path class="cls-1" d="M653.49,220.37c1.16,6,.89,11-.61,11.29s-3.64-4.43-4.81-10.42-.88-11.05.61-11.29S652.33,214.37,653.49,220.37Z" transform="translate(-512.6 -179.89)"/><path class="cls-1" d="M653.32,220.4c1.08,5.62.84,10.36-.57,10.59s-3.42-4.16-4.5-9.78-.84-10.36.57-10.58S652.24,214.78,653.32,220.4Z" transform="translate(-512.6 -179.89)"/><path class="cls-1" d="M653.15,220.42c1,5.25.77,9.68-.53,9.89s-3.19-3.87-4.2-9.13-.78-9.66.53-9.87S652.14,215.18,653.15,220.42Z" transform="translate(-512.6 -179.89)"/><path class="cls-1" d="M653,220.45c.94,4.88.72,9-.49,9.18s-3-3.6-3.91-8.47-.72-9,.5-9.18S652,215.58,653,220.45Z" transform="translate(-512.6 -179.89)"/><path class="cls-1" d="M652.82,220.48c.87,4.49.66,8.29-.47,8.47s-2.72-3.32-3.6-7.82-.66-8.29.46-8.47S651.94,216,652.82,220.48Z" transform="translate(-512.6 -179.89)"/><path class="cls-1" d="M652.64,220.51c.81,4.12.62,7.6-.42,7.76s-2.5-3-3.3-7.17-.61-7.59.42-7.76S651.85,216.38,652.64,220.51Z" transform="translate(-512.6 -179.89)"/><path class="cls-1" d="M652.48,220.54c.72,3.74.55,6.9-.38,7.06s-2.28-2.78-3-6.52-.56-6.91.38-7.06S651.75,216.79,652.48,220.54Z" transform="translate(-512.6 -179.89)"/><path class="cls-1" d="M652.3,220.56c.66,3.37.5,6.22-.33,6.35s-2.05-2.49-2.71-5.86-.49-6.22.34-6.35S651.65,217.19,652.3,220.56Z" transform="translate(-512.6 -179.89)"/><path class="cls-1" d="M652.14,220.59c.58,3,.44,5.52-.31,5.64S650,224,649.43,221s-.44-5.53.3-5.66S651.56,217.59,652.14,220.59Z" transform="translate(-512.6 -179.89)"/><path class="cls-1" d="M652,220.62c.51,2.62.38,4.83-.27,4.93s-1.59-1.93-2.1-4.55-.39-4.84.27-4.95S651.46,218,652,220.62Z" transform="translate(-512.6 -179.89)"/><path class="cls-1" d="M651.8,220.64c.43,2.25.33,4.15-.23,4.24s-1.37-1.66-1.8-3.91-.33-4.15.23-4.24S651.36,218.4,651.8,220.64Z" transform="translate(-512.6 -179.89)"/><path class="cls-1" d="M651.63,220.67c.36,1.88.28,3.45-.19,3.53s-1.14-1.38-1.5-3.26-.28-3.46.19-3.52S651.26,218.8,651.63,220.67Z" transform="translate(-512.6 -179.89)"/><path class="cls-1" d="M651.46,220.69c.29,1.5.22,2.77-.16,2.83s-.91-1.11-1.19-2.61-.23-2.76.15-2.82S651.17,219.2,651.46,220.69Z" transform="translate(-512.6 -179.89)"/><path class="cls-1" d="M651.29,220.72c.22,1.13.17,2.08-.11,2.12s-.69-.83-.9-2-.17-2.07.11-2.12S651.07,219.6,651.29,220.72Z" transform="translate(-512.6 -179.89)"/><path class="cls-1" d="M651.12,220.75c.14.75.11,1.38-.07,1.41s-.46-.55-.61-1.3-.1-1.38.08-1.41S651,220,651.12,220.75Z" transform="translate(-512.6 -179.89)"/><path class="cls-1" d="M651,220.78c.07.37.06.69,0,.71s-.24-.28-.3-.66-.06-.69,0-.7S650.88,220.41,651,220.78Z" transform="translate(-512.6 -179.89)"/></g><path class="cls-2" d="M554.59,194.93s-19.29,0-21.3,9.4c-1.89,8.87-5,43.18-5,43.18L541,246.35Z" transform="translate(-512.6 -179.89)"/><g class="cls-7"><rect class="cls-8" x="15.65" y="15.04" width="26.34" height="52.58"/></g><path class="cls-9" d="M541,246.23l-12.79,1.28s.29-5.7,1.13-12.56h13Z" transform="translate(-512.6 -179.89)"/><path class="cls-10" d="M655.11,246.23l12.79,1.28s-.3-5.7-1.13-12.56h-13Z" transform="translate(-512.6 -179.89)"/><path class="cls-11" d="M537.5,247.51l14.73-49.89c1.3-4.41,6.43-8,11.44-8h68.81c5,0,10.14,3.58,11.44,8l14.73,49.89Z" transform="translate(-512.6 -179.89)"/><path class="cls-12" d="M537.5,246.54l-.16,0-10.25-2.94a.47.47,0,0,1-.35-.6.54.54,0,0,1,.66-.32l10.26,2.94a.47.47,0,0,1,.34.6A.52.52,0,0,1,537.5,246.54Z" transform="translate(-512.6 -179.89)"/><path class="cls-12" d="M538.6,246.61a1.16,1.16,0,0,1-.57-.15l-8.7-5.05a.91.91,0,0,1-.32-1.33,1.11,1.11,0,0,1,1.46-.29l8.7,5a.91.91,0,0,1,.32,1.33A1.08,1.08,0,0,1,538.6,246.61Z" transform="translate(-512.6 -179.89)"/><path class="cls-13" d="M530.27,239.58c0,1.24-1.11,4.51-2.48,4.51H515.08c-1.37,0-2.48-3.27-2.48-4.51h17.67Z" transform="translate(-512.6 -179.89)"/><path class="cls-14" d="M513.36,242.35c.44,1,1,1.74,1.72,1.74h12.71c.67,0,1.28-.79,1.72-1.74Z" transform="translate(-512.6 -179.89)"/><path class="cls-12" d="M659.24,246.54a.52.52,0,0,1-.5-.34.47.47,0,0,1,.35-.6l10.25-2.94a.54.54,0,0,1,.66.32.47.47,0,0,1-.34.6l-10.26,2.94Z" transform="translate(-512.6 -179.89)"/><path class="cls-12" d="M658.14,246.61a1.08,1.08,0,0,1-.89-.45.92.92,0,0,1,.32-1.33l8.7-5a1.11,1.11,0,0,1,1.46.29.91.91,0,0,1-.32,1.33l-8.7,5.05A1.16,1.16,0,0,1,658.14,246.61Z" transform="translate(-512.6 -179.89)"/><path class="cls-15" d="M666.47,239.58c0,1.24,1.11,4.51,2.48,4.51h12.71c1.37,0,2.48-3.27,2.48-4.51H666.47Z" transform="translate(-512.6 -179.89)"/><path class="cls-16" d="M683.39,242.35c-.45,1-1.06,1.74-1.73,1.74H669c-.67,0-1.28-.79-1.72-1.74Z" transform="translate(-512.6 -179.89)"/><g class="cls-17"><path class="cls-18" d="M545.79,244.92h0a.43.43,0,0,1-.4-.46c3.13-26.76,17.78-54.73,17.92-55a.46.46,0,0,1,.61-.19.39.39,0,0,1,.21.55c-.14.28-14.73,28.12-17.84,54.74A.44.44,0,0,1,545.79,244.92Z" transform="translate(-512.6 -179.89)"/></g><g class="cls-17"><path class="cls-18" d="M650.35,244.92a.45.45,0,0,1-.45-.37c-3.11-26.62-17.69-54.46-17.83-54.74a.39.39,0,0,1,.21-.55.45.45,0,0,1,.6.19c.15.28,14.8,28.25,17.93,55a.44.44,0,0,1-.41.46Z" transform="translate(-512.6 -179.89)"/></g><path class="cls-19" d="M658.92,246.5c-20.18-1.2-42.23-3.13-60.84-3.13s-41.26,2.65-60.85,3.13c5.71-1.46,6.13-10.09,11.36-11.55,26.6-3.06,71.5-3.06,98.09,0C651.91,236.41,653.21,245,658.92,246.5Z" transform="translate(-512.6 -179.89)"/><path class="cls-20" d="M530.07,557.29a9.37,9.37,0,0,0,7.26,3.35H658.82a9.51,9.51,0,0,0,6.5-2.51c-8.32-4-35.9-6.9-68.66-6.9C566.24,551.23,540.3,553.75,530.07,557.29Z" transform="translate(-512.6 -179.89)"/><path class="cls-21" d="M667.9,247.51c0-3.21-31.26-4.14-69.83-4.14s-69.82.93-69.82,4.14V552.36a7.76,7.76,0,0,0,1.82,4.93c10.23-3.54,36.17-6.06,66.59-6.06,32.76,0,60.34,2.92,68.66,6.9a7.89,7.89,0,0,0,2.58-5.77Z" transform="translate(-512.6 -179.89)"/><path class="cls-22" d="M598.07,243.37c-38.56,0-69.82.93-69.82,4.14v2.28c0-3.21,31.26-4.14,69.82-4.14s69.83.93,69.83,4.14v-2.28C667.9,244.3,636.64,243.37,598.07,243.37Z" transform="translate(-512.6 -179.89)"/><path class="cls-23" d="M569.68,557.47c-.28-1.76-8.53-2-18.43-.5l-18.1,2.7a9.69,9.69,0,0,0,4.18,1h32.84Z" transform="translate(-512.6 -179.89)"/><path class="cls-24" d="M626.55,557.47c.27-1.76,8.52-2,18.43-.5l18.1,2.7a9.7,9.7,0,0,1-4.19,1H626.06Z" transform="translate(-512.6 -179.89)"/><g class="cls-17"><path class="cls-25" d="M665,558.64c-8.41-4-36.52-6.83-68.36-6.83-29.31,0-56,2.42-66.36,6l-.45-1.08c10.68-3.71,36.91-6.1,66.81-6.1,32,0,60.38,2.86,69,7Z" transform="translate(-512.6 -179.89)"/></g><rect class="cls-26" x="63.64" y="379.41" width="43.67" height="1.34"/><path class="cls-12" d="M593.26,243.37l-4.69,0v2.26h4.69Z" transform="translate(-512.6 -179.89)"/><path class="cls-12" d="M600.42,243.37h-4.69v2.28h4.69Z" transform="translate(-512.6 -179.89)"/><path class="cls-12" d="M602.88,243.37v2.28h4.7v-2.26Z" transform="translate(-512.6 -179.89)"/><path class="cls-27" d="M599.2,232.77q-16.2.36-32.32,2.18c-5.23,1.46-10.46,8.16-15.69,9.62,9-.24,18.38-.55,27.81-.79A91.26,91.26,0,0,1,599.2,232.77Z" transform="translate(-512.6 -179.89)"/><path class="cls-28" d="M635.8,188.84a.75.75,0,0,1-.72.79h-74a.75.75,0,0,1-.72-.79h0a.75.75,0,0,1,.72-.78h74a.75.75,0,0,1,.72.78Z" transform="translate(-512.6 -179.89)"/><g class="cls-17"><path class="cls-18" d="M538.6,550.92a.43.43,0,0,1-.45-.41V250.82a.45.45,0,0,1,.9,0V550.51A.43.43,0,0,1,538.6,550.92Z" transform="translate(-512.6 -179.89)"/></g><g class="cls-17"><path class="cls-29" d="M657.55,550.92a.44.44,0,0,1-.46-.41V250.82a.45.45,0,0,1,.46-.42.44.44,0,0,1,.45.42V550.51A.43.43,0,0,1,657.55,550.92Z" transform="translate(-512.6 -179.89)"/></g><path class="cls-12" d="M649.36,239.33A253.17,253.17,0,0,0,588,233c0-.49,0-1,0-1.46A258.07,258.07,0,0,1,650.36,238Z" transform="translate(-512.6 -179.89)"/><path class="cls-12" d="M610.58,233c0,.88-6.75,1.58-15.09,1.58s-15.09-.7-15.09-1.58,6.76-1.57,15.09-1.57S610.58,232.18,610.58,233Z" transform="translate(-512.6 -179.89)"/></g><text class="cls-30" transform="translate(66.6 153.92)">S<tspan x="0" y="73.39">E</tspan><tspan x="0" y="146.79">U</tspan></text></g></g></svg>