<svg id="图层_1" data-name="图层 1" xmlns="http://www.w3.org/2000/svg" viewBox="0 0 403.54 483.31"><defs><style>.cls-1{fill:#678a4d;}.cls-2,.cls-4{fill:none;}.cls-2{stroke:#f5c71e;stroke-miterlimit:10;stroke-width:3px;}.cls-3{fill:#f5c71e;}.cls-5{fill:#204423;}</style></defs><path class="cls-1" d="M396.75,452.29l-1.39-2.67-1.6-3.12a158.53,158.53,0,0,1-15.27-68.08C378.49,290,450.8,218.24,540,218.24S701.52,290,701.52,378.42,629.21,538.61,540,538.61a161.68,161.68,0,0,1-141.69-83.24Z" transform="translate(-336.17 -179.29)"/><path class="cls-2" d="M396.75,452.29l-1.39-2.67-1.6-3.12a158.53,158.53,0,0,1-15.27-68.08C378.49,290,450.8,218.24,540,218.24S701.52,290,701.52,378.42,629.21,538.61,540,538.61a161.68,161.68,0,0,1-141.69-83.24Z" transform="translate(-336.17 -179.29)"/><polygon class="cls-3" points="137.85 143.91 272.68 143.91 205.75 120.63 137.85 143.91"/><rect class="cls-3" x="138.15" y="149.59" width="134.24" height="11.29"/><rect class="cls-3" x="132.06" y="224.37" width="146.4" height="11.44"/><polygon class="cls-3" points="138.15 273.42 152.89 273.42 152.89 251.15 170.83 251.15 170.83 273.42 196.29 273.42 196.29 251.15 214.24 251.15 214.24 273.42 239.69 273.42 239.69 251.15 257.63 251.15 257.63 273.42 272.38 273.42 272.38 241.3 138.15 241.3 138.15 273.42"/><path class="cls-3" d="M608.56,345.66H474.32v46.15h-6.08v5.64H614.63v-5.64h-6.07Zm-93.45,46.06H488.49V355.07h26.62Zm39.64,0H528.13V355.07h26.62Zm39.64,0H567.76V355.07h26.63Z" transform="translate(-336.17 -179.29)"/><path class="cls-3" d="M711.72,344.74H660.14V320.79H635.26c-1.92-7.22-7.69-22.9-24.07-38.93-17-16.62-37.62-21.31-46.59-22.61v-2.14h4.55V248.2l-1.86-1.42a43.54,43.54,0,0,0-10.37-5.36,69.93,69.93,0,0,0-9.07-2.61V223.13H534.6V238.8a67.26,67.26,0,0,0-9.09,2.63,40.92,40.92,0,0,0-10.34,5.39l-1.82,1.41v8.88h4.46v2.42c-8.94,1.8-30.54,7.46-46.51,22.24a86.84,86.84,0,0,0-24,39h-25v23.95H373a22,22,0,0,0-.23,4.72H427v-24h24a81.08,81.08,0,0,1,23.55-40.27c19.3-17.88,48-21.75,48-21.75V252.4h-4.45v-1.86a37,37,0,0,1,9.1-4.7,68.61,68.61,0,0,1,12.15-3.15V226.94h3.82v15.75a71,71,0,0,1,12.14,3.15,38.88,38.88,0,0,1,9.16,4.7v1.86h-4.55v11.08s27.1,1.31,48,21.75,23.58,40.27,23.58,40.27h23.95v24h57" transform="translate(-336.17 -179.29)"/><polyline class="cls-3" points="360.85 285.67 48.5 285.67 48.5 296.58 358.82 296.58"/><rect class="cls-4" width="403.54" height="483.31"/><path class="cls-5" d="M538.16,179.58c-111.61,0-201.94,89.58-201.94,200.29a199.18,199.18,0,0,0,58.2,140.86L538.16,662,681.48,520.3a198.5,198.5,0,0,0,58.19-140.86C740.11,269.16,649.8,179.58,538.16,179.58ZM396.75,452.29l-1.39-2.67-1.6-3.12a158.53,158.53,0,0,1-15.27-68.08C378.49,290,450.8,218.24,540,218.24S701.52,290,701.52,378.42,629.21,538.61,540,538.61a161.68,161.68,0,0,1-141.69-83.24Z" transform="translate(-336.17 -179.29)"/><path class="cls-3" d="M481.93,510.31l.3-.3a3,3,0,0,0,.81-.75,1.49,1.49,0,0,1,1-.51,1.25,1.25,0,0,1,.72-.12,2.67,2.67,0,0,1,.51-.06h.39s.08-.06.24-.06h.42a1.38,1.38,0,0,1,.48.12,5.06,5.06,0,0,0,.84.12h.6l2.64-1.05q1.26-.51,2.46-1.11a11.07,11.07,0,0,0,2.46-1.32,17.31,17.31,0,0,0,2.1-1.8l.06-.18a.58.58,0,0,0-.36-.54l-.45-.21-.51-.21-.51-.18-.39-.12a2.78,2.78,0,0,0-.54-.06l-7-1.92h-.18l-.42-.06a6.54,6.54,0,0,0-.78-.3,3.49,3.49,0,0,1-.54-.15,3.49,3.49,0,0,0-.54-.15,4.15,4.15,0,0,1-.48-.12l-.36-.12a9.09,9.09,0,0,1-2.16-1.08,10.23,10.23,0,0,1-1.56-1.68,6.37,6.37,0,0,1-1.08-2,6.46,6.46,0,0,1-.36-2,6.05,6.05,0,0,1,1.68-4.38,8.64,8.64,0,0,1,4.2-2.64l1.92-.57a12.84,12.84,0,0,1,2-.39l2-.24a15.47,15.47,0,0,1,1.92-.12,3.71,3.71,0,0,1,2.88,1,3.18,3.18,0,0,1,1.26,2.58,2.19,2.19,0,0,1,0,.36,2.58,2.58,0,0,0,0,.42,3.28,3.28,0,0,1-.12.72,1.67,1.67,0,0,1-.45.51,1.15,1.15,0,0,1-.75.27,1.06,1.06,0,0,1-.81-.24.73.73,0,0,1-.21-.48v-.54q-.06-.18-.57-.18l-1.14,0q-.63,0-1.29.12a10.3,10.3,0,0,0-1.32.27,8.4,8.4,0,0,0-1.2.42,4.25,4.25,0,0,0-1.14.48q-.48.3-1,.66a2.54,2.54,0,0,0-.78,1.86,6.37,6.37,0,0,0,.06.9,2.53,2.53,0,0,0,.24.78,1.71,1.71,0,0,0,1.32,1l10.44,3.06a11.72,11.72,0,0,1,2.4.9,14,14,0,0,1,2.16,1.5,4.18,4.18,0,0,1,.84.84q.36.48.66,1a4,4,0,0,1,.66,2.22,5.86,5.86,0,0,1-.66,2.64,6.73,6.73,0,0,1-1.5,2.34l-1.17,1a9,9,0,0,1-1.17.84,8,8,0,0,1-1.38.81l-1.38.63-9.18,3.66a18.1,18.1,0,0,1-2.1.6,9.93,9.93,0,0,1-2.16.24,5.17,5.17,0,0,1-.84-.06,3.18,3.18,0,0,1-.66-.18q-.6-.3-.66-.54a2,2,0,0,1-.24-1q0-.3,0-.6t0-.66q-.12-.48-.18-.84t-.18-.81a4.67,4.67,0,0,1-.15-.84q0-.39,0-.81Z" transform="translate(-336.17 -179.29)"/><path class="cls-3" d="M527,513.79s0-.08.06-.24a.37.37,0,0,0,.27-.09.25.25,0,0,1,.15-.09v-.06a.92.92,0,0,0-.06-.57,1.85,1.85,0,0,1-.15-.48,2.48,2.48,0,0,1,0-.33q.06-.42.66-.6l1.2-.18.12-1.62-.66-18.66a1.13,1.13,0,0,1,.06-.36,1.56,1.56,0,0,0,.06-.48,1.16,1.16,0,0,0-.18-.6.47.47,0,0,0-.42-.42h.12a.24.24,0,0,0,.18-.06q.36-.12.39-.24a.36.36,0,0,0-.06-.27,1.39,1.39,0,0,0-.21-.27.8.8,0,0,0-.27-.18,1.19,1.19,0,0,1-.3-.18,1.19,1.19,0,0,0-.3-.18l-.27-.12q-.24-.06-.24-.18.06-.42.9-.9a4.69,4.69,0,0,1,1-.36q.48-.12,1-.21t1-.21l1-.24a6,6,0,0,0,1,0l.63,0a4.4,4.4,0,0,0,1.5,0l1.08,0a8.27,8.27,0,0,1,1.2,0,22.8,22.8,0,0,1,2.34,0,3.91,3.91,0,0,1,1-.09l.6,0h.12a.12.12,0,0,0,.09,0,.24.24,0,0,1,.15,0l.33-.15a6,6,0,0,1,.87,0l.51-.24.51-.24a2,2,0,0,0,.57,0,2.3,2.3,0,0,0,.51-.15,1.76,1.76,0,0,1,.66-.12,4.46,4.46,0,0,0,.78.18,8.94,8.94,0,0,1,.9.18,14.16,14.16,0,0,1,1.74.78q.48.3.81.54a1.85,1.85,0,0,1,.51.54,1.23,1.23,0,0,1,.6,1.14,1.69,1.69,0,0,1-.6,1.14q-.3.18-.63.42a1.42,1.42,0,0,0-.45.48v.06l-.12.12a.17.17,0,0,0-.12.06,5.68,5.68,0,0,0-.81.6,4.86,4.86,0,0,1-.51.42,6.29,6.29,0,0,1-1.68.48l-.24,0a1,1,0,0,0-.39,0,5.07,5.07,0,0,1-.54.09l-.54.09a2.48,2.48,0,0,1-.54.06,1.75,1.75,0,0,0-.48.06,1.63,1.63,0,0,1-.45.06.42.42,0,0,0-.18,0,.42.42,0,0,1-.18,0,2.53,2.53,0,0,0-.42.06,2.05,2.05,0,0,0-.39.06l-.54.15a1.54,1.54,0,0,1-.48.09h-.51a3.59,3.59,0,0,1-.54.18l-.54.09a1.41,1.41,0,0,1-.6-.09l-.87.09a5.88,5.88,0,0,1-.84,0,5,5,0,0,0-.78,0,6,6,0,0,0-.63.09q-.72,0-.72.12l-.6,8.88.12,1.68h.24l1.68-.15q.84-.09,1.68-.15a12.4,12.4,0,0,1,1.53,0l1.83.09a3,3,0,0,1,1.32.48q.24.18.57.39a6.74,6.74,0,0,1,.69.51,3.77,3.77,0,0,1,1,1.08q.12.3.24.54a.68.68,0,0,1,.06.48.72.72,0,0,1-.6.72,4.22,4.22,0,0,1-1.38.48h-.66a5.54,5.54,0,0,0-.78.06,6.37,6.37,0,0,0-.72-.06,2.78,2.78,0,0,1-.54-.06,10.11,10.11,0,0,1-2-.18,8.34,8.34,0,0,0-.84-.09q-.48,0-1-.09a2.78,2.78,0,0,1-.54-.06,5.94,5.94,0,0,0-.75-.09,1.17,1.17,0,0,0-.6.06.77.77,0,0,0-.27.33v.21a2.63,2.63,0,0,0,.06.39,3.44,3.44,0,0,1,0,.42,1,1,0,0,0,0,.42,4.39,4.39,0,0,0,0,.54,3.44,3.44,0,0,1,0,.42.55.55,0,0,0,0,.42.4.4,0,0,1,.09.24,5.55,5.55,0,0,0,.18.66q0,.24.6.3a12.59,12.59,0,0,0,2.46,0,11.78,11.78,0,0,0,1.23-.06l1.2-.15,1.23-.15a9.71,9.71,0,0,0,1.14-.18,12.64,12.64,0,0,1,2.46,0,3.42,3.42,0,0,1,1.14.24l.51.15a1.79,1.79,0,0,1,.51.27,1.26,1.26,0,0,1,.66.72.78.78,0,0,1,.42.72,1.13,1.13,0,0,1-.54.9,1,1,0,0,1-.33.21l-.57.21a5.55,5.55,0,0,1-.66.18l-.63.12-.63.12-.6.12a2.39,2.39,0,0,0-1,.24q-.36.12-.75.21l-.87.21q-.72.18-1.5.42a3.84,3.84,0,0,0-.6.12l-.3.09a1.26,1.26,0,0,1-.3,0,1.38,1.38,0,0,0-.48.12,2.49,2.49,0,0,0-.45,0l-.21,0q-1,0-1.86,0l-1.74,0H532.6q-.93,0-1.77-.06a11.1,11.1,0,0,1-1.62-.24,2.69,2.69,0,0,1-.66-.42,1.66,1.66,0,0,1-.48-.66,1.81,1.81,0,0,0-.48-.9l-.06-.06a.94.94,0,0,0-.24-.18.32.32,0,0,1-.15-.12.47.47,0,0,0-.09-.12Z" transform="translate(-336.17 -179.29)"/><path class="cls-3" d="M575.23,507.49a6,6,0,0,1-.39-1,2.42,2.42,0,0,1-.09-1l-.21-1.17a3.61,3.61,0,0,0-.33-1q-.3-2.22-.51-4.32a28.8,28.8,0,0,1-.12-4.14q.09-2,.06-4.11t.15-4.23a1,1,0,0,0,.21-.39,1.53,1.53,0,0,1,.39-.57,1.1,1.1,0,0,1,.27-.54,1,1,0,0,1,.39-.18,9.41,9.41,0,0,1,1.38-.36q.48,0,.87,0t.81,0a2.83,2.83,0,0,1,1.2.6,1.59,1.59,0,0,1,.66,1l.6,13q.12,1.08.3,2.22a8.84,8.84,0,0,0,.66,2.22q.48,1.2.93,2.22l.93,2.1a.49.49,0,0,0,.18.3.52.52,0,0,1,.18.36l.12.06a.71.71,0,0,0,.3-.09,4.4,4.4,0,0,1,.54-.21l.39-.27.27-.15a18.77,18.77,0,0,0,2.34-1.89,9.88,9.88,0,0,0,2.52-4.23,17.91,17.91,0,0,0,.54-2.7,6.2,6.2,0,0,0,0-1q0-.51-.09-.93l-.54-2q-.18-.48-.3-.93t-.27-.93a3.3,3.3,0,0,1-.15-1,8,8,0,0,1,.06-1,4.79,4.79,0,0,1,.3-1.26q.18-.42.36-.81t.36-.75a3.17,3.17,0,0,1,1.05-1.26,2.59,2.59,0,0,1,1.47-.42q.24,0,.42.6a1.61,1.61,0,0,0,.12.6l.24.63a2.63,2.63,0,0,1,.15.6,4.39,4.39,0,0,0,.15.69,2.14,2.14,0,0,0,.27.93,4.38,4.38,0,0,0,.6.72,8,8,0,0,1,.69.78,7.7,7.7,0,0,0,.66.75,5.29,5.29,0,0,1,.66.81,9.19,9.19,0,0,0,.63.84,2.42,2.42,0,0,1,.48.93q.15.54.24,1t.15,1a7.52,7.52,0,0,1-.06,2.16q-.06.48-.09,1t-.09,1.08l-.24,2.22a1.45,1.45,0,0,1-.21.18q-.09.06-.09.12v.3q-.24.48-.39.87l-.33.87a15.11,15.11,0,0,1-.9,2,17,17,0,0,1-1,1.68,6.44,6.44,0,0,1-.69.81,4.89,4.89,0,0,1-.87.69,8.79,8.79,0,0,1-1.11.93l-1.29.93a17.6,17.6,0,0,1-2.64,1.56q-.72.36-1.47.66a9.8,9.8,0,0,1-1.59.48,7.65,7.65,0,0,1-3.18.3,5.17,5.17,0,0,1-.57,0l-.42-.06-.21,0a2.35,2.35,0,0,1-.57-.33,4.87,4.87,0,0,1-.45-.39,6.22,6.22,0,0,0-.45-.51,4.19,4.19,0,0,1-.39-.45l-.33-.45q-.15-.21-.33-.51a3.75,3.75,0,0,0-.36-.51,4.12,4.12,0,0,1-.3-.39Z" transform="translate(-336.17 -179.29)"/></svg>