<svg xmlns="http://www.w3.org/2000/svg" xmlns:xlink="http://www.w3.org/1999/xlink" viewBox="0 0 177.52 393.17"><defs><style>.cls-1{fill:url(#linear-gradient);}.cls-2{fill:url(#linear-gradient-2);}.cls-3{isolation:isolate;}.cls-179,.cls-180,.cls-187,.cls-192,.cls-4{mix-blend-mode:multiply;}.cls-4{fill:url(#linear-gradient-3);}.cls-5{clip-path:url(#clip-path);}.cls-6{fill:url(#linear-gradient-5);}.cls-7{fill:url(#linear-gradient-6);}.cls-8{fill:url(#linear-gradient-7);}.cls-9{fill:url(#linear-gradient-8);}.cls-10{fill:url(#linear-gradient-9);}.cls-11{fill:url(#linear-gradient-10);}.cls-12{fill:url(#linear-gradient-11);}.cls-13{fill:url(#linear-gradient-12);}.cls-14{fill:url(#linear-gradient-13);}.cls-15{fill:url(#linear-gradient-14);}.cls-16{fill:url(#linear-gradient-15);}.cls-17{fill:url(#linear-gradient-16);}.cls-18{fill:url(#linear-gradient-17);}.cls-19{fill:url(#linear-gradient-18);}.cls-20{fill:url(#linear-gradient-19);}.cls-21{fill:url(#linear-gradient-20);}.cls-22{fill:url(#linear-gradient-21);}.cls-23{fill:url(#linear-gradient-22);}.cls-24{fill:url(#linear-gradient-23);}.cls-25{fill:url(#linear-gradient-24);}.cls-26{fill:url(#linear-gradient-25);}.cls-27{fill:url(#linear-gradient-26);}.cls-28{fill:url(#linear-gradient-27);}.cls-29{fill:url(#linear-gradient-28);}.cls-30{fill:url(#linear-gradient-29);}.cls-31{fill:url(#linear-gradient-30);}.cls-32{fill:url(#linear-gradient-31);}.cls-33{fill:url(#linear-gradient-32);}.cls-34{fill:url(#linear-gradient-33);}.cls-35{fill:url(#linear-gradient-34);}.cls-36{fill:url(#linear-gradient-35);}.cls-37{fill:url(#linear-gradient-36);}.cls-38{fill:url(#linear-gradient-37);}.cls-39{fill:url(#linear-gradient-38);}.cls-40{fill:url(#linear-gradient-39);}.cls-41{fill:url(#linear-gradient-40);}.cls-42{fill:url(#linear-gradient-41);}.cls-43{fill:url(#linear-gradient-42);}.cls-44{fill:url(#linear-gradient-43);}.cls-45{fill:url(#linear-gradient-44);}.cls-46{fill:url(#linear-gradient-45);}.cls-47{fill:url(#linear-gradient-46);}.cls-48{fill:url(#linear-gradient-47);}.cls-49{fill:url(#linear-gradient-48);}.cls-50{fill:url(#linear-gradient-49);}.cls-51{fill:url(#linear-gradient-50);}.cls-52{fill:url(#linear-gradient-51);}.cls-53{fill:url(#linear-gradient-52);}.cls-54{fill:url(#linear-gradient-53);}.cls-55{fill:url(#linear-gradient-54);}.cls-56{fill:url(#linear-gradient-55);}.cls-57{fill:url(#linear-gradient-56);}.cls-58{fill:url(#linear-gradient-57);}.cls-59{fill:url(#linear-gradient-58);}.cls-60{fill:url(#linear-gradient-59);}.cls-61{fill:url(#linear-gradient-60);}.cls-62{fill:url(#linear-gradient-61);}.cls-63{fill:url(#linear-gradient-62);}.cls-64{fill:url(#linear-gradient-63);}.cls-65{fill:url(#linear-gradient-64);}.cls-66{fill:url(#linear-gradient-65);}.cls-67{fill:url(#linear-gradient-66);}.cls-68{fill:url(#linear-gradient-67);}.cls-69{fill:url(#linear-gradient-68);}.cls-70{fill:url(#linear-gradient-69);}.cls-71{fill:url(#linear-gradient-70);}.cls-72{fill:url(#linear-gradient-71);}.cls-73{fill:url(#linear-gradient-72);}.cls-74{fill:url(#linear-gradient-73);}.cls-75{fill:url(#linear-gradient-74);}.cls-76{fill:url(#linear-gradient-75);}.cls-77{fill:url(#linear-gradient-76);}.cls-78{fill:url(#linear-gradient-77);}.cls-79{fill:url(#linear-gradient-78);}.cls-80{fill:url(#linear-gradient-79);}.cls-81{fill:url(#linear-gradient-80);}.cls-82{fill:url(#linear-gradient-81);}.cls-83{fill:url(#linear-gradient-82);}.cls-84{fill:url(#linear-gradient-83);}.cls-85{fill:url(#linear-gradient-84);}.cls-86{fill:url(#linear-gradient-85);}.cls-87{fill:url(#linear-gradient-86);}.cls-88{fill:url(#linear-gradient-87);}.cls-89{fill:url(#linear-gradient-88);}.cls-90{fill:url(#linear-gradient-89);}.cls-91{fill:url(#linear-gradient-90);}.cls-92{clip-path:url(#clip-path-2);}.cls-93{fill:url(#linear-gradient-92);}.cls-94{fill:url(#linear-gradient-93);}.cls-95{fill:url(#linear-gradient-94);}.cls-96{fill:url(#linear-gradient-95);}.cls-97{fill:url(#linear-gradient-96);}.cls-98{fill:url(#linear-gradient-97);}.cls-99{fill:url(#linear-gradient-98);}.cls-100{fill:url(#linear-gradient-99);}.cls-101{fill:url(#linear-gradient-100);}.cls-102{fill:url(#linear-gradient-101);}.cls-103{fill:url(#linear-gradient-102);}.cls-104{fill:url(#linear-gradient-103);}.cls-105{fill:url(#linear-gradient-104);}.cls-106{fill:url(#linear-gradient-105);}.cls-107{fill:url(#linear-gradient-106);}.cls-108{fill:url(#linear-gradient-107);}.cls-109{fill:url(#linear-gradient-108);}.cls-110{fill:url(#linear-gradient-109);}.cls-111{fill:url(#linear-gradient-110);}.cls-112{fill:url(#linear-gradient-111);}.cls-113{fill:url(#linear-gradient-112);}.cls-114{fill:url(#linear-gradient-113);}.cls-115{fill:url(#linear-gradient-114);}.cls-116{fill:url(#linear-gradient-115);}.cls-117{fill:url(#linear-gradient-116);}.cls-118{fill:url(#linear-gradient-117);}.cls-119{fill:url(#linear-gradient-118);}.cls-120{fill:url(#linear-gradient-119);}.cls-121{fill:url(#linear-gradient-120);}.cls-122{fill:url(#linear-gradient-121);}.cls-123{fill:url(#linear-gradient-122);}.cls-124{fill:url(#linear-gradient-123);}.cls-125{fill:url(#linear-gradient-124);}.cls-126{fill:url(#linear-gradient-125);}.cls-127{fill:url(#linear-gradient-126);}.cls-128{fill:url(#linear-gradient-127);}.cls-129{fill:url(#linear-gradient-128);}.cls-130{fill:url(#linear-gradient-129);}.cls-131{fill:url(#linear-gradient-130);}.cls-132{fill:url(#linear-gradient-131);}.cls-133{fill:url(#linear-gradient-132);}.cls-134{fill:url(#linear-gradient-133);}.cls-135{fill:url(#linear-gradient-134);}.cls-136{fill:url(#linear-gradient-135);}.cls-137{fill:url(#linear-gradient-136);}.cls-138{fill:url(#linear-gradient-137);}.cls-139{fill:url(#linear-gradient-138);}.cls-140{fill:url(#linear-gradient-139);}.cls-141{fill:url(#linear-gradient-140);}.cls-142{fill:url(#linear-gradient-141);}.cls-143{fill:url(#linear-gradient-142);}.cls-144{fill:url(#linear-gradient-143);}.cls-145{fill:url(#linear-gradient-144);}.cls-146{fill:url(#linear-gradient-145);}.cls-147{fill:url(#linear-gradient-146);}.cls-148{fill:url(#linear-gradient-147);}.cls-149{fill:url(#linear-gradient-148);}.cls-150{fill:url(#linear-gradient-149);}.cls-151{fill:url(#linear-gradient-150);}.cls-152{fill:url(#linear-gradient-151);}.cls-153{fill:url(#linear-gradient-152);}.cls-154{fill:url(#linear-gradient-153);}.cls-155{fill:url(#linear-gradient-154);}.cls-156{fill:url(#linear-gradient-155);}.cls-157{fill:url(#linear-gradient-156);}.cls-158{fill:url(#linear-gradient-157);}.cls-159{fill:url(#linear-gradient-158);}.cls-160{fill:url(#linear-gradient-159);}.cls-161{fill:url(#linear-gradient-160);}.cls-162{fill:url(#linear-gradient-161);}.cls-163{fill:url(#linear-gradient-162);}.cls-164{fill:url(#linear-gradient-163);}.cls-165{fill:url(#linear-gradient-164);}.cls-166{fill:url(#linear-gradient-165);}.cls-167{fill:url(#linear-gradient-166);}.cls-168{fill:url(#linear-gradient-167);}.cls-169{fill:url(#linear-gradient-168);}.cls-170{fill:url(#linear-gradient-169);}.cls-171{fill:url(#linear-gradient-170);}.cls-172{fill:url(#linear-gradient-171);}.cls-173{fill:url(#linear-gradient-172);}.cls-174{fill:url(#linear-gradient-173);}.cls-175{fill:url(#linear-gradient-174);}.cls-176{fill:url(#linear-gradient-175);}.cls-177{fill:url(#linear-gradient-176);}.cls-178{fill:url(#linear-gradient-177);}.cls-179{fill:url(#linear-gradient-178);}.cls-180{fill:url(#linear-gradient-179);}.cls-181{fill:url(#未命名的渐变_325);}.cls-182{fill:#040000;}.cls-183{fill:url(#未命名的渐变_304);}.cls-184{fill:url(#linear-gradient-180);}.cls-185{fill:url(#未命名的渐变_283);}.cls-186{fill:url(#linear-gradient-181);}.cls-188{fill:#c5c1a9;}.cls-189{fill:url(#linear-gradient-182);}.cls-190{fill:url(#未命名的渐变_246);}.cls-191{fill:url(#未命名的渐变_10);}.cls-192{fill:url(#未命名的渐变_308);}.cls-193{fill:url(#linear-gradient-183);}.cls-194{fill:url(#linear-gradient-184);}.cls-195{fill:#b4b3b3;}.cls-196{fill:url(#linear-gradient-185);}.cls-197{mix-blend-mode:screen;fill:url(#linear-gradient-186);}.cls-198{fill:url(#linear-gradient-187);}.cls-199{font-size:61.16px;fill:#045d32;font-family:Broadway;}</style><linearGradient id="linear-gradient" x1="609.3" y1="296.08" x2="636.56" y2="296.08" gradientUnits="userSpaceOnUse"><stop offset="0" stop-color="#363b39"/><stop offset="1" stop-color="#1b1c1c"/></linearGradient><linearGradient id="linear-gradient-2" x1="492.04" y1="296.08" x2="519.3" y2="296.08" xlink:href="#linear-gradient"/><linearGradient id="linear-gradient-3" x1="604.03" y1="132.97" x2="653.08" y2="132.22" gradientTransform="matrix(1, 0, 0, -1, 0, 594.1)" gradientUnits="userSpaceOnUse"><stop offset="0" stop-color="#242424"/><stop offset="1" stop-color="#fff"/></linearGradient><clipPath id="clip-path" transform="translate(-475.84 -253.34)"><path class="cls-1" d="M609.3,269s20,0,22,9.7c2,9.16,5.22,44.57,5.22,44.57L623.33,322Z"/></clipPath><linearGradient id="linear-gradient-5" x1="133.45" y1="42.74" x2="160.71" y2="42.74" xlink:href="#linear-gradient"/><linearGradient id="linear-gradient-6" x1="603.96" y1="298.24" x2="637.68" y2="298.24" xlink:href="#linear-gradient"/><linearGradient id="linear-gradient-7" x1="604.14" y1="299.87" x2="637.46" y2="299.87" xlink:href="#linear-gradient"/><linearGradient id="linear-gradient-8" x1="604.31" y1="299.82" x2="637.23" y2="299.82" xlink:href="#linear-gradient"/><linearGradient id="linear-gradient-9" x1="604.49" y1="295.66" x2="637.01" y2="295.66" xlink:href="#linear-gradient"/><linearGradient id="linear-gradient-10" x1="604.66" y1="295.66" x2="636.79" y2="295.66" xlink:href="#linear-gradient"/><linearGradient id="linear-gradient-11" x1="604.84" y1="295.66" x2="636.57" y2="295.66" xlink:href="#linear-gradient"/><linearGradient id="linear-gradient-12" x1="605.01" y1="295.66" x2="636.35" y2="295.66" xlink:href="#linear-gradient"/><linearGradient id="linear-gradient-13" x1="605.19" y1="295.66" x2="636.13" y2="295.66" xlink:href="#linear-gradient"/><linearGradient id="linear-gradient-14" x1="605.36" y1="295.66" x2="635.91" y2="295.66" xlink:href="#linear-gradient"/><linearGradient id="linear-gradient-15" x1="605.53" y1="295.66" x2="635.68" y2="295.66" xlink:href="#linear-gradient"/><linearGradient id="linear-gradient-16" x1="605.71" y1="295.66" x2="635.46" y2="295.66" xlink:href="#linear-gradient"/><linearGradient id="linear-gradient-17" x1="605.89" y1="295.66" x2="635.24" y2="295.66" xlink:href="#linear-gradient"/><linearGradient id="linear-gradient-18" x1="606.06" y1="295.66" x2="635.02" y2="295.66" xlink:href="#linear-gradient"/><linearGradient id="linear-gradient-19" x1="606.23" y1="295.66" x2="634.8" y2="295.66" xlink:href="#linear-gradient"/><linearGradient id="linear-gradient-20" x1="606.41" y1="295.66" x2="634.58" y2="295.66" xlink:href="#linear-gradient"/><linearGradient id="linear-gradient-21" x1="606.59" y1="295.66" x2="634.35" y2="295.66" xlink:href="#linear-gradient"/><linearGradient id="linear-gradient-22" x1="606.76" y1="295.66" x2="634.13" y2="295.66" xlink:href="#linear-gradient"/><linearGradient id="linear-gradient-23" x1="606.94" y1="295.66" x2="633.91" y2="295.66" xlink:href="#linear-gradient"/><linearGradient id="linear-gradient-24" x1="604" y1="295.66" x2="633.69" y2="295.66" xlink:href="#linear-gradient"/><linearGradient id="linear-gradient-25" x1="604.23" y1="295.66" x2="633.47" y2="295.66" xlink:href="#linear-gradient"/><linearGradient id="linear-gradient-26" x1="604.44" y1="295.66" x2="633.25" y2="295.66" xlink:href="#linear-gradient"/><linearGradient id="linear-gradient-27" x1="604.67" y1="295.66" x2="633.02" y2="295.66" xlink:href="#linear-gradient"/><linearGradient id="linear-gradient-28" x1="604.89" y1="295.66" x2="632.8" y2="295.66" xlink:href="#linear-gradient"/><linearGradient id="linear-gradient-29" x1="605.11" y1="301.4" x2="632.58" y2="301.4" xlink:href="#linear-gradient"/><linearGradient id="linear-gradient-30" x1="605.33" y1="301.31" x2="632.36" y2="301.31" xlink:href="#linear-gradient"/><linearGradient id="linear-gradient-31" x1="605.55" y1="295.67" x2="632.14" y2="295.67" xlink:href="#linear-gradient"/><linearGradient id="linear-gradient-32" x1="605.77" y1="295.66" x2="631.92" y2="295.66" xlink:href="#linear-gradient"/><linearGradient id="linear-gradient-33" x1="606" y1="295.66" x2="631.69" y2="295.66" xlink:href="#linear-gradient"/><linearGradient id="linear-gradient-34" x1="606.22" y1="295.66" x2="631.47" y2="295.66" xlink:href="#linear-gradient"/><linearGradient id="linear-gradient-35" x1="606.44" y1="295.66" x2="631.25" y2="295.66" xlink:href="#linear-gradient"/><linearGradient id="linear-gradient-36" x1="606.66" y1="295.66" x2="631.03" y2="295.66" xlink:href="#linear-gradient"/><linearGradient id="linear-gradient-37" x1="606.88" y1="295.66" x2="630.81" y2="295.66" xlink:href="#linear-gradient"/><linearGradient id="linear-gradient-38" x1="607.1" y1="295.66" x2="630.59" y2="295.66" xlink:href="#linear-gradient"/><linearGradient id="linear-gradient-39" x1="607.33" y1="295.66" x2="630.37" y2="295.66" xlink:href="#linear-gradient"/><linearGradient id="linear-gradient-40" x1="607.55" y1="295.66" x2="630.14" y2="295.66" xlink:href="#linear-gradient"/><linearGradient id="linear-gradient-41" x1="607.77" y1="295.66" x2="629.92" y2="295.66" xlink:href="#linear-gradient"/><linearGradient id="linear-gradient-42" x1="607.99" y1="295.66" x2="629.7" y2="295.66" xlink:href="#linear-gradient"/><linearGradient id="linear-gradient-43" x1="608.21" y1="295.66" x2="629.48" y2="295.66" xlink:href="#linear-gradient"/><linearGradient id="linear-gradient-44" x1="608.43" y1="295.66" x2="629.26" y2="295.66" xlink:href="#linear-gradient"/><linearGradient id="linear-gradient-45" x1="608.65" y1="295.66" x2="629.04" y2="295.66" xlink:href="#linear-gradient"/><linearGradient id="linear-gradient-46" x1="608.88" y1="295.66" x2="628.81" y2="295.66" xlink:href="#linear-gradient"/><linearGradient id="linear-gradient-47" x1="609.1" y1="295.66" x2="628.59" y2="295.66" xlink:href="#linear-gradient"/><linearGradient id="linear-gradient-48" x1="609.32" y1="295.66" x2="628.37" y2="295.66" xlink:href="#linear-gradient"/><linearGradient id="linear-gradient-49" x1="609.54" y1="295.66" x2="628.15" y2="295.66" xlink:href="#linear-gradient"/><linearGradient id="linear-gradient-50" x1="609.76" y1="295.66" x2="627.93" y2="295.66" xlink:href="#linear-gradient"/><linearGradient id="linear-gradient-51" x1="609.99" y1="295.66" x2="627.71" y2="295.66" xlink:href="#linear-gradient"/><linearGradient id="linear-gradient-52" x1="610.21" y1="295.66" x2="627.49" y2="295.66" xlink:href="#linear-gradient"/><linearGradient id="linear-gradient-53" x1="610.43" y1="295.66" x2="627.27" y2="295.66" xlink:href="#linear-gradient"/><linearGradient id="linear-gradient-54" x1="610.65" y1="295.66" x2="627.04" y2="295.66" xlink:href="#linear-gradient"/><linearGradient id="linear-gradient-55" x1="610.87" y1="295.66" x2="626.82" y2="295.66" xlink:href="#linear-gradient"/><linearGradient id="linear-gradient-56" x1="611.09" y1="295.66" x2="626.6" y2="295.66" xlink:href="#linear-gradient"/><linearGradient id="linear-gradient-57" x1="611.31" y1="295.66" x2="626.38" y2="295.66" xlink:href="#linear-gradient"/><linearGradient id="linear-gradient-58" x1="611.54" y1="295.66" x2="626.15" y2="295.66" xlink:href="#linear-gradient"/><linearGradient id="linear-gradient-59" x1="611.76" y1="295.66" x2="625.93" y2="295.66" xlink:href="#linear-gradient"/><linearGradient id="linear-gradient-60" x1="611.98" y1="295.66" x2="625.71" y2="295.66" xlink:href="#linear-gradient"/><linearGradient id="linear-gradient-61" x1="612.2" y1="295.66" x2="625.49" y2="295.66" xlink:href="#linear-gradient"/><linearGradient id="linear-gradient-62" x1="612.42" y1="295.66" x2="625.27" y2="295.66" xlink:href="#linear-gradient"/><linearGradient id="linear-gradient-63" x1="612.65" y1="295.66" x2="625.05" y2="295.66" xlink:href="#linear-gradient"/><linearGradient id="linear-gradient-64" x1="612.87" y1="295.66" x2="624.83" y2="295.66" xlink:href="#linear-gradient"/><linearGradient id="linear-gradient-65" x1="613.09" y1="295.66" x2="624.61" y2="295.66" xlink:href="#linear-gradient"/><linearGradient id="linear-gradient-66" x1="613.31" y1="295.66" x2="624.39" y2="295.66" xlink:href="#linear-gradient"/><linearGradient id="linear-gradient-67" x1="613.53" y1="295.66" x2="624.16" y2="295.66" xlink:href="#linear-gradient"/><linearGradient id="linear-gradient-68" x1="613.75" y1="295.66" x2="623.94" y2="295.66" xlink:href="#linear-gradient"/><linearGradient id="linear-gradient-69" x1="613.97" y1="295.66" x2="623.72" y2="295.66" xlink:href="#linear-gradient"/><linearGradient id="linear-gradient-70" x1="614.19" y1="295.66" x2="623.5" y2="295.66" xlink:href="#linear-gradient"/><linearGradient id="linear-gradient-71" x1="614.42" y1="295.66" x2="623.27" y2="295.66" xlink:href="#linear-gradient"/><linearGradient id="linear-gradient-72" x1="614.64" y1="295.66" x2="623.05" y2="295.66" xlink:href="#linear-gradient"/><linearGradient id="linear-gradient-73" x1="614.86" y1="295.66" x2="622.83" y2="295.66" xlink:href="#linear-gradient"/><linearGradient id="linear-gradient-74" x1="615.08" y1="295.66" x2="622.61" y2="295.66" xlink:href="#linear-gradient"/><linearGradient id="linear-gradient-75" x1="615.3" y1="295.66" x2="622.39" y2="295.66" xlink:href="#linear-gradient"/><linearGradient id="linear-gradient-76" x1="615.52" y1="295.66" x2="622.17" y2="295.66" xlink:href="#linear-gradient"/><linearGradient id="linear-gradient-77" x1="615.75" y1="295.66" x2="621.95" y2="295.66" xlink:href="#linear-gradient"/><linearGradient id="linear-gradient-78" x1="615.97" y1="295.66" x2="621.73" y2="295.66" xlink:href="#linear-gradient"/><linearGradient id="linear-gradient-79" x1="616.19" y1="295.66" x2="621.51" y2="295.66" xlink:href="#linear-gradient"/><linearGradient id="linear-gradient-80" x1="616.41" y1="295.66" x2="621.28" y2="295.66" xlink:href="#linear-gradient"/><linearGradient id="linear-gradient-81" x1="616.63" y1="295.66" x2="621.06" y2="295.66" xlink:href="#linear-gradient"/><linearGradient id="linear-gradient-82" x1="616.85" y1="295.66" x2="620.84" y2="295.66" xlink:href="#linear-gradient"/><linearGradient id="linear-gradient-83" x1="617.07" y1="295.66" x2="620.62" y2="295.66" xlink:href="#linear-gradient"/><linearGradient id="linear-gradient-84" x1="617.29" y1="295.66" x2="620.4" y2="295.66" xlink:href="#linear-gradient"/><linearGradient id="linear-gradient-85" x1="617.52" y1="295.66" x2="620.17" y2="295.66" xlink:href="#linear-gradient"/><linearGradient id="linear-gradient-86" x1="617.74" y1="295.66" x2="619.95" y2="295.66" xlink:href="#linear-gradient"/><linearGradient id="linear-gradient-87" x1="617.96" y1="295.66" x2="619.73" y2="295.66" xlink:href="#linear-gradient"/><linearGradient id="linear-gradient-88" x1="618.18" y1="295.66" x2="619.51" y2="295.66" xlink:href="#linear-gradient"/><linearGradient id="linear-gradient-89" x1="618.41" y1="295.66" x2="619.29" y2="295.66" xlink:href="#linear-gradient"/><linearGradient id="linear-gradient-90" x1="618.63" y1="295.66" x2="619.07" y2="295.66" xlink:href="#linear-gradient"/><clipPath id="clip-path-2" transform="translate(-475.84 -253.34)"><path class="cls-2" d="M519.3,269s-20,0-22,9.7c-2,9.16-5.22,44.57-5.22,44.57L505.27,322Z"/></clipPath><linearGradient id="linear-gradient-92" x1="16.19" y1="42.74" x2="43.45" y2="42.74" xlink:href="#linear-gradient"/><linearGradient id="linear-gradient-93" x1="493.11" y1="295.76" x2="515.3" y2="295.76" xlink:href="#linear-gradient"/><linearGradient id="linear-gradient-94" x1="493.24" y1="295.67" x2="515.18" y2="295.67" xlink:href="#linear-gradient"/><linearGradient id="linear-gradient-95" x1="493.37" y1="295.6" x2="515.04" y2="295.6" xlink:href="#linear-gradient"/><linearGradient id="linear-gradient-96" x1="493.5" y1="295.52" x2="514.92" y2="295.52" xlink:href="#linear-gradient"/><linearGradient id="linear-gradient-97" x1="493.64" y1="295.45" x2="514.79" y2="295.45" xlink:href="#linear-gradient"/><linearGradient id="linear-gradient-98" x1="493.77" y1="295.37" x2="514.66" y2="295.37" xlink:href="#linear-gradient"/><linearGradient id="linear-gradient-99" x1="493.9" y1="295.29" x2="514.53" y2="295.29" xlink:href="#linear-gradient"/><linearGradient id="linear-gradient-100" x1="494.03" y1="295.21" x2="514.39" y2="295.21" xlink:href="#linear-gradient"/><linearGradient id="linear-gradient-101" x1="494.16" y1="295.14" x2="514.26" y2="295.14" xlink:href="#linear-gradient"/><linearGradient id="linear-gradient-102" x1="494.29" y1="295.06" x2="514.14" y2="295.06" xlink:href="#linear-gradient"/><linearGradient id="linear-gradient-103" x1="494.43" y1="294.99" x2="514.01" y2="294.99" xlink:href="#linear-gradient"/><linearGradient id="linear-gradient-104" x1="494.55" y1="294.91" x2="513.88" y2="294.91" xlink:href="#linear-gradient"/><linearGradient id="linear-gradient-105" x1="494.69" y1="294.83" x2="513.75" y2="294.83" xlink:href="#linear-gradient"/><linearGradient id="linear-gradient-106" x1="494.82" y1="294.76" x2="513.62" y2="294.76" xlink:href="#linear-gradient"/><linearGradient id="linear-gradient-107" x1="494.95" y1="294.68" x2="513.49" y2="294.68" xlink:href="#linear-gradient"/><linearGradient id="linear-gradient-108" x1="495.08" y1="294.6" x2="513.36" y2="294.6" xlink:href="#linear-gradient"/><linearGradient id="linear-gradient-109" x1="495.22" y1="294.53" x2="513.23" y2="294.53" xlink:href="#linear-gradient"/><linearGradient id="linear-gradient-110" x1="495.34" y1="294.45" x2="513.1" y2="294.45" xlink:href="#linear-gradient"/><linearGradient id="linear-gradient-111" x1="495.48" y1="294.37" x2="512.97" y2="294.37" xlink:href="#linear-gradient"/><linearGradient id="linear-gradient-112" x1="495.61" y1="294.3" x2="512.84" y2="294.3" xlink:href="#linear-gradient"/><linearGradient id="linear-gradient-113" x1="495.74" y1="289.24" x2="512.83" y2="289.24" xlink:href="#linear-gradient"/><linearGradient id="linear-gradient-114" x1="495.87" y1="289.24" x2="512.7" y2="289.24" xlink:href="#linear-gradient"/><linearGradient id="linear-gradient-115" x1="496" y1="289.24" x2="512.57" y2="289.24" xlink:href="#linear-gradient"/><linearGradient id="linear-gradient-116" x1="496.13" y1="289.24" x2="512.43" y2="289.24" xlink:href="#linear-gradient"/><linearGradient id="linear-gradient-117" x1="496.27" y1="289.24" x2="512.3" y2="289.24" xlink:href="#linear-gradient"/><linearGradient id="linear-gradient-118" x1="496.4" y1="289.24" x2="512.17" y2="289.24" xlink:href="#linear-gradient"/><linearGradient id="linear-gradient-119" x1="496.53" y1="289.24" x2="512.04" y2="289.24" xlink:href="#linear-gradient"/><linearGradient id="linear-gradient-120" x1="496.66" y1="289.24" x2="511.91" y2="289.24" xlink:href="#linear-gradient"/><linearGradient id="linear-gradient-121" x1="496.79" y1="289.24" x2="511.78" y2="289.24" xlink:href="#linear-gradient"/><linearGradient id="linear-gradient-122" x1="496.92" y1="289.24" x2="511.65" y2="289.24" xlink:href="#linear-gradient"/><linearGradient id="linear-gradient-123" x1="497.06" y1="289.24" x2="511.51" y2="289.24" xlink:href="#linear-gradient"/><linearGradient id="linear-gradient-124" x1="497.19" y1="289.24" x2="511.38" y2="289.24" xlink:href="#linear-gradient"/><linearGradient id="linear-gradient-125" x1="497.31" y1="289.24" x2="511.25" y2="289.24" xlink:href="#linear-gradient"/><linearGradient id="linear-gradient-126" x1="497.45" y1="289.24" x2="511.12" y2="289.24" xlink:href="#linear-gradient"/><linearGradient id="linear-gradient-127" x1="497.58" y1="289.24" x2="510.99" y2="289.24" xlink:href="#linear-gradient"/><linearGradient id="linear-gradient-128" x1="497.71" y1="289.24" x2="510.86" y2="289.24" xlink:href="#linear-gradient"/><linearGradient id="linear-gradient-129" x1="497.84" y1="289.24" x2="510.73" y2="289.24" xlink:href="#linear-gradient"/><linearGradient id="linear-gradient-130" x1="497.98" y1="289.24" x2="510.59" y2="289.24" xlink:href="#linear-gradient"/><linearGradient id="linear-gradient-131" x1="498.1" y1="289.24" x2="510.46" y2="289.24" xlink:href="#linear-gradient"/><linearGradient id="linear-gradient-132" x1="498.23" y1="289.24" x2="510.33" y2="289.24" xlink:href="#linear-gradient"/><linearGradient id="linear-gradient-133" x1="498.37" y1="289.24" x2="510.2" y2="289.24" xlink:href="#linear-gradient"/><linearGradient id="linear-gradient-134" x1="498.5" y1="289.24" x2="510.07" y2="289.24" xlink:href="#linear-gradient"/><linearGradient id="linear-gradient-135" x1="498.63" y1="289.24" x2="509.94" y2="289.24" xlink:href="#linear-gradient"/><linearGradient id="linear-gradient-136" x1="498.76" y1="289.24" x2="509.81" y2="289.24" xlink:href="#linear-gradient"/><linearGradient id="linear-gradient-137" x1="498.89" y1="289.24" x2="509.67" y2="289.24" xlink:href="#linear-gradient"/><linearGradient id="linear-gradient-138" x1="499.02" y1="289.24" x2="509.54" y2="289.24" xlink:href="#linear-gradient"/><linearGradient id="linear-gradient-139" x1="499.16" y1="289.24" x2="509.41" y2="289.24" xlink:href="#linear-gradient"/><linearGradient id="linear-gradient-140" x1="499.29" y1="289.24" x2="509.28" y2="289.24" xlink:href="#linear-gradient"/><linearGradient id="linear-gradient-141" x1="499.42" y1="289.24" x2="509.15" y2="289.24" xlink:href="#linear-gradient"/><linearGradient id="linear-gradient-142" x1="499.55" y1="289.24" x2="509.02" y2="289.24" xlink:href="#linear-gradient"/><linearGradient id="linear-gradient-143" x1="499.68" y1="289.24" x2="508.89" y2="289.24" xlink:href="#linear-gradient"/><linearGradient id="linear-gradient-144" x1="499.81" y1="289.24" x2="508.75" y2="289.24" xlink:href="#linear-gradient"/><linearGradient id="linear-gradient-145" x1="499.95" y1="289.24" x2="508.62" y2="289.24" xlink:href="#linear-gradient"/><linearGradient id="linear-gradient-146" x1="500.08" y1="289.24" x2="508.49" y2="289.24" xlink:href="#linear-gradient"/><linearGradient id="linear-gradient-147" x1="500.21" y1="289.24" x2="508.36" y2="289.24" xlink:href="#linear-gradient"/><linearGradient id="linear-gradient-148" x1="500.34" y1="289.24" x2="508.23" y2="289.24" xlink:href="#linear-gradient"/><linearGradient id="linear-gradient-149" x1="500.47" y1="289.24" x2="508.1" y2="289.24" xlink:href="#linear-gradient"/><linearGradient id="linear-gradient-150" x1="500.6" y1="289.24" x2="507.97" y2="289.24" xlink:href="#linear-gradient"/><linearGradient id="linear-gradient-151" x1="500.74" y1="289.24" x2="507.83" y2="289.24" xlink:href="#linear-gradient"/><linearGradient id="linear-gradient-152" x1="500.86" y1="289.24" x2="507.7" y2="289.24" xlink:href="#linear-gradient"/><linearGradient id="linear-gradient-153" x1="501" y1="289.24" x2="507.57" y2="289.24" xlink:href="#linear-gradient"/><linearGradient id="linear-gradient-154" x1="501.13" y1="289.24" x2="507.44" y2="289.24" xlink:href="#linear-gradient"/><linearGradient id="linear-gradient-155" x1="501.26" y1="289.24" x2="507.31" y2="289.24" xlink:href="#linear-gradient"/><linearGradient id="linear-gradient-156" x1="501.39" y1="289.24" x2="507.18" y2="289.24" xlink:href="#linear-gradient"/><linearGradient id="linear-gradient-157" x1="501.52" y1="289.24" x2="507.05" y2="289.24" xlink:href="#linear-gradient"/><linearGradient id="linear-gradient-158" x1="501.66" y1="289.24" x2="506.91" y2="289.24" xlink:href="#linear-gradient"/><linearGradient id="linear-gradient-159" x1="501.79" y1="289.24" x2="506.78" y2="289.24" xlink:href="#linear-gradient"/><linearGradient id="linear-gradient-160" x1="501.92" y1="289.24" x2="506.65" y2="289.24" xlink:href="#linear-gradient"/><linearGradient id="linear-gradient-161" x1="502.05" y1="289.24" x2="506.52" y2="289.24" xlink:href="#linear-gradient"/><linearGradient id="linear-gradient-162" x1="502.18" y1="289.24" x2="506.39" y2="289.24" xlink:href="#linear-gradient"/><linearGradient id="linear-gradient-163" x1="502.31" y1="289.24" x2="506.26" y2="289.24" xlink:href="#linear-gradient"/><linearGradient id="linear-gradient-164" x1="502.44" y1="289.24" x2="506.13" y2="289.24" xlink:href="#linear-gradient"/><linearGradient id="linear-gradient-165" x1="502.58" y1="289.24" x2="505.99" y2="289.24" xlink:href="#linear-gradient"/><linearGradient id="linear-gradient-166" x1="502.7" y1="289.24" x2="505.86" y2="289.24" xlink:href="#linear-gradient"/><linearGradient id="linear-gradient-167" x1="502.84" y1="289.24" x2="505.73" y2="289.24" xlink:href="#linear-gradient"/><linearGradient id="linear-gradient-168" x1="502.97" y1="289.24" x2="505.6" y2="289.24" xlink:href="#linear-gradient"/><linearGradient id="linear-gradient-169" x1="503.1" y1="289.24" x2="505.47" y2="289.24" xlink:href="#linear-gradient"/><linearGradient id="linear-gradient-170" x1="503.23" y1="289.24" x2="505.33" y2="289.24" xlink:href="#linear-gradient"/><linearGradient id="linear-gradient-171" x1="503.36" y1="289.24" x2="505.2" y2="289.24" xlink:href="#linear-gradient"/><linearGradient id="linear-gradient-172" x1="503.5" y1="289.24" x2="505.07" y2="289.24" xlink:href="#linear-gradient"/><linearGradient id="linear-gradient-173" x1="503.62" y1="289.24" x2="504.94" y2="289.24" xlink:href="#linear-gradient"/><linearGradient id="linear-gradient-174" x1="503.76" y1="289.24" x2="504.81" y2="289.24" xlink:href="#linear-gradient"/><linearGradient id="linear-gradient-175" x1="503.89" y1="289.24" x2="504.68" y2="289.24" xlink:href="#linear-gradient"/><linearGradient id="linear-gradient-176" x1="504.02" y1="289.24" x2="504.55" y2="289.24" xlink:href="#linear-gradient"/><linearGradient id="linear-gradient-177" x1="504.15" y1="289.24" x2="504.41" y2="289.24" xlink:href="#linear-gradient"/><linearGradient id="linear-gradient-178" x1="510.93" y1="322.12" x2="510.93" y2="313.63" gradientTransform="matrix(-1, 0, 0, 1, 1010.26, 0)" gradientUnits="userSpaceOnUse"><stop offset="0" stop-color="#ccc"/><stop offset="1" stop-color="#fff"/></linearGradient><linearGradient id="linear-gradient-179" x1="629.27" y1="322.12" x2="629.27" y2="313.63" gradientTransform="matrix(1, 0, 0, 1, 0, 0)" xlink:href="#linear-gradient-178"/><linearGradient id="未命名的渐变_325" x1="500.58" y1="293.35" x2="637.52" y2="293.35" gradientTransform="translate(43.27) scale(0.92 1)" gradientUnits="userSpaceOnUse"><stop offset="0" stop-color="#040000"/><stop offset="0" stop-color="#080404"/><stop offset="0.02" stop-color="#636161"/><stop offset="0.03" stop-color="#a6a5a5"/><stop offset="0.04" stop-color="#cfcfcf"/><stop offset="0.04" stop-color="#dfdfdf"/><stop offset="0.05" stop-color="#d9d9d9"/><stop offset="0.05" stop-color="#d0d1d1"/><stop offset="0.06" stop-color="#cecfcf"/><stop offset="0.23" stop-color="#e3e4e4"/><stop offset="0.47" stop-color="#fff"/><stop offset="0.86" stop-color="#fff"/><stop offset="0.93" stop-color="#fff"/><stop offset="0.94" stop-color="#dedede"/><stop offset="0.97" stop-color="#8a8888"/><stop offset="1" stop-color="#060202"/><stop offset="1" stop-color="#040000"/></linearGradient><radialGradient id="未命名的渐变_304" cx="485.08" cy="17184.35" r="11.6" gradientTransform="translate(0 -4760.08) scale(1 0.3)" gradientUnits="userSpaceOnUse"><stop offset="0" stop-color="#fff"/><stop offset="0.14" stop-color="#e2e1e1"/><stop offset="0.45" stop-color="#989696"/><stop offset="0.89" stop-color="#221e1e"/><stop offset="1" stop-color="#040000"/></radialGradient><linearGradient id="linear-gradient-180" x1="476.62" y1="318.8" x2="493.34" y2="318.8" xlink:href="#linear-gradient"/><radialGradient id="未命名的渐变_283" cx="354.85" cy="17184.35" r="11.6" gradientTransform="matrix(-1, 0, 0, 0.3, 998.99, -4760.08)" xlink:href="#未命名的渐变_304"/><linearGradient id="linear-gradient-181" x1="346.4" y1="318.8" x2="363.12" y2="318.8" gradientTransform="matrix(-1, 0, 0, 1, 998.99, 0)" xlink:href="#linear-gradient"/><linearGradient id="linear-gradient-182" x1="564.3" y1="318.63" x2="564.3" y2="299.3" xlink:href="#linear-gradient"/><linearGradient id="未命名的渐变_246" x1="563.91" y1="637.33" x2="563.91" y2="659.22" gradientUnits="userSpaceOnUse"><stop offset="0" stop-color="#fff"/><stop offset="0.03" stop-color="#e7e6e6"/><stop offset="0.1" stop-color="#b8b7b7"/><stop offset="0.17" stop-color="#8d8b8b"/><stop offset="0.25" stop-color="#686666"/><stop offset="0.33" stop-color="#494646"/><stop offset="0.41" stop-color="#302c2c"/><stop offset="0.51" stop-color="#1c1919"/><stop offset="0.62" stop-color="#0e0b0b"/><stop offset="0.76" stop-color="#060202"/><stop offset="1" stop-color="#040000"/></linearGradient><linearGradient id="未命名的渐变_10" x1="492.04" y1="481.42" x2="636.56" y2="481.42" gradientUnits="userSpaceOnUse"><stop offset="0" stop-color="#fff"/><stop offset="0.47" stop-color="#f7f7f7"/><stop offset="0.65" stop-color="#f5f5f5"/><stop offset="0.73" stop-color="#eee" stop-opacity="0.99"/><stop offset="0.78" stop-color="#e2e2e2" stop-opacity="0.97"/><stop offset="0.82" stop-color="#d1d1d1" stop-opacity="0.95"/><stop offset="0.86" stop-color="#bababa" stop-opacity="0.93"/><stop offset="0.89" stop-color="#9e9e9e" stop-opacity="0.89"/><stop offset="0.92" stop-color="#7d7d7d" stop-opacity="0.85"/><stop offset="0.95" stop-color="#565656" stop-opacity="0.8"/><stop offset="0.98" stop-color="#2c2c2c" stop-opacity="0.75"/><stop offset="1" stop-opacity="0.7"/></linearGradient><linearGradient id="未命名的渐变_308" x1="564.3" y1="318.84" x2="564.3" y2="321.4" gradientUnits="userSpaceOnUse"><stop offset="0" stop-color="#040000"/><stop offset="0.12" stop-color="#2a2727"/><stop offset="0.36" stop-color="#757373"/><stop offset="0.58" stop-color="#b0afaf"/><stop offset="0.77" stop-color="#dbdada"/><stop offset="0.91" stop-color="#f5f5f5"/><stop offset="1" stop-color="#fff"/></linearGradient><linearGradient id="linear-gradient-183" x1="497.11" y1="644.08" x2="535.42" y2="644.08" xlink:href="#linear-gradient"/><linearGradient id="linear-gradient-184" x1="386.74" y1="644.08" x2="425.06" y2="644.08" gradientTransform="matrix(-1, 0, 0, 1, 1018.31, 0)" xlink:href="#linear-gradient"/><linearGradient id="linear-gradient-185" x1="88.45" y1="391.83" x2="88.45" y2="394.95" xlink:href="#linear-gradient"/><linearGradient id="linear-gradient-186" x1="553.85" y1="336.32" x2="539.09" y2="311.54" gradientUnits="userSpaceOnUse"><stop offset="0" stop-color="#3a3b3b"/><stop offset="1" stop-color="#040000"/></linearGradient><linearGradient id="linear-gradient-187" x1="564.3" y1="263.07" x2="564.3" y2="260.88" xlink:href="#linear-gradient"/></defs><g class="cls-3"><g id="图层_1" data-name="图层 1"><path class="cls-4" d="M625.15,276H599.81c-14.11,0-25.54,6.91-25.54,19.74V623.3c0,12.82,11.43,23.21,25.54,23.21l6.75-.77c14.1,0,44.13.77,44.13-22.44V295.75C650.69,282.92,650.69,276,625.15,276Z" transform="translate(-475.84 -253.34)"/><path class="cls-1" d="M609.3,269s20,0,22,9.7c2,9.16,5.22,44.57,5.22,44.57L623.33,322Z" transform="translate(-475.84 -253.34)"/><g class="cls-5"><rect class="cls-6" x="133.45" y="15.6" width="27.26" height="54.28"/><path class="cls-7" d="M633.73,293.27c3.19,16.45,4.4,31.6,3.79,42.81V325.21H613v5.72c-1.15-3.08-2.27-6.4-3.33-9.9A226.87,226.87,0,0,1,604,298h3.15V267h17.63v-6.56c1.15,3.08,2.27,6.4,3.33,9.9A226.65,226.65,0,0,1,633.73,293.27Z" transform="translate(-475.84 -253.34)"/><path class="cls-8" d="M633.55,293.3c3.15,16.25,4.36,31.22,3.76,42.3V325.21H616.5v13.72c-4.72-10.22-9.21-24.66-12.36-40.91h3V267h17.56v-6.14q1.71,4.57,3.3,9.77A228.38,228.38,0,0,1,633.55,293.3Z" transform="translate(-475.84 -253.34)"/><path class="cls-9" d="M633.38,293.33c3.11,16.06,4.3,30.85,3.71,41.8v-9.92H616.54v13.21c-4.68-10.11-9.12-24.38-12.23-40.43h2.8V267H624.6v-5.72c1.13,3,2.21,6.24,3.26,9.66A225.45,225.45,0,0,1,633.38,293.33Z" transform="translate(-475.84 -253.34)"/><path class="cls-10" d="M633.2,293.36c3.07,15.86,4.26,30.48,3.67,41.29v-9.44H616.56V337.9c-4.61-10-9-24.08-12.07-39.94h2.62V267h14V253.42C625.74,263.4,630.13,277.5,633.2,293.36Z" transform="translate(-475.84 -253.34)"/><path class="cls-11" d="M633,293.39c3,15.66,4.19,30.11,3.61,40.78v-9h-20v12.18c-4.55-9.86-8.89-23.79-11.93-39.46h2.45V267h14v-13C625.66,263.79,630,277.72,633,293.39Z" transform="translate(-475.84 -253.34)"/><path class="cls-12" d="M632.85,293.41c3,15.48,4.15,29.75,3.58,40.29v-8.49H616.61v11.66c-4.49-9.73-8.78-23.49-11.77-39h2.27V267h14V254.44C625.57,264.18,629.86,277.94,632.85,293.41Z" transform="translate(-475.84 -253.34)"/><path class="cls-13" d="M632.68,293.44c3,15.29,4.09,29.37,3.53,39.78v-8H616.65v11.15c-4.45-9.62-8.68-23.21-11.64-38.48h2.1V267h13.94V255C625.49,264.58,629.72,278.17,632.68,293.44Z" transform="translate(-475.84 -253.34)"/><path class="cls-14" d="M632.5,293.47c2.93,15.09,4,29,3.49,39.28v-7.54H616.67v10.63c-4.39-9.5-8.56-22.9-11.48-38h1.92V267H621V255.48C625.41,265,629.58,278.39,632.5,293.47Z" transform="translate(-475.84 -253.34)"/><path class="cls-15" d="M632.33,293.5c2.88,14.89,4,28.62,3.44,38.77v-7.06H616.7v10.11c-4.33-9.36-8.46-22.61-11.34-37.51h1.75V267H621V256C625.32,265.37,629.45,278.6,632.33,293.5Z" transform="translate(-475.84 -253.34)"/><path class="cls-16" d="M632.16,293.53c2.84,14.7,3.94,28.25,3.39,38.27v-6.59H616.72v9.6c-4.27-9.25-8.34-22.32-11.19-37h1.58V267H621V256.51C625.24,265.75,629.31,278.83,632.16,293.53Z" transform="translate(-475.84 -253.34)"/><path class="cls-17" d="M632,293.55c2.81,14.52,3.88,27.88,3.35,37.77v-6.11H616.76v9.08c-4.22-9.12-8.23-22-11-36.53h1.4V267h13.82V257C625.15,266.15,629.16,279.05,632,293.55Z" transform="translate(-475.84 -253.34)"/><path class="cls-18" d="M631.8,293.58c2.78,14.32,3.83,27.51,3.31,37.27v-5.64H616.78v8.57c-4.16-9-8.12-21.73-10.89-36h1.22V267h13.8v-9.41C625.07,266.55,629,279.27,631.8,293.58Z" transform="translate(-475.84 -253.34)"/><path class="cls-19" d="M631.63,293.61c2.74,14.12,3.78,27.13,3.26,36.76v-5.16H616.81v8.06c-4.11-8.89-8-21.44-10.75-35.56h1.05V267h13.77v-8.9C625,266.94,628.89,279.49,631.63,293.61Z" transform="translate(-475.84 -253.34)"/><path class="cls-20" d="M631.46,293.64c2.69,13.93,3.73,26.76,3.21,36.25v-4.68H616.84v7.54c-4.05-8.76-7.9-21.14-10.61-35.08h.88V267h13.74v-8.38C624.9,267.33,628.75,279.72,631.46,293.64Z" transform="translate(-475.84 -253.34)"/><path class="cls-21" d="M631.28,293.67c2.66,13.74,3.68,26.39,3.17,35.75v-4.21H616.87v7c-4-8.64-7.8-20.85-10.46-34.58h.7V267h13.71v-7.87C624.82,267.72,628.62,279.93,631.28,293.67Z" transform="translate(-475.84 -253.34)"/><path class="cls-22" d="M631.11,293.7c2.62,13.54,3.62,26,3.12,35.24v-3.73H616.9v6.51c-3.94-8.52-7.69-20.56-10.31-34.1h.52V267H620.8V259.6C624.73,268.12,628.48,280.16,631.11,293.7Z" transform="translate(-475.84 -253.34)"/><path class="cls-23" d="M630.93,293.72c2.58,13.35,3.57,25.66,3.08,34.75v-3.26H616.92v6c-3.88-8.4-7.57-20.27-10.16-33.61h.35V267h13.66v-6.84C624.65,268.51,628.34,280.38,630.93,293.72Z" transform="translate(-475.84 -253.34)"/><path class="cls-24" d="M630.76,293.75c2.55,13.16,3.51,25.28,3,34.24v-2.78H617v5.48c-3.83-8.28-7.46-20-10-33.12h.17V267h13.64v-6.32C624.57,268.9,628.21,280.6,630.76,293.75Z" transform="translate(-475.84 -253.34)"/><path class="cls-25" d="M630.58,293.78c2.51,13,3.47,24.9,3,33.74v-2.31H617v5c-3.77-8.15-7.36-19.68-9.86-32.64s-3.48-24.89-3-33.73l3,3.15h13.6v-5.8C624.48,269.3,628.07,280.82,630.58,293.78Z" transform="translate(-475.84 -253.34)"/><path class="cls-26" d="M630.41,293.81c2.47,12.76,3.41,24.53,2.94,33.23v-1.83H617v4.45c-3.72-8-7.25-19.38-9.72-32.15s-3.42-24.53-2.95-33.23l2.77,2.67h13.58v-5.29C624.4,269.69,627.93,281.05,630.41,293.81Z" transform="translate(-475.84 -253.34)"/><path class="cls-27" d="M630.23,293.84c2.43,12.57,3.37,24.16,2.9,32.72v-1.35H617v3.93c-3.65-7.91-7.13-19.08-9.56-31.66s-3.37-24.16-2.91-32.73l2.55,2.2h13.55v-4.77C624.31,270.09,627.8,281.26,630.23,293.84Z" transform="translate(-475.84 -253.34)"/><path class="cls-28" d="M630.05,293.86c2.4,12.39,3.32,23.79,2.86,32.23v-.88H617.07v3.42c-3.61-7.79-7-18.8-9.43-31.17s-3.31-23.8-2.86-32.23l2.33,1.72h13.52v-4.26C624.23,270.48,627.66,281.49,630.05,293.86Z" transform="translate(-475.84 -253.34)"/><path class="cls-29" d="M629.87,293.89c2.37,12.19,3.27,23.42,2.82,31.72v-.4h-15.6v2.9c-3.54-7.66-6.92-18.5-9.27-30.68S604.55,274,605,265.71l2.11,1.24H620.6V263.2C624.14,270.87,627.52,281.71,629.87,293.89Z" transform="translate(-475.84 -253.34)"/><path class="cls-30" d="M629.7,293.92c4.65,24,3.55,44.21-2.44,45.17V325.21H617.12v2.39c-3.49-7.55-6.81-18.21-9.13-30.21s-3.21-23-2.77-31.21l1.89.77h13.46v-3.23C624.07,271.27,627.39,281.93,629.7,293.92Z" transform="translate(-475.84 -253.34)"/><path class="cls-31" d="M629.52,294c4.58,23.6,3.5,43.49-2.4,44.44V325.21h-10v1.87c-3.43-7.42-6.69-17.91-9-29.71s-3.17-22.67-2.73-30.71l1.67.29h13.44v-2.71C624,271.66,627.24,282.15,629.52,294Z" transform="translate(-475.84 -253.34)"/><path class="cls-32" d="M629.35,294c4.5,23.21,3.44,42.78-2.36,43.71s-14.15-17.14-18.65-40.35-3.44-42.78,2.36-43.71V267h9.82v-2.2C623.89,272.05,627.1,282.37,629.35,294Z" transform="translate(-475.84 -253.34)"/><path class="cls-33" d="M629.18,294c4.42,22.83,3.38,42.08-2.33,43s-13.92-16.85-18.34-39.67-3.38-42.07,2.33-43S624.76,271.18,629.18,294Z" transform="translate(-475.84 -253.34)"/><path class="cls-34" d="M629,294c4.35,22.44,3.32,41.36-2.28,42.26s-13.68-16.56-18-39S605.37,255.93,611,255,624.66,271.6,629,294Z" transform="translate(-475.84 -253.34)"/><path class="cls-35" d="M628.83,294.06c4.27,22.05,3.26,40.65-2.25,41.53s-13.44-16.28-17.72-38.34-3.26-40.64,2.25-41.51S624.55,272,628.83,294.06Z" transform="translate(-475.84 -253.34)"/><path class="cls-36" d="M628.65,294.09c4.2,21.66,3.21,39.93-2.21,40.8s-13.21-16-17.4-37.66-3.21-39.93,2.21-40.79S624.46,272.43,628.65,294.09Z" transform="translate(-475.84 -253.34)"/><path class="cls-37" d="M628.48,294.12c4.12,21.27,3.15,39.22-2.17,40.07s-13-15.71-17.1-37-3.15-39.22,2.18-40.06S624.36,272.84,628.48,294.12Z" transform="translate(-475.84 -253.34)"/><path class="cls-38" d="M628.3,294.14c4.05,20.9,3.1,38.51-2.13,39.35s-12.73-15.43-16.78-36.31-3.1-38.51,2.13-39.34S624.25,273.25,628.3,294.14Z" transform="translate(-475.84 -253.34)"/><path class="cls-39" d="M628.13,294.17c4,20.51,3,37.79-2.1,38.62s-12.49-15.14-16.47-35.64-3-37.8,2.1-38.61S624.15,273.67,628.13,294.17Z" transform="translate(-475.84 -253.34)"/><path class="cls-40" d="M628,294.21c3.9,20.11,3,37.07-2.05,37.88s-12.26-14.85-16.16-35-3-37.08,2-37.88S624.06,274.08,628,294.21Z" transform="translate(-475.84 -253.34)"/><path class="cls-41" d="M627.78,294.23c3.81,19.73,2.92,36.36-2,37.16s-12-14.57-15.86-34.3-2.91-36.36,2-37.15S624,274.5,627.78,294.23Z" transform="translate(-475.84 -253.34)"/><path class="cls-42" d="M627.6,294.26c3.75,19.34,2.87,35.65-2,36.43s-11.79-14.29-15.54-33.63-2.86-35.65,2-36.42S623.85,274.92,627.6,294.26Z" transform="translate(-475.84 -253.34)"/><path class="cls-43" d="M627.43,294.28c3.67,19,2.8,34.94-1.94,35.71S613.93,316,610.26,297s-2.8-34.94,1.94-35.7S623.76,275.33,627.43,294.28Z" transform="translate(-475.84 -253.34)"/><path class="cls-44" d="M627.25,294.31c3.6,18.57,2.75,34.23-1.89,35S614,315.57,610.44,297s-2.75-34.23,1.89-35S623.65,275.74,627.25,294.31Z" transform="translate(-475.84 -253.34)"/><path class="cls-45" d="M627.08,294.35c3.52,18.17,2.69,33.5-1.86,34.24s-11.08-13.43-14.6-31.61-2.7-33.51,1.85-34.24S623.55,276.16,627.08,294.35Z" transform="translate(-475.84 -253.34)"/><path class="cls-46" d="M626.91,294.37c3.44,17.8,2.63,32.8-1.82,33.51s-10.86-13.13-14.3-30.93-2.64-32.8,1.81-33.51S623.46,276.57,626.91,294.37Z" transform="translate(-475.84 -253.34)"/><path class="cls-47" d="M626.73,294.4c3.37,17.41,2.57,32.08-1.77,32.78s-10.62-12.85-14-30.26-2.58-32.08,1.77-32.78S623.36,277,626.73,294.4Z" transform="translate(-475.84 -253.34)"/><path class="cls-48" d="M626.55,294.42c3.3,17,2.52,31.38-1.73,32.06s-10.38-12.56-13.67-29.58-2.53-31.38,1.72-32.06S623.25,277.41,626.55,294.42Z" transform="translate(-475.84 -253.34)"/><path class="cls-49" d="M626.38,294.45c3.22,16.64,2.46,30.67-1.7,31.33s-10.15-12.28-13.36-28.91-2.47-30.67,1.69-31.33S623.16,277.82,626.38,294.45Z" transform="translate(-475.84 -253.34)"/><path class="cls-50" d="M626.2,294.49c3.15,16.24,2.41,29.94-1.66,30.59s-9.9-12-13-28.24-2.41-29.95,1.66-30.6S623.06,278.23,626.2,294.49Z" transform="translate(-475.84 -253.34)"/><path class="cls-51" d="M626,294.51c3.08,15.86,2.36,29.24-1.61,29.87s-9.67-11.71-12.74-27.57-2.36-29.24,1.61-29.87S623,278.65,626,294.51Z" transform="translate(-475.84 -253.34)"/><path class="cls-52" d="M625.85,294.54c3,15.47,2.29,28.52-1.58,29.14s-9.43-11.43-12.43-26.9-2.29-28.52,1.58-29.14S622.85,279.06,625.85,294.54Z" transform="translate(-475.84 -253.34)"/><path class="cls-53" d="M625.67,294.56c2.93,15.09,2.24,27.82-1.54,28.42s-9.19-11.14-12.11-26.22-2.23-27.82,1.54-28.42S622.76,279.47,625.67,294.56Z" transform="translate(-475.84 -253.34)"/><path class="cls-54" d="M625.5,294.59c2.85,14.71,2.18,27.1-1.49,27.69s-9-10.85-11.82-25.55-2.17-27.1,1.5-27.69S622.65,279.89,625.5,294.59Z" transform="translate(-475.84 -253.34)"/><path class="cls-55" d="M625.32,294.63c2.78,14.31,2.13,26.37-1.45,26.95s-8.73-10.57-11.5-24.89-2.12-26.38,1.45-26.95S622.55,280.31,625.32,294.63Z" transform="translate(-475.84 -253.34)"/><path class="cls-56" d="M625.15,294.65c2.7,13.93,2.06,25.67-1.42,26.23s-8.49-10.29-11.19-24.21S610.48,271,614,270.44,622.46,280.73,625.15,294.65Z" transform="translate(-475.84 -253.34)"/><path class="cls-57" d="M625,294.68c2.63,13.54,2,24.95-1.38,25.5s-8.25-10-10.87-23.54-2-25,1.38-25.5S622.35,281.14,625,294.68Z" transform="translate(-475.84 -253.34)"/><path class="cls-58" d="M624.8,294.7c2.55,13.16,2,24.25-1.34,24.78s-8-9.72-10.57-22.87-1.95-24.24,1.34-24.77S622.25,281.55,624.8,294.7Z" transform="translate(-475.84 -253.34)"/><path class="cls-59" d="M624.62,294.73c2.47,12.77,1.89,23.53-1.3,24s-7.78-9.43-10.25-22.19-1.89-23.53,1.3-24S622.15,282,624.62,294.73Z" transform="translate(-475.84 -253.34)"/><path class="cls-60" d="M624.45,294.77c2.4,12.37,1.83,22.81-1.26,23.31s-7.55-9.14-10-21.53-1.83-22.81,1.26-23.31S622.05,282.38,624.45,294.77Z" transform="translate(-475.84 -253.34)"/><path class="cls-61" d="M624.27,294.79c2.33,12,1.78,22.1-1.21,22.59s-7.32-8.86-9.64-20.85-1.78-22.1,1.22-22.59S622,282.8,624.27,294.79Z" transform="translate(-475.84 -253.34)"/><path class="cls-62" d="M624.1,294.82c2.25,11.61,1.72,21.39-1.18,21.86s-7.08-8.57-9.33-20.18-1.72-21.39,1.18-21.86S621.85,283.22,624.1,294.82Z" transform="translate(-475.84 -253.34)"/><path class="cls-63" d="M623.93,294.84c2.17,11.23,1.66,20.69-1.15,21.13s-6.84-8.28-9-19.5-1.66-20.67,1.15-21.13S621.76,283.63,623.93,294.84Z" transform="translate(-475.84 -253.34)"/><path class="cls-64" d="M623.75,294.87c2.09,10.84,1.6,20-1.1,20.4s-6.61-8-8.71-18.82-1.6-20,1.11-20.41S621.65,284,623.75,294.87Z" transform="translate(-475.84 -253.34)"/><path class="cls-65" d="M623.58,294.91c2,10.43,1.54,19.25-1.07,19.66s-6.37-7.71-8.4-18.16-1.54-19.25,1.07-19.67S621.55,284.46,623.58,294.91Z" transform="translate(-475.84 -253.34)"/><path class="cls-66" d="M623.4,294.93c2,10.06,1.49,18.54-1,18.94s-6.12-7.42-8.08-17.48-1.48-18.54,1-18.95S621.45,284.87,623.4,294.93Z" transform="translate(-475.84 -253.34)"/><path class="cls-67" d="M623.23,295c1.87,9.67,1.43,17.82-1,18.21s-5.89-7.14-7.76-16.81-1.43-17.83,1-18.22S621.35,285.28,623.23,295Z" transform="translate(-475.84 -253.34)"/><path class="cls-68" d="M623.05,295c1.79,9.29,1.37,17.12-.94,17.49s-5.67-6.85-7.46-16.14-1.38-17.11.94-17.48S621.25,285.7,623.05,295Z" transform="translate(-475.84 -253.34)"/><path class="cls-69" d="M622.88,295c1.72,8.9,1.31,16.4-.91,16.76s-5.43-6.57-7.15-15.46-1.32-16.41.9-16.76S621.15,286.12,622.88,295Z" transform="translate(-475.84 -253.34)"/><path class="cls-70" d="M622.7,295.05c1.65,8.51,1.26,15.68-.87,16s-5.19-6.29-6.83-14.8-1.27-15.68.86-16S621.05,286.53,622.7,295.05Z" transform="translate(-475.84 -253.34)"/><path class="cls-71" d="M622.53,295.07c1.57,8.13,1.19,15-.83,15.3s-5-6-6.53-14.12-1.2-15,.83-15.3S621,287,622.53,295.07Z" transform="translate(-475.84 -253.34)"/><path class="cls-72" d="M622.35,295.1c1.49,7.74,1.14,14.26-.79,14.57s-4.72-5.71-6.21-13.45-1.15-14.26.78-14.57S620.85,287.36,622.35,295.1Z" transform="translate(-475.84 -253.34)"/><path class="cls-73" d="M622.17,295.12c1.42,7.35,1.09,13.55-.75,13.85s-4.47-5.43-5.9-12.78-1.09-13.54.75-13.84S620.75,287.77,622.17,295.12Z" transform="translate(-475.84 -253.34)"/><path class="cls-74" d="M622,295.15c1.36,7,1,12.84-.7,13.12s-4.25-5.14-5.59-12.1-1-12.84.7-13.12S620.65,288.19,622,295.15Z" transform="translate(-475.84 -253.34)"/><path class="cls-75" d="M621.82,295.19c1.28,6.57,1,12.11-.66,12.38s-4-4.85-5.29-11.44-1-12.11.67-12.38S620.55,288.61,621.82,295.19Z" transform="translate(-475.84 -253.34)"/><path class="cls-76" d="M621.65,295.21c1.2,6.19.92,11.41-.63,11.66s-3.77-4.57-5-10.77-.92-11.4.63-11.65S620.45,289,621.65,295.21Z" transform="translate(-475.84 -253.34)"/><path class="cls-77" d="M621.47,295.24c1.12,5.8.87,10.7-.59,10.93s-3.54-4.29-4.66-10.09-.86-10.69.59-10.93S620.35,289.44,621.47,295.24Z" transform="translate(-475.84 -253.34)"/><path class="cls-78" d="M621.29,295.26c1.06,5.43.81,10-.54,10.21s-3.31-4-4.35-9.42-.81-10,.55-10.2S620.25,289.85,621.29,295.26Z" transform="translate(-475.84 -253.34)"/><path class="cls-79" d="M621.12,295.29c1,5,.75,9.28-.51,9.48s-3.06-3.72-4-8.74-.74-9.28.51-9.48S620.15,290.26,621.12,295.29Z" transform="translate(-475.84 -253.34)"/><path class="cls-80" d="M621,295.33c.9,4.63.69,8.55-.48,8.74s-2.82-3.43-3.73-8.08-.68-8.55.48-8.74S620,290.68,621,295.33Z" transform="translate(-475.84 -253.34)"/><path class="cls-81" d="M620.77,295.35c.83,4.25.63,7.85-.44,8s-2.59-3.14-3.41-7.41-.63-7.84.44-8S620,291.09,620.77,295.35Z" transform="translate(-475.84 -253.34)"/><path class="cls-82" d="M620.6,295.38c.74,3.87.57,7.13-.39,7.29s-2.37-2.86-3.12-6.73-.57-7.13.4-7.29S619.85,291.51,620.6,295.38Z" transform="translate(-475.84 -253.34)"/><path class="cls-83" d="M620.42,295.4c.68,3.49.51,6.43-.35,6.56s-2.12-2.57-2.8-6-.51-6.42.35-6.56S619.74,291.93,620.42,295.4Z" transform="translate(-475.84 -253.34)"/><path class="cls-84" d="M620.25,295.43c.6,3.1.45,5.71-.32,5.83s-1.89-2.28-2.49-5.37-.45-5.71.32-5.84S619.65,292.34,620.25,295.43Z" transform="translate(-475.84 -253.34)"/><path class="cls-85" d="M620.07,295.47c.53,2.7.4,5-.27,5.09s-1.66-2-2.18-4.71-.4-5,.28-5.1S619.55,292.76,620.07,295.47Z" transform="translate(-475.84 -253.34)"/><path class="cls-86" d="M619.9,295.49c.44,2.32.34,4.28-.24,4.37s-1.41-1.71-1.87-4-.34-4.27.24-4.37S619.44,293.17,619.9,295.49Z" transform="translate(-475.84 -253.34)"/><path class="cls-87" d="M619.72,295.52c.38,1.94.29,3.56-.2,3.64s-1.17-1.42-1.55-3.36-.29-3.57.2-3.64S619.34,293.58,619.72,295.52Z" transform="translate(-475.84 -253.34)"/><path class="cls-88" d="M619.55,295.54c.3,1.55.23,2.86-.16,2.92s-.95-1.14-1.25-2.69-.23-2.85.17-2.91S619.25,294,619.55,295.54Z" transform="translate(-475.84 -253.34)"/><path class="cls-89" d="M619.37,295.57c.23,1.16.18,2.14-.11,2.19s-.71-.86-.94-2-.18-2.14.12-2.19S619.15,294.42,619.37,295.57Z" transform="translate(-475.84 -253.34)"/><path class="cls-90" d="M619.2,295.61c.14.77.11,1.42-.08,1.45s-.47-.57-.62-1.34-.12-1.43.07-1.46S619,294.83,619.2,295.61Z" transform="translate(-475.84 -253.34)"/><path class="cls-91" d="M619,295.63c.07.39.06.72,0,.73s-.24-.29-.3-.68-.06-.7,0-.72S619,295.25,619,295.63Z" transform="translate(-475.84 -253.34)"/></g><path class="cls-2" d="M519.3,269s-20,0-22,9.7c-2,9.16-5.22,44.57-5.22,44.57L505.27,322Z" transform="translate(-475.84 -253.34)"/><g class="cls-92"><rect class="cls-93" x="16.19" y="15.6" width="27.26" height="54.28"/><path class="cls-94" d="M497.79,288.2c-5,25.93-6.18,47.42-2.6,48s10.56-20,15.58-45.91a257.4,257.4,0,0,0,4.53-33.5V267h-9.17V255.31A261.39,261.39,0,0,0,497.79,288.2Z" transform="translate(-475.84 -253.34)"/><path class="cls-95" d="M497.87,288.22c-5,25.62-6.12,46.85-2.57,47.41s10.43-19.74,15.4-45.36a259.08,259.08,0,0,0,4.48-33.11V267H506.1V255.7A260.22,260.22,0,0,0,497.87,288.22Z" transform="translate(-475.84 -253.34)"/><path class="cls-96" d="M498,288.22c-4.91,25.32-6,46.3-2.54,46.87s10.31-19.52,15.21-44.84A253.05,253.05,0,0,0,515,257.54V267h-9V256.11A258,258,0,0,0,498,288.22Z" transform="translate(-475.84 -253.34)"/><path class="cls-97" d="M498,288.24c-4.86,25-6,45.74-2.52,46.29s10.19-19.28,15-44.29a251.45,251.45,0,0,0,4.38-32.32v9h-8.86V256.51A253.8,253.8,0,0,0,498,288.24Z" transform="translate(-475.84 -253.34)"/><path class="cls-98" d="M498.1,288.25c-4.79,24.71-5.9,45.18-2.48,45.73s10.06-19,14.85-43.75a249.34,249.34,0,0,0,4.32-31.93V267H506V256.9A250.75,250.75,0,0,0,498.1,288.25Z" transform="translate(-475.84 -253.34)"/><path class="cls-99" d="M498.17,288.26c-4.72,24.4-5.82,44.63-2.45,45.16s9.95-18.8,14.67-43.2a245.58,245.58,0,0,0,4.27-31.53V267H506v-9.64A247.66,247.66,0,0,0,498.17,288.26Z" transform="translate(-475.84 -253.34)"/><path class="cls-100" d="M498.25,288.28c-4.67,24.1-5.75,44.06-2.42,44.59s9.82-18.57,14.49-42.66a243.47,243.47,0,0,0,4.21-31.14V267H506V257.7A244.74,244.74,0,0,0,498.25,288.28Z" transform="translate(-475.84 -253.34)"/><path class="cls-101" d="M498.32,288.29c-4.6,23.79-5.67,43.51-2.38,44s9.69-18.33,14.3-42.13a237.45,237.45,0,0,0,4.15-30.74V267H506V258.1A244.11,244.11,0,0,0,498.32,288.29Z" transform="translate(-475.84 -253.34)"/><path class="cls-102" d="M498.4,288.3c-4.54,23.48-5.6,42.95-2.35,43.47s9.56-18.1,14.12-41.59a233.57,233.57,0,0,0,4.09-30.35V267H506V258.5A241,241,0,0,0,498.4,288.3Z" transform="translate(-475.84 -253.34)"/><path class="cls-103" d="M498.48,288.31c-4.49,23.19-5.53,42.39-2.33,42.9s9.45-17.85,13.94-41a233.84,233.84,0,0,0,4.05-29.95V267h-8.21V258.9A235.27,235.27,0,0,0,498.48,288.31Z" transform="translate(-475.84 -253.34)"/><path class="cls-104" d="M498.56,288.33c-4.44,22.87-5.46,41.83-2.3,42.33S505.58,313,510,290.16a230.2,230.2,0,0,0,4-29.56V267h-8.1V259.3A231,231,0,0,0,498.56,288.33Z" transform="translate(-475.84 -253.34)"/><path class="cls-105" d="M498.63,288.33c-4.37,22.58-5.39,41.28-2.26,41.78s9.19-17.39,13.57-40A228.09,228.09,0,0,0,513.88,261v6h-8V259.7A229.78,229.78,0,0,0,498.63,288.33Z" transform="translate(-475.84 -253.34)"/><path class="cls-106" d="M498.71,288.35c-4.31,22.27-5.31,40.72-2.23,41.21s9.07-17.16,13.38-39.43a224.1,224.1,0,0,0,3.89-28.77V267h-7.89V260.1A227.5,227.5,0,0,0,498.71,288.35Z" transform="translate(-475.84 -253.34)"/><path class="cls-107" d="M498.79,288.36c-4.26,22-5.25,40.16-2.21,40.65s8.95-16.93,13.2-38.89a220.46,220.46,0,0,0,3.84-28.38V267h-7.77V260.5A221.57,221.57,0,0,0,498.79,288.36Z" transform="translate(-475.84 -253.34)"/><path class="cls-108" d="M498.86,288.37c-4.2,21.66-5.16,39.61-2.17,40.08s8.82-16.68,13-38.34a218.72,218.72,0,0,0,3.79-28V267h-7.67V260.9A222,222,0,0,0,498.86,288.37Z" transform="translate(-475.84 -253.34)"/><path class="cls-109" d="M498.94,288.39c-4.14,21.35-5.1,39-2.15,39.51s8.7-16.45,12.84-37.8a214.71,214.71,0,0,0,3.73-27.6V267H505.8V261.3A217.78,217.78,0,0,0,498.94,288.39Z" transform="translate(-475.84 -253.34)"/><path class="cls-110" d="M499,288.4c-4.08,21-5,38.48-2.12,39s8.58-16.22,12.65-37.27a209.08,209.08,0,0,0,3.68-27.19V267h-7.45v-5.26A212.7,212.7,0,0,0,499,288.4Z" transform="translate(-475.84 -253.34)"/><path class="cls-111" d="M499.09,288.41c-4,20.75-4.95,37.93-2.08,38.39s8.45-16,12.46-36.73a209,209,0,0,0,3.63-26.8V267h-7.34V262.1A210.07,210.07,0,0,0,499.09,288.41Z" transform="translate(-475.84 -253.34)"/><path class="cls-112" d="M499.16,288.42c-4,20.44-4.87,37.37-2,37.82s8.32-15.75,12.28-36.18A205.08,205.08,0,0,0,513,263.65V267h-7.24v-4.46A210.3,210.3,0,0,0,499.16,288.42Z" transform="translate(-475.84 -253.34)"/><path class="cls-113" d="M499.24,288.43c-3.89,20.13-4.8,36.82-2,37.26s8.21-15.51,12.11-35.65a200.85,200.85,0,0,0,3.51-26V267h-7.12v-4.06A205.25,205.25,0,0,0,499.24,288.43Z" transform="translate(-475.84 -253.34)"/><path class="cls-114" d="M499.32,288.45c-3.84,19.83-4.73,36.25-2,36.69s8.08-15.28,11.92-35.1,4.73-36.26,2-36.7V267h-5.55V263.3A201.84,201.84,0,0,0,499.32,288.45Z" transform="translate(-475.84 -253.34)"/><path class="cls-115" d="M499.39,288.46c-3.78,19.52-4.65,35.7-2,36.13s8-15,11.74-34.57,4.66-35.7,2-36.13S503.18,268.93,499.39,288.46Z" transform="translate(-475.84 -253.34)"/><path class="cls-116" d="M499.47,288.47c-3.72,19.22-4.58,35.14-1.92,35.56s7.83-14.8,11.55-34,4.58-35.14,1.92-35.57S503.19,269.25,499.47,288.47Z" transform="translate(-475.84 -253.34)"/><path class="cls-117" d="M499.55,288.48c-3.66,18.92-4.51,34.58-1.9,35S505.36,308.91,509,290s4.51-34.58,1.9-35S503.21,269.57,499.55,288.48Z" transform="translate(-475.84 -253.34)"/><path class="cls-118" d="M499.63,288.5c-3.61,18.6-4.45,34-1.87,34.43s7.58-14.33,11.18-32.94,4.44-34,1.87-34.44S503.23,269.89,499.63,288.5Z" transform="translate(-475.84 -253.34)"/><path class="cls-119" d="M499.7,288.5c-3.54,18.31-4.37,33.47-1.84,33.88s7.46-14.1,11-32.41,4.36-33.46,1.84-33.87S503.24,270.2,499.7,288.5Z" transform="translate(-475.84 -253.34)"/><path class="cls-120" d="M499.78,288.52c-3.49,18-4.3,32.91-1.81,33.31S505.31,308,508.79,290s4.29-32.91,1.8-33.31S503.26,270.52,499.78,288.52Z" transform="translate(-475.84 -253.34)"/><path class="cls-121" d="M499.86,288.53c-3.43,17.69-4.23,32.35-1.78,32.74s7.21-13.63,10.63-31.32,4.23-32.36,1.78-32.74S503.28,270.84,499.86,288.53Z" transform="translate(-475.84 -253.34)"/><path class="cls-122" d="M499.93,288.54c-3.37,17.4-4.15,31.8-1.74,32.18s7.08-13.39,10.44-30.78,4.15-31.79,1.75-32.18S503.3,271.16,499.93,288.54Z" transform="translate(-475.84 -253.34)"/><path class="cls-123" d="M500,288.56c-3.31,17.08-4.08,31.24-1.72,31.61s7-13.16,10.27-30.24,4.08-31.24,1.72-31.62S503.31,271.47,500,288.56Z" transform="translate(-475.84 -253.34)"/><path class="cls-124" d="M500.09,288.57c-3.25,16.77-4,30.68-1.69,31.05s6.84-12.93,10.08-29.71,4-30.67,1.69-31.05S503.34,271.79,500.09,288.57Z" transform="translate(-475.84 -253.34)"/><path class="cls-125" d="M500.16,288.58c-3.19,16.47-3.93,30.12-1.66,30.48s6.72-12.69,9.9-29.16,3.94-30.12,1.66-30.49S503.36,272.11,500.16,288.58Z" transform="translate(-475.84 -253.34)"/><path class="cls-126" d="M500.24,288.59c-3.14,16.17-3.87,29.56-1.62,29.92s6.58-12.45,9.72-28.62S512.19,260.32,510,260,503.37,272.43,500.24,288.59Z" transform="translate(-475.84 -253.34)"/><path class="cls-127" d="M500.31,288.61c-3.07,15.86-3.78,29-1.59,29.35s6.47-12.22,9.54-28.09,3.78-29,1.59-29.35S503.39,272.75,500.31,288.61Z" transform="translate(-475.84 -253.34)"/><path class="cls-128" d="M500.39,288.62c-3,15.56-3.72,28.45-1.56,28.79s6.34-12,9.35-27.54,3.71-28.46,1.56-28.8S503.41,273.06,500.39,288.62Z" transform="translate(-475.84 -253.34)"/><path class="cls-129" d="M500.46,288.63c-2.95,15.25-3.63,27.89-1.53,28.23s6.22-11.76,9.17-27,3.64-27.89,1.54-28.23S503.42,273.38,500.46,288.63Z" transform="translate(-475.84 -253.34)"/><path class="cls-130" d="M500.54,288.64C497.65,303.59,497,316,499,316.3s6.09-11.52,9-26.46,3.57-27.33,1.49-27.66S503.44,273.7,500.54,288.64Z" transform="translate(-475.84 -253.34)"/><path class="cls-131" d="M500.62,288.65c-2.83,14.65-3.49,26.77-1.47,27.1s6-11.28,8.8-25.92,3.49-26.78,1.47-27.1S503.46,274,500.62,288.65Z" transform="translate(-475.84 -253.34)"/><path class="cls-132" d="M500.69,288.67c-2.78,14.33-3.42,26.21-1.43,26.53s5.83-11.05,8.61-25.38,3.43-26.22,1.44-26.54S503.48,274.33,500.69,288.67Z" transform="translate(-475.84 -253.34)"/><path class="cls-133" d="M500.77,288.68c-2.72,14-3.35,25.66-1.41,26s5.72-10.81,8.44-24.85,3.34-25.66,1.41-26S503.49,274.64,500.77,288.68Z" transform="translate(-475.84 -253.34)"/><path class="cls-134" d="M500.85,288.69c-2.66,13.73-3.28,25.1-1.38,25.4s5.59-10.57,8.25-24.3,3.28-25.1,1.38-25.41S503.51,275,500.85,288.69Z" transform="translate(-475.84 -253.34)"/><path class="cls-135" d="M500.93,288.7c-2.61,13.42-3.21,24.55-1.36,24.84s5.47-10.34,8.07-23.76,3.21-24.55,1.35-24.84S503.53,275.28,500.93,288.7Z" transform="translate(-475.84 -253.34)"/><path class="cls-136" d="M501,288.71c-2.54,13.12-3.13,24-1.31,24.28s5.33-10.1,7.88-23.23,3.13-24,1.31-24.27S503.54,275.6,501,288.71Z" transform="translate(-475.84 -253.34)"/><path class="cls-137" d="M501.08,288.73c-2.48,12.81-3.06,23.43-1.29,23.71s5.22-9.87,7.7-22.68,3.06-23.43,1.29-23.72S503.56,275.91,501.08,288.73Z" transform="translate(-475.84 -253.34)"/><path class="cls-138" d="M501.15,288.74c-2.42,12.51-3,22.87-1.25,23.15s5.09-9.64,7.51-22.15,3-22.87,1.26-23.15S503.58,276.23,501.15,288.74Z" transform="translate(-475.84 -253.34)"/><path class="cls-139" d="M501.23,288.75c-2.37,12.21-2.91,22.31-1.23,22.58s5-9.4,7.34-21.6,2.91-22.31,1.23-22.58S503.6,276.55,501.23,288.75Z" transform="translate(-475.84 -253.34)"/><path class="cls-140" d="M501.3,288.76c-2.3,11.9-2.83,21.76-1.19,22s4.85-9.17,7.16-21.06,2.83-21.76,1.19-22S503.61,276.87,501.3,288.76Z" transform="translate(-475.84 -253.34)"/><path class="cls-141" d="M501.38,288.78c-2.24,11.59-2.76,21.19-1.16,21.45s4.72-8.93,7-20.53,2.76-21.19,1.16-21.45S503.63,277.19,501.38,288.78Z" transform="translate(-475.84 -253.34)"/><path class="cls-142" d="M501.46,288.79c-2.19,11.28-2.7,20.64-1.13,20.89s4.59-8.7,6.78-20,2.7-20.64,1.13-20.89S503.65,277.5,501.46,288.79Z" transform="translate(-475.84 -253.34)"/><path class="cls-143" d="M501.53,288.8c-2.12,11-2.61,20.08-1.1,20.32s4.47-8.46,6.6-19.44,2.62-20.08,1.11-20.32S503.66,277.82,501.53,288.8Z" transform="translate(-475.84 -253.34)"/><path class="cls-144" d="M501.61,288.82c-2.07,10.67-2.55,19.52-1.07,19.75s4.35-8.23,6.42-18.9,2.55-19.52,1.07-19.76S503.68,278.14,501.61,288.82Z" transform="translate(-475.84 -253.34)"/><path class="cls-145" d="M501.69,288.82c-2,10.38-2.48,19-1.05,19.2s4.23-8,6.24-18.36,2.47-19,1-19.2S503.7,278.46,501.69,288.82Z" transform="translate(-475.84 -253.34)"/><path class="cls-146" d="M501.76,288.84c-1.95,10.06-2.4,18.4-1,18.63s4.1-7.76,6.05-17.82,2.41-18.41,1-18.64S503.72,278.77,501.76,288.84Z" transform="translate(-475.84 -253.34)"/><path class="cls-147" d="M501.84,288.85c-1.89,9.76-2.33,17.85-1,18.07s4-7.53,5.87-17.29,2.32-17.85,1-18.07S503.73,279.09,501.84,288.85Z" transform="translate(-475.84 -253.34)"/><path class="cls-148" d="M501.92,288.86c-1.83,9.46-2.26,17.29-.95,17.5s3.85-7.28,5.68-16.74,2.26-17.29,1-17.5S503.75,279.4,501.92,288.86Z" transform="translate(-475.84 -253.34)"/><path class="cls-149" d="M502,288.87c-1.78,9.15-2.19,16.74-.93,16.94s3.73-7.05,5.5-16.2,2.19-16.74.93-16.94S503.77,279.72,502,288.87Z" transform="translate(-475.84 -253.34)"/><path class="cls-150" d="M502.07,288.89c-1.72,8.84-2.11,16.17-.89,16.37s3.6-6.82,5.32-15.67,2.11-16.17.89-16.37S503.78,280,502.07,288.89Z" transform="translate(-475.84 -253.34)"/><path class="cls-151" d="M502.15,288.9c-1.66,8.54-2,15.62-.86,15.81s3.48-6.58,5.13-15.12,2-15.62.86-15.82S503.8,280.36,502.15,288.9Z" transform="translate(-475.84 -253.34)"/><path class="cls-152" d="M502.23,288.91c-1.6,8.24-2,15.07-.83,15.24s3.35-6.34,5-14.58,2-15.06.82-15.24S503.82,280.67,502.23,288.91Z" transform="translate(-475.84 -253.34)"/><path class="cls-153" d="M502.29,288.92c-1.53,7.93-1.89,14.5-.79,14.68s3.23-6.11,4.76-14.05,1.9-14.49.81-14.67S503.83,281,502.29,288.92Z" transform="translate(-475.84 -253.34)"/><path class="cls-154" d="M502.37,288.93c-1.47,7.63-1.81,13.95-.76,14.12s3.11-5.88,4.59-13.5,1.81-13.95.76-14.12S503.85,281.31,502.37,288.93Z" transform="translate(-475.84 -253.34)"/><path class="cls-155" d="M502.45,289c-1.42,7.32-1.75,13.38-.74,13.55s3-5.64,4.41-13,1.74-13.38.74-13.55S503.87,281.63,502.45,289Z" transform="translate(-475.84 -253.34)"/><path class="cls-156" d="M502.53,289c-1.36,7-1.67,12.83-.71,13s2.86-5.41,4.22-12.43,1.68-12.83.7-13S503.89,282,502.53,289Z" transform="translate(-475.84 -253.34)"/><path class="cls-157" d="M502.6,289c-1.3,6.71-1.6,12.28-.67,12.42s2.73-5.17,4-11.88,1.6-12.28.67-12.42S503.9,282.26,502.6,289Z" transform="translate(-475.84 -253.34)"/><path class="cls-158" d="M502.68,289c-1.24,6.4-1.53,11.71-.64,11.85s2.61-4.94,3.85-11.34,1.53-11.71.64-11.86S503.92,282.58,502.68,289Z" transform="translate(-475.84 -253.34)"/><path class="cls-159" d="M502.76,289c-1.18,6.1-1.46,11.16-.62,11.3s2.49-4.71,3.67-10.81,1.46-11.15.62-11.29S503.94,282.9,502.76,289Z" transform="translate(-475.84 -253.34)"/><path class="cls-160" d="M502.83,289c-1.12,5.79-1.38,10.59-.58,10.73s2.36-4.47,3.48-10.26,1.39-10.6.59-10.74S504,283.22,502.83,289Z" transform="translate(-475.84 -253.34)"/><path class="cls-161" d="M502.91,289c-1.06,5.49-1.31,10-.56,10.16s2.25-4.23,3.31-9.72,1.31-10,.55-10.16S504,283.53,502.91,289Z" transform="translate(-475.84 -253.34)"/><path class="cls-162" d="M503,289c-1,5.19-1.24,9.49-.52,9.6s2.11-4,3.11-9.18,1.24-9.49.52-9.6S504,283.85,503,289Z" transform="translate(-475.84 -253.34)"/><path class="cls-163" d="M503.06,289c-.94,4.89-1.16,8.93-.49,9s2-3.77,2.93-8.64,1.18-8.93.5-9S504,284.16,503.06,289Z" transform="translate(-475.84 -253.34)"/><path class="cls-164" d="M503.14,289.06c-.89,4.57-1.09,8.37-.46,8.47s1.87-3.53,2.75-8.11,1.09-8.36.46-8.47S504,284.48,503.14,289.06Z" transform="translate(-475.84 -253.34)"/><path class="cls-165" d="M503.22,289.07c-.83,4.27-1,7.81-.44,7.91s1.75-3.3,2.58-7.57,1-7.8.43-7.9S504,284.8,503.22,289.07Z" transform="translate(-475.84 -253.34)"/><path class="cls-166" d="M503.29,289.08c-.76,4-.94,7.26-.4,7.34s1.62-3.05,2.38-7,1-7.25.4-7.34S504.06,285.11,503.29,289.08Z" transform="translate(-475.84 -253.34)"/><path class="cls-167" d="M503.36,289.1c-.71,3.65-.87,6.68-.36,6.77s1.49-2.82,2.2-6.49.88-6.69.36-6.76S504.07,285.43,503.36,289.1Z" transform="translate(-475.84 -253.34)"/><path class="cls-168" d="M503.44,289.1c-.65,3.36-.79,6.14-.33,6.22s1.37-2.59,2-5.94.79-6.14.33-6.22S504.09,285.75,503.44,289.1Z" transform="translate(-475.84 -253.34)"/><path class="cls-169" d="M503.52,289.12c-.59,3.05-.73,5.58-.3,5.65s1.24-2.35,1.83-5.41.73-5.58.31-5.64S504.11,286.07,503.52,289.12Z" transform="translate(-475.84 -253.34)"/><path class="cls-170" d="M503.6,289.13c-.54,2.74-.65,5-.28,5.08s1.12-2.11,1.65-4.86.65-5,.28-5.08S504.13,286.38,503.6,289.13Z" transform="translate(-475.84 -253.34)"/><path class="cls-171" d="M503.67,289.14c-.47,2.44-.58,4.47-.25,4.52s1-1.88,1.48-4.32.58-4.47.24-4.51S504.14,286.7,503.67,289.14Z" transform="translate(-475.84 -253.34)"/><path class="cls-172" d="M503.75,289.16c-.41,2.13-.51,3.9-.21,3.95s.87-1.65,1.28-3.78.5-3.91.21-4S504.16,287,503.75,289.16Z" transform="translate(-475.84 -253.34)"/><path class="cls-173" d="M503.83,289.17c-.35,1.83-.44,3.34-.18,3.39s.74-1.42,1.09-3.25.44-3.34.19-3.38S504.18,287.34,503.83,289.17Z" transform="translate(-475.84 -253.34)"/><path class="cls-174" d="M503.9,289.18c-.3,1.53-.36,2.79-.15,2.82s.62-1.17.91-2.69.37-2.8.16-2.83S504.19,287.66,503.9,289.18Z" transform="translate(-475.84 -253.34)"/><path class="cls-175" d="M504,289.19c-.24,1.22-.29,2.23-.13,2.26s.51-.94.74-2.16.29-2.23.12-2.26S504.21,288,504,289.19Z" transform="translate(-475.84 -253.34)"/><path class="cls-176" d="M504.06,289.2c-.18.92-.23,1.68-.1,1.7s.37-.71.55-1.63.22-1.67.09-1.68S504.23,288.29,504.06,289.2Z" transform="translate(-475.84 -253.34)"/><path class="cls-177" d="M504.13,289.21c-.12.62-.14,1.12-.06,1.14s.24-.48.36-1.08.15-1.12.07-1.13S504.25,288.61,504.13,289.21Z" transform="translate(-475.84 -253.34)"/><path class="cls-178" d="M504.21,289.23c-.06.3-.08.56,0,.57a1.31,1.31,0,0,0,.18-.55c.06-.3.07-.55,0-.56S504.26,288.92,504.21,289.23Z" transform="translate(-475.84 -253.34)"/></g><path class="cls-179" d="M505.27,321.91,492,323.22s.3-5.87,1.17-13h13.41Z" transform="translate(-475.84 -253.34)"/><path class="cls-180" d="M623.33,321.91l13.23,1.31s-.31-5.87-1.17-13H622Z" transform="translate(-475.84 -253.34)"/><path class="cls-181" d="M501.61,323.22l15.24-51.49c1.35-4.56,6.65-8.26,11.85-8.26h71.2c5.19,0,10.49,3.7,11.84,8.26L627,323.22Z" transform="translate(-475.84 -253.34)"/><path class="cls-182" d="M501.61,322.22a.5.5,0,0,1-.17,0l-10.61-3a.49.49,0,0,1-.36-.62.57.57,0,0,1,.69-.33l10.61,3a.49.49,0,0,1,.36.63A.54.54,0,0,1,501.61,322.22Z" transform="translate(-475.84 -253.34)"/><path class="cls-182" d="M502.75,322.3a1.14,1.14,0,0,1-.59-.16l-9-5.21a.94.94,0,0,1-.34-1.37,1.17,1.17,0,0,1,1.51-.31l9,5.21a.94.94,0,0,1,.33,1.38A1.14,1.14,0,0,1,502.75,322.3Z" transform="translate(-475.84 -253.34)"/><path class="cls-183" d="M494.12,315c0,1.28-1.14,4.65-2.56,4.65H478.41c-1.42,0-2.57-3.37-2.57-4.65h18.28Z" transform="translate(-475.84 -253.34)"/><path class="cls-184" d="M476.62,317.9c.47,1,1.09,1.79,1.79,1.79h13.15c.7,0,1.32-.81,1.78-1.79Z" transform="translate(-475.84 -253.34)"/><path class="cls-182" d="M627.6,322.22a.54.54,0,0,1-.52-.34.49.49,0,0,1,.36-.63l10.61-3a.57.57,0,0,1,.69.33.49.49,0,0,1-.36.62l-10.61,3A.5.5,0,0,1,627.6,322.22Z" transform="translate(-475.84 -253.34)"/><path class="cls-182" d="M626.46,322.3a1.11,1.11,0,0,1-.92-.46.94.94,0,0,1,.33-1.38l9-5.21a1.16,1.16,0,0,1,1.51.31.94.94,0,0,1-.34,1.37l-9,5.21A1.14,1.14,0,0,1,626.46,322.3Z" transform="translate(-475.84 -253.34)"/><path class="cls-185" d="M635.09,315c0,1.28,1.14,4.65,2.56,4.65h13.16c1.41,0,2.56-3.37,2.56-4.65H635.09Z" transform="translate(-475.84 -253.34)"/><path class="cls-186" d="M652.59,317.9c-.47,1-1.09,1.79-1.78,1.79H637.65c-.7,0-1.32-.81-1.78-1.79Z" transform="translate(-475.84 -253.34)"/><g class="cls-187"><path class="cls-188" d="M510.19,320.56h-.05a.44.44,0,0,1-.42-.47c3.24-27.63,18.4-56.5,18.55-56.79a.49.49,0,0,1,.63-.2.42.42,0,0,1,.22.57c-.15.29-15.24,29-18.46,56.51A.47.47,0,0,1,510.19,320.56Z" transform="translate(-475.84 -253.34)"/></g><g class="cls-187"><path class="cls-188" d="M618.4,320.56a.46.46,0,0,1-.46-.39c-3.22-27.48-18.31-56.22-18.47-56.51a.42.42,0,0,1,.22-.57.49.49,0,0,1,.63.2c.16.29,15.32,29.16,18.55,56.79a.43.43,0,0,1-.42.47Z" transform="translate(-475.84 -253.34)"/></g><path class="cls-189" d="M627.26,322.18c-20.88-1.24-43.69-3.23-63-3.23s-42.69,2.74-63,3.23c5.91-1.51,6.35-10.41,11.76-11.92,27.53-3.16,74-3.16,101.51,0C620,311.77,621.36,320.67,627.26,322.18Z" transform="translate(-475.84 -253.34)"/><path class="cls-190" d="M493.92,643a9.72,9.72,0,0,0,7.52,3.45H627.16a9.82,9.82,0,0,0,6.73-2.59c-8.61-4.1-37.15-7.12-71.06-7.12C531.35,636.76,504.5,639.36,493.92,643Z" transform="translate(-475.84 -253.34)"/><path class="cls-191" d="M636.56,323.22c0-3.3-32.35-4.27-72.26-4.27s-72.26,1-72.26,4.27V637.93a8,8,0,0,0,1.88,5.09c10.58-3.66,37.43-6.26,68.91-6.26,33.91,0,62.45,3,71.06,7.12a8.11,8.11,0,0,0,2.67-6Z" transform="translate(-475.84 -253.34)"/><path class="cls-192" d="M564.3,319c-39.91,0-72.26,1-72.26,4.27v2.36c0-3.31,32.35-4.28,72.26-4.28s72.26,1,72.26,4.28v-2.36C636.56,319.92,604.21,319,564.3,319Z" transform="translate(-475.84 -253.34)"/><path class="cls-193" d="M534.91,643.2c-.28-1.81-8.82-2-19.07-.51l-18.73,2.78a10,10,0,0,0,4.33,1h34S535.19,645,534.91,643.2Z" transform="translate(-475.84 -253.34)"/><path class="cls-194" d="M593.77,643.2c.28-1.81,8.82-2,19.07-.51l18.73,2.78a10,10,0,0,1-4.33,1h-34S593.48,645,593.77,643.2Z" transform="translate(-475.84 -253.34)"/><g class="cls-187"><path class="cls-195" d="M633.58,644.41c-8.7-4.15-37.8-7-70.75-7-30.32,0-57.92,2.5-68.67,6.22l-.47-1.12c11.06-3.83,38.2-6.3,69.14-6.3,33.14,0,62.49,3,71.36,7.19Z" transform="translate(-475.84 -253.34)"/></g><rect class="cls-196" x="65.86" y="391.75" width="45.19" height="1.39"/><path class="cls-182" d="M559.32,319l-4.86,0v2.33h4.86Z" transform="translate(-475.84 -253.34)"/><path class="cls-182" d="M566.73,319h-4.86v2.35h4.86Z" transform="translate(-475.84 -253.34)"/><path class="cls-182" d="M569.28,319v2.35h4.86V319Z" transform="translate(-475.84 -253.34)"/><path class="cls-197" d="M565.46,308c-11.17.24-22.34,1-33.44,2.25-5.42,1.51-10.83,8.42-16.25,9.93,9.35-.25,19-.56,28.79-.81A94.54,94.54,0,0,1,565.46,308Z" transform="translate(-475.84 -253.34)"/><path class="cls-198" d="M603.34,262.66a.77.77,0,0,1-.74.81H526a.77.77,0,0,1-.74-.81h0a.78.78,0,0,1,.74-.81h76.6a.78.78,0,0,1,.74.81Z" transform="translate(-475.84 -253.34)"/><g class="cls-187"><path class="cls-188" d="M502.75,636.44a.45.45,0,0,1-.47-.43V326.64a.47.47,0,0,1,.94,0V636A.45.45,0,0,1,502.75,636.44Z" transform="translate(-475.84 -253.34)"/></g><g class="cls-187"><path class="cls-188" d="M625.85,636.44a.45.45,0,0,1-.47-.43V326.64a.47.47,0,0,1,.94,0V636A.45.45,0,0,1,625.85,636.44Z" transform="translate(-475.84 -253.34)"/></g><path class="cls-182" d="M617.38,314.78a262.89,262.89,0,0,0-63.5-6.58c0-.5,0-1,0-1.5a267.41,267.41,0,0,1,64.5,6.7Z" transform="translate(-475.84 -253.34)"/><path class="cls-182" d="M577.24,308.29c0,.9-7,1.63-15.61,1.63S546,309.19,546,308.29s7-1.62,15.62-1.62S577.24,307.4,577.24,308.29Z" transform="translate(-475.84 -253.34)"/><text class="cls-199" transform="translate(68.04 166.27)">S<tspan x="0" y="73.39">E</tspan><tspan x="0" y="146.79">U</tspan></text></g></g></svg>